<?xml version="1.0" encoding="UTF-8" standalone="no"?>
<!DOCTYPE svg PUBLIC "-//W3C//DTD SVG 1.1//EN" "http://www.w3.org/Graphics/SVG/1.1/DTD/svg11.dtd">
<!-- Generated by Microsoft Visio, SVG Export zigbee_platform_design_split.svg Page-1 -->
<svg xmlns="http://www.w3.org/2000/svg" xmlns:xlink="http://www.w3.org/1999/xlink" xmlns:ev="http://www.w3.org/2001/xml-events"
		xmlns:v="http://schemas.microsoft.com/visio/2003/SVGExtensions/" width="10.3068in" height="4.67323in"
		viewBox="0 0 742.087 336.472" xml:space="preserve" color-interpolation-filters="sRGB" class="st17">
	<v:documentProperties v:langID="1033" v:metric="true" v:viewMarkup="false">
		<v:userDefs>
			<v:ud v:nameU="msvNoAutoConnect" v:val="VT0(1):26"/>
		</v:userDefs>
	</v:documentProperties>

	<style type="text/css">
	<![CDATA[
		.st1 {fill:#0077c8;fill-opacity:0.6;stroke:none;stroke-linecap:round;stroke-linejoin:round;stroke-width:0.75}
		.st2 {stroke:none;stroke-linecap:round;stroke-linejoin:round;stroke-width:0.75}
		.st3 {fill:#ffffff;font-family:Gotham Light;font-size:1.64637em}
		.st4 {fill:#ff0000;stroke:none;stroke-linecap:round;stroke-linejoin:round;stroke-width:0.75}
		.st5 {fill:#ffffff;font-family:Gotham Light;font-size:1.01919em}
		.st6 {fill:#0077c8;fill-opacity:0.51;stroke:none;stroke-linecap:round;stroke-linejoin:round;stroke-width:0.75}
		.st7 {fill:#ffffff;font-family:Gotham Light;font-size:0.862381em}
		.st8 {fill:#0077c8;fill-opacity:0.45;stroke:none;stroke-linecap:round;stroke-linejoin:round;stroke-width:0.75}
		.st9 {fill:#0077c8;fill-opacity:0.52;stroke:none;stroke-linecap:round;stroke-linejoin:round;stroke-width:0.75}
		.st10 {fill:#00a9ce;stroke:none;stroke-linecap:round;stroke-linejoin:round;stroke-width:0.75}
		.st11 {fill:#0077c8;fill-opacity:0.53;stroke:none;stroke-linecap:round;stroke-linejoin:round;stroke-width:0.75}
		.st12 {fill:#0077c8;stroke:none;stroke-linecap:round;stroke-linejoin:round;stroke-width:0.75}
		.st13 {fill:#0075c8;stroke:#0075c8;stroke-linecap:round;stroke-linejoin:round;stroke-width:0.0587766}
		.st14 {fill:#333f48;font-family:Gotham Light;font-size:1.25439em}
		.st15 {fill:#ffffff;font-family:Gotham Light;font-size:1.17599em}
		.st16 {fill:#ffffff;font-family:Gotham Light;font-size:0.862495em}
		.st17 {fill:none;fill-rule:evenodd;font-size:12px;overflow:visible;stroke-linecap:square;stroke-miterlimit:3}
	]]>
	</style>

	<g v:mID="0" v:index="1" v:groupContext="foregroundPage">
		<title>Page-1</title>
		<v:pageProperties v:drawingScale="0.0393701" v:pageScale="0.0393701" v:drawingUnits="24" v:shadowOffsetX="8.50394"
				v:shadowOffsetY="-8.50394"/>
		<g id="shape3-1" v:mID="3" v:groupContext="shape" transform="translate(18,-18)">
			<title>Sheet.3</title>
			<path d="M285.78 165.66 L0 165.66 L0 336.47 L285.78 336.47 L285.78 165.66 Z" class="st1"/>
		</g>
		<g id="shape4-3" v:mID="4" v:groupContext="shape" transform="translate(30.5875,-22.6351)">
			<title>Sheet.4</title>
			<desc>nRF52 series SoC</desc>
			<v:textBlock v:margins="rect(0,0,0,0)" v:tabSpace="42.5197"/>
			<v:textRect cx="126.439" cy="324.617" width="252.88" height="23.7113"/>
			<path d="M252.88 312.76 L0 312.76 L0 336.47 L252.88 336.47 L252.88 312.76" class="st2"/>
			<text x="41.28" y="330.54" class="st3" v:langID="1033"><v:paragraph v:horizAlign="1"/><v:tabList/>nRF52 series SoC</text>		</g>
		<g id="shape7-7" v:mID="7" v:groupContext="shape" transform="translate(30.2208,-145.532)">
			<title>Sheet.7</title>
			<path d="M0 300.72 L0 336.47 L253.82 336.47 L253.82 300.72 L0 300.72 L0 300.72 Z" class="st4"/>
		</g>
		<g id="shape8-9" v:mID="8" v:groupContext="shape" transform="translate(29.6475,-156.067)">
			<title>Sheet.8</title>
			<desc>ZBOSS MAC serialization</desc>
			<v:textBlock v:margins="rect(0,0,0,0)" v:tabSpace="42.5197"/>
			<v:textRect cx="126.909" cy="329.132" width="253.82" height="14.6799"/>
			<path d="M253.82 321.79 L0 321.79 L0 336.47 L253.82 336.47 L253.82 321.79" class="st2"/>
			<text x="51.25" y="332.8" class="st5" v:langID="1033"><v:paragraph v:horizAlign="1"/><v:tabList/>ZBOSS MAC serialization</text>		</g>
		<g id="shape9-13" v:mID="9" v:groupContext="shape" transform="translate(29.6475,-50.3306)">
			<title>Sheet.9</title>
			<path d="M253.82 289.43 L0 289.43 L0 336.47 L253.82 336.47 L253.82 289.43 Z" class="st6"/>
		</g>
		<g id="shape11-15" v:mID="11" v:groupContext="shape" transform="translate(29.6475,-79.8206)">
			<title>Sheet.11</title>
			<desc>IEEE 802.15.4 radio driver</desc>
			<v:textBlock v:margins="rect(0,0,0,0)" v:tabSpace="42.5197"/>
			<v:textRect cx="126.439" cy="330.262" width="252.88" height="12.4219"/>
			<path d="M252.88 324.05 L0 324.05 L0 336.47 L252.88 336.47 L252.88 324.05" class="st2"/>
			<text x="61.37" y="333.37" class="st7" v:langID="1033"><v:paragraph v:horizAlign="1"/><v:tabList/>IEEE 802.15.4 radio driver</text>		</g>
		<g id="shape12-19" v:mID="12" v:groupContext="shape" transform="translate(41.8683,-54.0938)">
			<title>Sheet.12</title>
			<path d="M228.44 316.72 L0 316.72 L0 336.47 L228.44 336.47 L228.44 316.72 Z" class="st8"/>
		</g>
		<g id="shape13-21" v:mID="13" v:groupContext="shape" transform="translate(41.3096,-57.7611)">
			<title>Sheet.13</title>
			<desc>IEEE 802.15.4 PHY</desc>
			<v:textBlock v:margins="rect(0,0,0,0)" v:tabSpace="42.5197"/>
			<v:textRect cx="114.218" cy="330.262" width="228.44" height="12.4219"/>
			<path d="M228.44 324.05 L0 324.05 L0 336.47 L228.44 336.47 L228.44 324.05" class="st2"/>
			<text x="67.54" y="333.37" class="st7" v:langID="1033"><v:paragraph v:horizAlign="1"/><v:tabList/>IEEE 802.15.4 PHY</text>		</g>
		<g id="shape35-25" v:mID="35" v:groupContext="shape" transform="translate(438.308,-110.723)">
			<title>Sheet.35</title>
			<path d="M285.78 128.72 L0 128.72 L0 336.47 L285.78 336.47 L285.78 128.72 Z" class="st9"/>
		</g>
		<g id="shape14-27" v:mID="14" v:groupContext="shape" transform="translate(454.289,-188.079)">
			<title>Sheet.14</title>
			<path d="M0 257.1 L0 336.47 L253.82 336.47 L253.82 257.1 L0 257.1 L0 257.1 Z" class="st10"/>
		</g>
		<g id="shape36-29" v:mID="36" v:groupContext="shape" transform="translate(454.759,-117.596)">
			<title>Sheet.36</title>
			<desc>Host processor</desc>
			<v:textBlock v:margins="rect(0,0,0,0)" v:tabSpace="42.5197"/>
			<v:textRect cx="126.439" cy="324.617" width="252.88" height="23.7113"/>
			<path d="M252.88 312.76 L0 312.76 L0 336.47 L252.88 336.47 L252.88 312.76" class="st2"/>
			<text x="52.49" y="330.54" class="st3" v:langID="1033"><v:paragraph v:horizAlign="1"/><v:tabList/>Host processor</text>		</g>
		<g id="shape38-33" v:mID="38" v:groupContext="shape" transform="translate(454.289,-146.473)">
			<title>Sheet.38</title>
			<path d="M0 300.72 L0 336.47 L253.82 336.47 L253.82 300.72 L0 300.72 L0 300.72 Z" class="st4"/>
		</g>
		<g id="shape39-35" v:mID="39" v:groupContext="shape" transform="translate(454.289,-157.008)">
			<title>Sheet.39</title>
			<desc>ZBOSS MAC serialization</desc>
			<v:textBlock v:margins="rect(0,0,0,0)" v:tabSpace="42.5197"/>
			<v:textRect cx="126.439" cy="329.132" width="252.88" height="14.6799"/>
			<path d="M252.88 321.79 L0 321.79 L0 336.47 L252.88 336.47 L252.88 321.79" class="st2"/>
			<text x="50.78" y="332.8" class="st5" v:langID="1033"><v:paragraph v:horizAlign="1"/><v:tabList/>ZBOSS MAC serialization</text>		</g>
		<g id="shape40-39" v:mID="40" v:groupContext="shape" transform="translate(30.5875,-103.039)">
			<title>Sheet.40</title>
			<path d="M252.88 299.78 L0 299.78 L0 336.47 L252.88 336.47 L252.88 299.78 Z" class="st11"/>
		</g>
		<g id="shape41-41" v:mID="41" v:groupContext="shape" transform="translate(30.5875,-114.045)">
			<title>Sheet.41</title>
			<desc>IEEE 802.15.4 MAC</desc>
			<v:textBlock v:margins="rect(0,0,0,0)" v:tabSpace="42.5197"/>
			<v:textRect cx="126.439" cy="329.132" width="252.88" height="14.6799"/>
			<path d="M252.88 321.79 L0 321.79 L0 336.47 L252.88 336.47 L252.88 321.79" class="st2"/>
			<text x="69.7" y="332.8" class="st5" v:langID="1033"><v:paragraph v:horizAlign="1"/><v:tabList/>IEEE 802.15.4 MAC</text>		</g>
		<g id="shape45-45" v:mID="45" v:groupContext="shape" transform="translate(453.543,-273.118)">
			<title>Sheet.45</title>
			<path d="M0 299.78 L0 336.47 L253.82 336.47 L253.82 299.78 L0 299.78 L0 299.78 Z" class="st12"/>
		</g>
		<g id="shape46-47" v:mID="46" v:groupContext="shape" transform="translate(537.632,-284.124)">
			<title>Sheet.46</title>
			<desc>Application</desc>
			<v:textBlock v:margins="rect(0,0,0,0)" v:tabSpace="42.5197"/>
			<v:textRect cx="41.8803" cy="329.132" width="83.77" height="14.6799"/>
			<path d="M83.76 321.79 L0 321.79 L0 336.47 L83.76 336.47 L83.76 321.79" class="st2"/>
			<text x="7.3" y="332.8" class="st5" v:langID="1033"><v:paragraph v:horizAlign="1"/><v:tabList/>Application</text>		</g>
		<g id="shape47-51" v:mID="47" v:groupContext="shape" transform="translate(284.508,-159.291)">
			<title>Sheet.47</title>
			<path d="M5.48 333.18 L163.65 332.42 L163.65 331.47 L5.48 332.24 L5.48 333.18 L5.48 333.18 ZM6.55 328.95 L0 332.77 L6.6
						 336.47 L6.55 328.95 L6.55 328.95 ZM162.58 335.71 L169.13 331.89 L162.53 328.18 L162.58 335.71 L162.58 335.71
						 Z" class="st13"/>
		</g>
		<g id="shape48-53" v:mID="48" v:groupContext="shape" transform="translate(297.733,-164.6)">
			<title>Sheet.48</title>
			<desc>UART/SPI/USB</desc>
			<v:textBlock v:margins="rect(0,0,0,0)" v:tabSpace="42.5197"/>
			<v:textRect cx="68.5089" cy="327.439" width="137.02" height="18.0668"/>
			<path d="M137.02 318.41 L0 318.41 L0 336.47 L137.02 336.47 L137.02 318.41" class="st2"/>
			<text x="11.2" y="331.96" class="st14" v:langID="1033"><v:paragraph v:horizAlign="1"/><v:tabList/>UART/SPI/USB</text>		</g>
		<g id="shape15-57" v:mID="15" v:groupContext="shape" transform="translate(455.229,-244.842)">
			<title>Sheet.15</title>
			<desc>Zigbee stack (ZBOSS)</desc>
			<v:textBlock v:margins="rect(0,0,0,0)" v:tabSpace="42.5197"/>
			<v:textRect cx="126.439" cy="328.003" width="252.88" height="16.9379"/>
			<path d="M252.88 319.53 L0 319.53 L0 336.47 L252.88 336.47 L252.88 319.53" class="st2"/>
			<text x="48.63" y="332.24" class="st15" v:langID="1033"><v:paragraph v:horizAlign="1"/><v:tabList/>Zigbee stack (ZBOSS)</text>		</g>
		<g id="shape19-61" v:mID="19" v:groupContext="shape" transform="translate(498.942,-222.094)">
			<title>Sheet.19</title>
			<desc>Zigbee App layer (ZCL)</desc>
			<v:textBlock v:margins="rect(0,0,0,0)" v:tabSpace="42.5197"/>
			<v:textRect cx="82.2555" cy="327.065" width="164.52" height="18.8158"/>
			<path d="M164.51 317.66 L0 317.66 L0 336.47 L164.51 336.47 L164.51 317.66 Z" class="st1"/>
			<text x="21.53" y="330.17" class="st16" v:langID="1033"><v:paragraph v:horizAlign="1"/><v:tabList/>Zigbee App layer (ZCL)</text>		</g>
		<g id="shape25-64" v:mID="25" v:groupContext="shape" transform="translate(498.942,-197.103)">
			<title>Sheet.25</title>
			<desc>Zigbee PRO + Green Power</desc>
			<v:textBlock v:margins="rect(0,0,0,0)" v:tabSpace="42.5197"/>
			<v:textRect cx="82.2555" cy="326.594" width="164.52" height="19.7566"/>
			<path d="M164.51 316.72 L0 316.72 L0 336.47 L164.51 336.47 L164.51 316.72 Z" class="st1"/>
			<text x="11.86" y="329.7" class="st16" v:langID="1033"><v:paragraph v:horizAlign="1"/><v:tabList/>Zigbee PRO + Green Power</text>		</g>
	</g>
</svg>
