<?xml version="1.0" encoding="UTF-8" standalone="no"?>
<!DOCTYPE svg PUBLIC "-//W3C//DTD SVG 1.1//EN" "http://www.w3.org/Graphics/SVG/1.1/DTD/svg11.dtd">
<svg xmlns="http://www.w3.org/2000/svg" xmlns:xlink="http://www.w3.org/1999/xlink" version="1.1" width="841.92007pt" height="595.32pt" viewBox="0 0 841.92007 595.32">
<g enable-background="new">
<text xml:space="preserve" transform="matrix(.030762002 0 0 .030762002 0 0)" font-size="327.68" font-family="F1"><tspan y="19251.2" x="776.32 959.82089 1143.3217 1231.7953 1415.296 1598.7968 1690.5471 1874.0479 2054.272 2237.773 2421.274 2513.0245 2696.5255 2880.0264 2968.5 3152.001 3335.502 3423.9757 3515.726 3751.6558 3843.4063 3931.88 4171.0866 4354.587 4521.7038 4610.1774 4793.6779 4905.0895 4996.84 5180.3405 5363.841 5452.3146 5635.815 5875.0217 6074.9064 6258.4069 6441.907 6625.4079 6894.1057 7077.606 7241.446 7424.9465 7513.42 7696.9206 7880.421 8063.9216 8172.056 8355.557 8519.396 8607.87 8791.371 8902.782 8994.533 9178.034 9361.535 9545.036 9708.876 9892.377 10075.878 10239.718 10423.219 10531.353 10623.104 10806.6049 10990.105 11078.579 11262.08 11425.92 11609.421 11697.895 11861.734 12045.235 12228.736 12392.576 12576.077 12687.488 12867.713 12959.464 13142.965 13326.466 13414.939 13598.44 13706.574">14/02/2021 17:10  D:\Dev\nrf52\nRF52_Mesh\boards\nrf52_sensortag\pcb\sensor_tag.brd</tspan></text>
<clipPath id="cp0">
<path transform="matrix(.75,0,0,.75,0,0)" d="M 508.32 352.48 L 646.24 352.48 L 646.24 453.76 L 508.32 453.76 Z " fill-rule="evenodd"/>
</clipPath>
<g clip-path="url(#cp0)">
<path transform="matrix(.75,0,0,.75,0,0)" stroke-width=".16" stroke-linecap="square" stroke-linejoin="bevel" fill="none" stroke="#ffffff" d="M 508.32 352.48 L 646.24 453.76 "/>
<path transform="matrix(.75,0,0,.75,0,0)" stroke-width=".16" stroke-linecap="square" stroke-linejoin="bevel" fill="none" stroke="#ffffff" d="M 646.24 352.48 L 508.32 453.76 "/>
</g>
<clipPath id="cp1">
<path transform="matrix(.75,0,0,.75,0,0)" d="M 508.32 352.48 L 508.32 453.76 L 646.24 453.76 L 646.24 352.48 Z " fill-rule="evenodd"/>
</clipPath>
<g clip-path="url(#cp1)">
<path transform="matrix(.75,0,0,.75,0,0)" stroke-width=".16" stroke-linecap="round" stroke-linejoin="round" fill="none" stroke="#afd134" d="M 586.08 403.36 L 593.76 403.36 "/>
<path transform="matrix(.75,0,0,.75,0,0)" stroke-width=".16" stroke-linecap="round" stroke-linejoin="round" fill="none" stroke="#afd134" d="M 589.92 407.2 L 589.92 399.52 "/>
<path transform="matrix(.75,0,0,.75,0,0)" stroke-width=".16" stroke-linecap="round" stroke-linejoin="round" fill="none" stroke="#afd134" d="M 600 402.88 L 607.52 402.88 "/>
<path transform="matrix(.75,0,0,.75,0,0)" stroke-width=".16" stroke-linecap="round" stroke-linejoin="round" fill="none" stroke="#afd134" d="M 603.68 406.72 L 603.68 399.04 "/>
</g>
<text fill="#808080" xml:space="preserve" transform="matrix(-.015381001 0 0 .015381001 0 0)" font-size="327.68" font-family="F1"><tspan y="20604.8" x="-27072.6 -26853.055">V+</tspan></text>
<text fill="#808080" xml:space="preserve" transform="matrix(-.015381001 0 0 .015381001 0 0)" font-size="327.68" font-family="F1"><tspan y="20604.8" x="-31043.8 -30824.256">V+</tspan></text>
<text fill="#808080" xml:space="preserve" transform="matrix(-.015381001 0 0 .015381001 0 0)" font-size="327.68" font-family="F1"><tspan y="18108.2" x="-29140.2 -28881.333 -28648.678">GND</tspan></text>
<clipPath id="cp2">
<path transform="matrix(.75,0,0,.75,0,0)" d="M 508.32 352.48 L 508.32 453.76 L 646.24 453.76 L 646.24 352.48 Z " fill-rule="evenodd"/>
</clipPath>
<g clip-path="url(#cp2)">
<path transform="matrix(.75,0,0,.75,470.76,302.52)" stroke-width=".48" stroke-linecap="round" stroke-linejoin="round" fill="none" stroke="#808080" d="M 0 0 C 0 20.8 -16.96 37.76 -37.76 37.76 C -58.56 37.76 -75.52 20.8 -75.52 0 C -75.52 -20.8 -58.56 -37.76 -37.76 -37.76 C -16.96 -37.76 0 -20.8 0 0 Z "/>
<path transform="matrix(.75,0,0,.75,479.40003,302.16)" stroke-width=".48" stroke-linecap="round" stroke-linejoin="round" fill="none" stroke="#808080" d="M 0 0 C 0 27.52 -22.24 49.76 -49.76 49.76 C -77.28 49.76 -99.52 27.52 -99.52 0 C -99.52 -27.52 -77.28 -49.76 -49.76 -49.76 C -22.24 -49.76 0 -27.52 0 0 Z "/>
<path transform="matrix(.75,0,0,.75,0,0)" stroke-width=".48" stroke-linecap="round" stroke-linejoin="round" fill="none" stroke="#808080" d="M 543.36 383.04 L 527.2 383.2 "/>
<path transform="matrix(.75,0,0,.75,0,0)" stroke-width=".48" stroke-linecap="round" stroke-linejoin="round" fill="none" stroke="#808080" d="M 527.2 383.2 L 527.2 422.56 "/>
<path transform="matrix(.75,0,0,.75,0,0)" stroke-width=".48" stroke-linecap="round" stroke-linejoin="round" fill="none" stroke="#808080" d="M 527.2 422.56 L 543.36 422.56 "/>
</g>
<text fill="#808080" xml:space="preserve" transform="matrix(-.015381001 0 0 .015381001 0 0)" font-size="327.68" font-family="F1"><tspan y="19738.9" x="-31121.8 -30889.147 -30653.217 -30472.995 -30296.047 -30115.825">CR2477</tspan></text>
<clipPath id="cp3">
<path transform="matrix(.75,0,0,.75,0,0)" d="M 508.32 352.48 L 508.32 453.76 L 646.24 453.76 L 646.24 352.48 Z " fill-rule="evenodd"/>
</clipPath>
<g clip-path="url(#cp3)">
<path transform="matrix(.75,0,0,.75,0,0)" d="M 629.12 389.76 L 636.8 389.76 L 636.8 416.96 L 629.12 416.96 L 629.12 389.76 Z " fill="#0696d7" fill-rule="evenodd"/>
<path transform="matrix(.75,0,0,.75,0,0)" stroke-width=".16" stroke-linecap="round" stroke-linejoin="round" fill="none" stroke="#0696d7" d="M 629.12 389.76 L 636.8 389.76 L 636.8 416.96 L 629.12 416.96 L 629.12 389.76 Z "/>
<path transform="matrix(.75,0,0,.75,0,0)" d="M 542.88 389.76 L 550.56 389.76 L 550.56 416.96 L 542.88 416.96 L 542.88 389.76 Z " fill="#0696d7" fill-rule="evenodd"/>
<path transform="matrix(.75,0,0,.75,0,0)" stroke-width=".16" stroke-linecap="round" stroke-linejoin="round" fill="none" stroke="#0696d7" d="M 542.88 389.76 L 550.56 389.76 L 550.56 416.96 L 542.88 416.96 L 542.88 389.76 Z "/>
<path transform="matrix(.75,0,0,.75,466.32,302.52)" d="M 0 0 C 0 17.6 -14.24 31.84 -31.84 31.84 C -49.44 31.84 -63.68 17.6 -63.68 0 C -63.68 -17.6 -49.44 -31.84 -31.84 -31.84 C -14.24 -31.84 0 -17.6 0 0 Z " fill="#0696d7" fill-rule="evenodd"/>
<path transform="matrix(.75,0,0,.75,466.32,302.52)" stroke-width=".16" stroke-linecap="round" stroke-linejoin="round" fill="none" stroke="#0696d7" d="M 0 0 C 0 17.6 -14.24 31.84 -31.84 31.84 C -49.44 31.84 -63.68 17.6 -63.68 0 C -63.68 -17.6 -49.44 -31.84 -31.84 -31.84 C -14.24 -31.84 0 -17.6 0 0 Z "/>
<path transform="matrix(.75,0,0,.75,0,0)" stroke-width="2.4" stroke-linecap="round" stroke-linejoin="round" fill="none" stroke="#0696d7" d="M 589.92 403.36 L 585.12 405.28 "/>
<path transform="matrix(.75,0,0,.75,0,0)" stroke-width="2.4" stroke-linecap="round" stroke-linejoin="round" fill="none" stroke="#0696d7" d="M 585.12 410.08 L 585.12 405.28 "/>
<path transform="matrix(.75,0,0,.75,0,0)" d="M 642.88 449.12 L 643.2 448.96 L 643.36 448.64 L 643.36 448.32 L 643.36 356.48 L 643.36 356.16 L 643.2 355.84 L 642.88 355.68 L 642.56 355.52 L 513.28 355.52 L 512.96 355.68 L 512.64 355.84 L 512.48 356.16 L 512.48 356.48 L 512.48 408.96 L 512.48 409.28 L 512.64 409.6 L 512.96 409.76 L 513.28 409.76 L 513.6 409.76 L 513.92 409.44 L 514.08 409.28 L 514.72 407.84 L 515.84 406.72 L 517.28 406.08 L 518.88 406.08 L 520.32 406.72 L 521.44 407.84 L 522.08 409.28 L 522.08 410.88 L 521.44 412.32 L 520.32 413.44 L 518.88 414.08 L 517.28 414.08 L 515.84 413.44 L 514.72 412.32 L 514.08 410.88 L 513.92 410.56 L 513.6 410.4 L 513.28 410.24 L 512.96 410.4 L 512.64 410.56 L 512.48 410.88 L 512.48 411.2 L 512.48 428 L 512.48 428.32 L 512.64 428.64 L 512.96 428.8 L 513.28 428.96 L 513.6 428.8 L 513.92 428.64 L 514.08 428.32 L 514.72 426.88 L 515.84 425.76 L 517.28 425.12 L 518.4 425.12 L 518.72 425.12 L 519.04 424.96 L 519.52 424.48 L 519.68 424.16 L 519.68 423.84 L 519.68 423.52 L 519.52 423.2 L 519.2 423.04 L 518.88 423.04 L 518.88 420.48 L 521.44 420.48 L 521.12 420.96 L 521.12 421.28 L 521.12 421.76 L 521.44 421.92 L 521.6 422.08 L 522.08 422.24 L 522.24 422.08 L 522.4 422.08 L 533.6 422.08 L 533.92 422.08 L 534.24 421.92 L 534.4 421.6 L 534.56 421.28 L 534.56 407.52 L 534.4 407.2 L 534.24 406.88 L 533.92 406.72 L 533.6 406.56 L 533.28 406.72 L 532.96 406.88 L 531.36 406.88 L 529.92 406.24 L 528.8 405.12 L 528.16 403.68 L 528.16 402.08 L 528.8 400.64 L 529.92 399.52 L 531.36 398.88 L 532.96 398.88 L 533.28 399.04 L 533.6 399.04 L 534.08 399.04 L 534.24 398.88 L 534.4 398.56 L 534.56 398.24 L 534.56 384.8 L 534.4 384.48 L 534.24 384.32 L 533.92 384 L 533.6 384 L 530.72 384 L 530.4 384 L 530.08 384.32 L 529.76 384.48 L 528.32 385.12 L 526.88 385.12 L 525.44 384.48 L 525.12 384.32 L 524.96 384 L 524.64 384 L 521.76 384 L 521.28 384 L 521.12 384.32 L 520.64 384.64 L 519.2 385.28 L 518.88 385.44 L 518.72 385.76 L 518.56 386.08 L 518.72 386.4 L 518.88 386.72 L 519.2 386.88 L 520.64 387.52 L 521.76 388.64 L 522.24 389.92 L 522.56 390.24 L 522.72 390.4 L 523.2 390.56 L 523.52 390.4 L 523.68 390.24 L 523.84 389.92 L 524.48 388.8 L 525.44 387.68 L 526.88 387.04 L 528.32 387.04 L 529.76 387.68 L 530.88 388.8 L 531.36 390.08 L 531.36 391.68 L 530.88 393.12 L 529.76 394.08 L 528.32 394.72 L 526.88 394.72 L 525.44 394.08 L 524.48 393.12 L 523.84 391.84 L 523.68 391.52 L 523.36 391.36 L 523.04 391.2 L 522.72 391.36 L 522.4 391.52 L 522.24 391.84 L 521.76 393.12 L 520.64 394.24 L 519.2 394.88 L 517.6 394.88 L 516.16 394.24 L 515.04 393.12 L 514.4 391.68 L 514.4 390.08 L 515.04 388.64 L 516.16 387.52 L 517.6 386.88 L 517.76 386.72 L 518.08 386.4 L 518.08 386.08 L 518.08 385.76 L 517.76 385.44 L 517.6 385.28 L 516.16 384.64 L 515.04 383.52 L 514.4 382.08 L 514.4 380.48 L 515.04 379.04 L 516.16 377.92 L 517.6 377.28 L 519.2 377.28 L 520.64 377.92 L 521.12 378.4 L 521.44 378.56 L 521.76 378.72 L 524.64 378.72 L 524.96 378.56 L 525.12 378.4 L 525.44 378.08 L 526.88 377.6 L 528.32 377.6 L 529.76 378.08 L 530.08 378.4 L 530.4 378.56 L 530.72 378.72 L 537.76 378.72 L 538.08 378.72 L 538.4 378.88 L 538.72 378.72 L 539.04 378.56 L 539.2 378.24 L 539.36 377.92 L 539.2 377.6 L 539.04 377.44 L 527.84 366.24 L 527.52 366.08 L 527.2 365.92 L 526.88 365.92 L 525.44 365.44 L 525.12 365.12 L 524.96 364.96 L 524.64 364.8 L 521.76 364.8 L 521.28 364.96 L 521.12 365.12 L 520.64 365.6 L 519.2 366.24 L 517.6 366.24 L 516.16 365.6 L 515.04 364.48 L 514.4 363.04 L 514.4 361.44 L 515.04 359.84 L 516.16 358.72 L 517.6 358.24 L 519.2 358.24 L 520.64 358.72 L 521.12 359.2 L 521.44 359.36 L 521.76 359.52 L 524.64 359.52 L 524.96 359.36 L 525.12 359.2 L 525.44 358.88 L 526.88 358.4 L 528.32 358.4 L 529.76 358.88 L 530.88 360 L 531.36 361.44 L 531.36 361.76 L 531.52 362.08 L 531.68 362.4 L 549.12 379.84 L 549.44 380.8 L 549.44 387.36 L 549.6 387.68 L 549.76 388 L 550.08 388.16 L 550.4 388.16 L 550.88 388.16 L 551.36 388.48 L 551.84 388.96 L 552.16 389.44 L 552.16 405.92 L 552.16 406.24 L 552.32 406.4 L 553.28 407.84 L 553.44 408 L 553.92 408.48 L 554.4 409.44 L 554.4 410.56 L 553.92 411.68 L 553.12 412.32 L 552.64 412.64 L 552.32 412.8 L 552.16 413.12 L 552.16 413.44 L 552.16 417.28 L 551.84 417.76 L 551.36 418.24 L 550.88 418.4 L 542.72 418.4 L 542.08 418.24 L 541.76 417.76 L 541.6 417.44 L 541.28 417.12 L 541.12 416.96 L 540.8 416.8 L 540.32 416.96 L 540.16 417.12 L 540 417.44 L 539.84 417.76 L 539.84 424.96 L 539.52 425.92 L 538.72 426.72 L 537.76 427.04 L 536.64 427.04 L 535.84 426.72 L 535.52 426.72 L 532 426.72 L 531.68 426.72 L 531.36 427.04 L 531.2 427.2 L 531.2 427.52 L 531.2 427.84 L 531.36 428.48 L 531.36 429.92 L 530.88 431.36 L 530.56 431.68 L 530.4 431.84 L 530.24 432.16 L 530.24 444 L 529.92 445.12 L 527.2 447.68 L 527.04 448 L 527.04 448.32 L 527.04 448.64 L 527.2 448.96 L 527.52 449.12 L 527.84 449.12 L 642.56 449.12 L 642.88 449.12 Z M 515.04 370.88 L 515.52 369.76 L 516.48 368.8 L 517.44 368.48 L 517.44 370.88 L 515.04 370.88 Z M 519.2 370.88 L 519.2 368.48 L 520.32 368.8 L 521.28 369.76 L 521.76 370.88 L 519.2 370.88 Z M 628.96 418.4 L 628.32 418.24 L 627.84 417.76 L 627.68 417.28 L 627.68 389.44 L 627.84 388.96 L 628.32 388.48 L 628.96 388.16 L 629.44 388.16 L 629.76 388.16 L 630.08 388 L 630.24 387.68 L 630.24 387.36 L 630.24 382.72 L 630.24 382.4 L 630.08 382.24 L 622.56 374.72 L 622.24 374.56 L 621.92 374.4 L 614.72 374.4 L 614.4 374.56 L 613.28 374.56 L 612.32 374.08 L 611.52 373.28 L 611.04 372.32 L 611.04 371.2 L 611.52 370.24 L 612.32 369.44 L 613.28 368.96 L 614.4 368.96 L 614.72 369.12 L 623.84 369.12 L 624.96 369.44 L 635.2 379.84 L 635.68 380.8 L 635.68 387.36 L 635.68 387.68 L 635.84 388 L 636.16 388.16 L 636.48 388.16 L 636.96 388.16 L 637.6 388.48 L 638.08 388.96 L 638.24 389.44 L 638.24 417.28 L 638.08 417.76 L 637.6 418.24 L 636.96 418.4 L 628.96 418.4 Z M 590.72 402.4 L 590.72 370.56 L 593.12 370.56 L 599.52 371.84 L 605.44 374.24 L 610.72 377.92 L 615.36 382.4 L 618.88 387.84 L 621.44 393.76 L 622.72 400.16 L 622.72 402.4 L 590.72 402.4 Z M 557.12 402.4 L 557.12 400.16 L 558.24 393.76 L 560.8 387.84 L 564.32 382.4 L 568.96 377.92 L 574.4 374.24 L 580.32 371.84 L 586.56 370.56 L 588.96 370.56 L 588.96 402.4 L 557.12 402.4 Z M 519.2 372.64 L 521.76 372.64 L 521.28 373.76 L 520.32 374.72 L 519.2 375.04 L 519.2 372.64 Z M 516.48 374.72 L 515.52 373.76 L 515.04 372.64 L 517.44 372.64 L 517.44 375.04 L 516.48 374.72 Z M 590.72 436.16 L 590.72 404.16 L 622.72 404.16 L 622.72 406.56 L 621.44 412.96 L 618.88 418.88 L 615.36 424.32 L 610.72 428.8 L 605.44 432.48 L 599.52 434.88 L 593.12 436.16 L 590.72 436.16 Z M 586.56 436.16 L 580.32 434.88 L 574.4 432.48 L 568.96 428.8 L 564.32 424.32 L 560.8 418.88 L 558.24 412.96 L 557.12 406.56 L 557.12 404.16 L 588.96 404.16 L 588.96 436.16 L 586.56 436.16 Z M 514.72 418.72 L 515.2 417.6 L 516.16 416.64 L 517.12 416.32 L 517.12 418.72 L 514.72 418.72 Z M 518.88 418.72 L 518.88 416.32 L 520 416.64 L 520.96 417.6 L 521.44 418.72 L 518.88 418.72 Z M 516.16 422.56 L 515.2 421.6 L 514.72 420.48 L 517.12 420.48 L 517.12 423.04 L 516.16 422.56 Z M 632.32 447.2 L 630.88 446.56 L 629.92 445.6 L 629.28 444.32 L 629.28 442.88 L 629.92 441.44 L 630.88 440.48 L 632.32 440 L 633.76 440 L 635.04 440.48 L 636 441.44 L 636.64 442.88 L 636.64 444.32 L 636 445.6 L 635.04 446.56 L 633.76 447.2 L 632.32 447.2 Z M 622.72 447.2 L 621.28 446.56 L 620.32 445.6 L 619.84 444.32 L 619.84 442.88 L 620.32 441.44 L 621.28 440.48 L 622.72 440 L 624.16 440 L 625.44 440.48 L 626.4 441.44 L 627.04 442.88 L 627.04 444.32 L 626.4 445.6 L 625.44 446.56 L 624.16 447.2 L 622.72 447.2 Z M 613.12 447.2 L 611.68 446.56 L 610.72 445.6 L 610.24 444.32 L 610.24 442.88 L 610.72 441.44 L 611.68 440.48 L 613.12 440 L 614.56 440 L 615.84 440.48 L 616.8 441.44 L 617.44 442.88 L 617.44 444.32 L 616.8 445.6 L 615.84 446.56 L 614.56 447.2 L 613.12 447.2 Z M 584.32 447.2 L 583.04 446.56 L 582.08 445.6 L 581.44 444.32 L 581.44 442.88 L 582.08 441.44 L 583.04 440.48 L 584.32 440 L 585.76 440 L 587.2 440.48 L 588.16 441.44 L 588.64 442.88 L 588.64 444.32 L 588.16 445.6 L 587.2 446.56 L 585.76 447.2 L 584.32 447.2 Z M 574.72 447.2 L 573.44 446.56 L 572.48 445.6 L 571.84 444.32 L 571.84 442.88 L 572.48 441.44 L 573.44 440.48 L 574.72 440 L 576.16 440 L 577.6 440.48 L 578.56 441.44 L 579.2 442.88 L 579.2 444.32 L 578.56 445.6 L 577.6 446.56 L 576.16 447.2 L 574.72 447.2 Z M 591.68 442.72 L 591.68 441.12 L 592.16 440.48 L 593.76 440.48 L 593.76 442.72 L 591.68 442.72 Z M 595.52 442.72 L 595.52 440.48 L 597.12 440.48 L 597.76 441.12 L 597.76 442.72 L 595.52 442.72 Z M 601.28 442.72 L 601.6 441.76 L 602.56 440.96 L 603.36 440.64 L 603.36 442.72 L 601.28 442.72 Z M 605.12 442.72 L 605.12 440.64 L 605.92 440.96 L 606.88 441.76 L 607.2 442.72 L 605.12 442.72 Z M 605.12 444.48 L 607.2 444.48 L 606.88 445.28 L 605.92 446.08 L 605.12 446.56 L 605.12 444.48 Z M 602.56 446.08 L 601.6 445.28 L 601.28 444.48 L 603.36 444.48 L 603.36 446.56 L 602.56 446.08 Z M 595.52 446.56 L 595.52 444.48 L 597.76 444.48 L 597.76 446.08 L 597.12 446.56 L 595.52 446.56 Z M 592.16 446.56 L 591.68 446.08 L 591.68 444.48 L 593.76 444.48 L 593.76 446.56 L 592.16 446.56 Z " fill="#0696d7" fill-rule="evenodd"/>
<path transform="matrix(.75,0,0,.75,0,0)" stroke-width=".16" stroke-linecap="round" stroke-linejoin="round" fill="none" stroke="#0696d7" d="M 642.88 449.12 L 643.2 448.96 L 643.36 448.64 L 643.36 448.32 L 643.36 356.48 L 643.36 356.16 L 643.2 355.84 L 642.88 355.68 L 642.56 355.52 L 513.28 355.52 L 512.96 355.68 L 512.64 355.84 L 512.48 356.16 L 512.48 356.48 L 512.48 408.96 L 512.48 409.28 L 512.64 409.6 L 512.96 409.76 L 513.28 409.76 L 513.6 409.76 L 513.92 409.44 L 514.08 409.28 L 514.72 407.84 L 515.84 406.72 L 517.28 406.08 L 518.88 406.08 L 520.32 406.72 L 521.44 407.84 L 522.08 409.28 L 522.08 410.88 L 521.44 412.32 L 520.32 413.44 L 518.88 414.08 L 517.28 414.08 L 515.84 413.44 L 514.72 412.32 L 514.08 410.88 L 513.92 410.56 L 513.6 410.4 L 513.28 410.24 L 512.96 410.4 L 512.64 410.56 L 512.48 410.88 L 512.48 411.2 L 512.48 428 L 512.48 428.32 L 512.64 428.64 L 512.96 428.8 L 513.28 428.96 L 513.6 428.8 L 513.92 428.64 L 514.08 428.32 L 514.72 426.88 L 515.84 425.76 L 517.28 425.12 L 518.4 425.12 L 518.72 425.12 L 519.04 424.96 L 519.52 424.48 L 519.68 424.16 L 519.68 423.84 L 519.68 423.52 L 519.52 423.2 L 519.2 423.04 L 518.88 423.04 L 518.88 420.48 L 521.44 420.48 L 521.12 420.96 L 521.12 421.28 L 521.12 421.76 L 521.44 421.92 L 521.6 422.08 L 522.08 422.24 L 522.24 422.08 L 522.4 422.08 L 533.6 422.08 L 533.92 422.08 L 534.24 421.92 L 534.4 421.6 L 534.56 421.28 L 534.56 407.52 L 534.4 407.2 L 534.24 406.88 L 533.92 406.72 L 533.6 406.56 L 533.28 406.72 L 532.96 406.88 L 531.36 406.88 L 529.92 406.24 L 528.8 405.12 L 528.16 403.68 L 528.16 402.08 L 528.8 400.64 L 529.92 399.52 L 531.36 398.88 L 532.96 398.88 L 533.28 399.04 L 533.6 399.04 L 534.08 399.04 L 534.24 398.88 L 534.4 398.56 L 534.56 398.24 L 534.56 384.8 L 534.4 384.48 L 534.24 384.32 L 533.92 384 L 533.6 384 L 530.72 384 L 530.4 384 L 530.08 384.32 L 529.76 384.48 L 528.32 385.12 L 526.88 385.12 L 525.44 384.48 L 525.12 384.32 L 524.96 384 L 524.64 384 L 521.76 384 L 521.28 384 L 521.12 384.32 L 520.64 384.64 L 519.2 385.28 L 518.88 385.44 L 518.72 385.76 L 518.56 386.08 L 518.72 386.4 L 518.88 386.72 L 519.2 386.88 L 520.64 387.52 L 521.76 388.64 L 522.24 389.92 L 522.56 390.24 L 522.72 390.4 L 523.2 390.56 L 523.52 390.4 L 523.68 390.24 L 523.84 389.92 L 524.48 388.8 L 525.44 387.68 L 526.88 387.04 L 528.32 387.04 L 529.76 387.68 L 530.88 388.8 L 531.36 390.08 L 531.36 391.68 L 530.88 393.12 L 529.76 394.08 L 528.32 394.72 L 526.88 394.72 L 525.44 394.08 L 524.48 393.12 L 523.84 391.84 L 523.68 391.52 L 523.36 391.36 L 523.04 391.2 L 522.72 391.36 L 522.4 391.52 L 522.24 391.84 L 521.76 393.12 L 520.64 394.24 L 519.2 394.88 L 517.6 394.88 L 516.16 394.24 L 515.04 393.12 L 514.4 391.68 L 514.4 390.08 L 515.04 388.64 L 516.16 387.52 L 517.6 386.88 L 517.76 386.72 L 518.08 386.4 L 518.08 386.08 L 518.08 385.76 L 517.76 385.44 L 517.6 385.28 L 516.16 384.64 L 515.04 383.52 L 514.4 382.08 L 514.4 380.48 L 515.04 379.04 L 516.16 377.92 L 517.6 377.28 L 519.2 377.28 L 520.64 377.92 L 521.12 378.4 L 521.44 378.56 L 521.76 378.72 L 524.64 378.72 L 524.96 378.56 L 525.12 378.4 L 525.44 378.08 L 526.88 377.6 L 528.32 377.6 L 529.76 378.08 L 530.08 378.4 L 530.4 378.56 L 530.72 378.72 L 537.76 378.72 L 538.08 378.72 L 538.4 378.88 L 538.72 378.72 L 539.04 378.56 L 539.2 378.24 L 539.36 377.92 L 539.2 377.6 L 539.04 377.44 L 527.84 366.24 L 527.52 366.08 L 527.2 365.92 L 526.88 365.92 L 525.44 365.44 L 525.12 365.12 L 524.96 364.96 L 524.64 364.8 L 521.76 364.8 L 521.28 364.96 L 521.12 365.12 L 520.64 365.6 L 519.2 366.24 L 517.6 366.24 L 516.16 365.6 L 515.04 364.48 L 514.4 363.04 L 514.4 361.44 L 515.04 359.84 L 516.16 358.72 L 517.6 358.24 L 519.2 358.24 L 520.64 358.72 L 521.12 359.2 L 521.44 359.36 L 521.76 359.52 L 524.64 359.52 L 524.96 359.36 L 525.12 359.2 L 525.44 358.88 L 526.88 358.4 L 528.32 358.4 L 529.76 358.88 L 530.88 360 L 531.36 361.44 L 531.36 361.76 L 531.52 362.08 L 531.68 362.4 L 549.12 379.84 L 549.44 380.8 L 549.44 387.36 L 549.6 387.68 L 549.76 388 L 550.08 388.16 L 550.4 388.16 L 550.88 388.16 L 551.36 388.48 L 551.84 388.96 L 552.16 389.44 L 552.16 405.92 L 552.16 406.24 L 552.32 406.4 L 553.28 407.84 L 553.44 408 L 553.92 408.48 L 554.4 409.44 L 554.4 410.56 L 553.92 411.68 L 553.12 412.32 L 552.64 412.64 L 552.32 412.8 L 552.16 413.12 L 552.16 413.44 L 552.16 417.28 L 551.84 417.76 L 551.36 418.24 L 550.88 418.4 L 542.72 418.4 L 542.08 418.24 L 541.76 417.76 L 541.6 417.44 L 541.28 417.12 L 541.12 416.96 L 540.8 416.8 L 540.32 416.96 L 540.16 417.12 L 540 417.44 L 539.84 417.76 L 539.84 424.96 L 539.52 425.92 L 538.72 426.72 L 537.76 427.04 L 536.64 427.04 L 535.84 426.72 L 535.52 426.72 L 532 426.72 L 531.68 426.72 L 531.36 427.04 L 531.2 427.2 L 531.2 427.52 L 531.2 427.84 L 531.36 428.48 L 531.36 429.92 L 530.88 431.36 L 530.56 431.68 L 530.4 431.84 L 530.24 432.16 L 530.24 444 L 529.92 445.12 L 527.2 447.68 L 527.04 448 L 527.04 448.32 L 527.04 448.64 L 527.2 448.96 L 527.52 449.12 L 527.84 449.12 L 642.56 449.12 L 642.88 449.12 Z M 515.04 370.88 L 515.52 369.76 L 516.48 368.8 L 517.44 368.48 L 517.44 370.88 L 515.04 370.88 Z M 519.2 370.88 L 519.2 368.48 L 520.32 368.8 L 521.28 369.76 L 521.76 370.88 L 519.2 370.88 Z M 628.96 418.4 L 628.32 418.24 L 627.84 417.76 L 627.68 417.28 L 627.68 389.44 L 627.84 388.96 L 628.32 388.48 L 628.96 388.16 L 629.44 388.16 L 629.76 388.16 L 630.08 388 L 630.24 387.68 L 630.24 387.36 L 630.24 382.72 L 630.24 382.4 L 630.08 382.24 L 622.56 374.72 L 622.24 374.56 L 621.92 374.4 L 614.72 374.4 L 614.4 374.56 L 613.28 374.56 L 612.32 374.08 L 611.52 373.28 L 611.04 372.32 L 611.04 371.2 L 611.52 370.24 L 612.32 369.44 L 613.28 368.96 L 614.4 368.96 L 614.72 369.12 L 623.84 369.12 L 624.96 369.44 L 635.2 379.84 L 635.68 380.8 L 635.68 387.36 L 635.68 387.68 L 635.84 388 L 636.16 388.16 L 636.48 388.16 L 636.96 388.16 L 637.6 388.48 L 638.08 388.96 L 638.24 389.44 L 638.24 417.28 L 638.08 417.76 L 637.6 418.24 L 636.96 418.4 L 628.96 418.4 Z M 590.72 402.4 L 590.72 370.56 L 593.12 370.56 L 599.52 371.84 L 605.44 374.24 L 610.72 377.92 L 615.36 382.4 L 618.88 387.84 L 621.44 393.76 L 622.72 400.16 L 622.72 402.4 L 590.72 402.4 Z M 557.12 402.4 L 557.12 400.16 L 558.24 393.76 L 560.8 387.84 L 564.32 382.4 L 568.96 377.92 L 574.4 374.24 L 580.32 371.84 L 586.56 370.56 L 588.96 370.56 L 588.96 402.4 L 557.12 402.4 Z M 519.2 372.64 L 521.76 372.64 L 521.28 373.76 L 520.32 374.72 L 519.2 375.04 L 519.2 372.64 Z M 516.48 374.72 L 515.52 373.76 L 515.04 372.64 L 517.44 372.64 L 517.44 375.04 L 516.48 374.72 Z M 590.72 436.16 L 590.72 404.16 L 622.72 404.16 L 622.72 406.56 L 621.44 412.96 L 618.88 418.88 L 615.36 424.32 L 610.72 428.8 L 605.44 432.48 L 599.52 434.88 L 593.12 436.16 L 590.72 436.16 Z M 586.56 436.16 L 580.32 434.88 L 574.4 432.48 L 568.96 428.8 L 564.32 424.32 L 560.8 418.88 L 558.24 412.96 L 557.12 406.56 L 557.12 404.16 L 588.96 404.16 L 588.96 436.16 L 586.56 436.16 Z M 514.72 418.72 L 515.2 417.6 L 516.16 416.64 L 517.12 416.32 L 517.12 418.72 L 514.72 418.72 Z M 518.88 418.72 L 518.88 416.32 L 520 416.64 L 520.96 417.6 L 521.44 418.72 L 518.88 418.72 Z M 516.16 422.56 L 515.2 421.6 L 514.72 420.48 L 517.12 420.48 L 517.12 423.04 L 516.16 422.56 Z M 632.32 447.2 L 630.88 446.56 L 629.92 445.6 L 629.28 444.32 L 629.28 442.88 L 629.92 441.44 L 630.88 440.48 L 632.32 440 L 633.76 440 L 635.04 440.48 L 636 441.44 L 636.64 442.88 L 636.64 444.32 L 636 445.6 L 635.04 446.56 L 633.76 447.2 L 632.32 447.2 Z M 622.72 447.2 L 621.28 446.56 L 620.32 445.6 L 619.84 444.32 L 619.84 442.88 L 620.32 441.44 L 621.28 440.48 L 622.72 440 L 624.16 440 L 625.44 440.48 L 626.4 441.44 L 627.04 442.88 L 627.04 444.32 L 626.4 445.6 L 625.44 446.56 L 624.16 447.2 L 622.72 447.2 Z M 613.12 447.2 L 611.68 446.56 L 610.72 445.6 L 610.24 444.32 L 610.24 442.88 L 610.72 441.44 L 611.68 440.48 L 613.12 440 L 614.56 440 L 615.84 440.48 L 616.8 441.44 L 617.44 442.88 L 617.44 444.32 L 616.8 445.6 L 615.84 446.56 L 614.56 447.2 L 613.12 447.2 Z M 584.32 447.2 L 583.04 446.56 L 582.08 445.6 L 581.44 444.32 L 581.44 442.88 L 582.08 441.44 L 583.04 440.48 L 584.32 440 L 585.76 440 L 587.2 440.48 L 588.16 441.44 L 588.64 442.88 L 588.64 444.32 L 588.16 445.6 L 587.2 446.56 L 585.76 447.2 L 584.32 447.2 Z M 574.72 447.2 L 573.44 446.56 L 572.48 445.6 L 571.84 444.32 L 571.84 442.88 L 572.48 441.44 L 573.44 440.48 L 574.72 440 L 576.16 440 L 577.6 440.48 L 578.56 441.44 L 579.2 442.88 L 579.2 444.32 L 578.56 445.6 L 577.6 446.56 L 576.16 447.2 L 574.72 447.2 Z M 591.68 442.72 L 591.68 441.12 L 592.16 440.48 L 593.76 440.48 L 593.76 442.72 L 591.68 442.72 Z M 595.52 442.72 L 595.52 440.48 L 597.12 440.48 L 597.76 441.12 L 597.76 442.72 L 595.52 442.72 Z M 601.28 442.72 L 601.6 441.76 L 602.56 440.96 L 603.36 440.64 L 603.36 442.72 L 601.28 442.72 Z M 605.12 442.72 L 605.12 440.64 L 605.92 440.96 L 606.88 441.76 L 607.2 442.72 L 605.12 442.72 Z M 605.12 444.48 L 607.2 444.48 L 606.88 445.28 L 605.92 446.08 L 605.12 446.56 L 605.12 444.48 Z M 602.56 446.08 L 601.6 445.28 L 601.28 444.48 L 603.36 444.48 L 603.36 446.56 L 602.56 446.08 Z M 595.52 446.56 L 595.52 444.48 L 597.76 444.48 L 597.76 446.08 L 597.12 446.56 L 595.52 446.56 Z M 592.16 446.56 L 591.68 446.08 L 591.68 444.48 L 593.76 444.48 L 593.76 446.56 L 592.16 446.56 Z "/>
<path transform="matrix(.75,0,0,.75,0,0)" stroke-width="2.4" stroke-linecap="round" stroke-linejoin="round" fill="none" stroke="#0696d7" d="M 604.16 443.52 L 604.16 424.48 "/>
<path transform="matrix(.75,0,0,.75,0,0)" stroke-width="2.4" stroke-linecap="round" stroke-linejoin="round" fill="none" stroke="#0696d7" d="M 632.96 403.36 L 632.96 381.28 "/>
<path transform="matrix(.75,0,0,.75,0,0)" stroke-width="2.4" stroke-linecap="round" stroke-linejoin="round" fill="none" stroke="#0696d7" d="M 632.96 381.28 L 623.36 371.68 "/>
<path transform="matrix(.75,0,0,.75,0,0)" stroke-width="2.4" stroke-linecap="round" stroke-linejoin="round" fill="none" stroke="#0696d7" d="M 623.36 371.68 L 613.76 371.68 "/>
<path transform="matrix(.75,0,0,.75,0,0)" stroke-width="2.4" stroke-linecap="round" stroke-linejoin="round" fill="none" stroke="#0696d7" d="M 546.72 403.36 L 546.72 381.28 "/>
<path transform="matrix(.75,0,0,.75,0,0)" stroke-width="2.4" stroke-linecap="round" stroke-linejoin="round" fill="none" stroke="#0696d7" d="M 546.72 381.28 L 527.68 362.24 "/>
<path transform="matrix(.75,0,0,.75,0,0)" stroke-width="2.4" stroke-linecap="round" stroke-linejoin="round" fill="none" stroke="#0696d7" d="M 527.68 362.24 L 518.4 362.24 "/>
<path transform="matrix(.75,0,0,.75,0,0)" stroke-width="2.4" stroke-linecap="round" stroke-linejoin="round" fill="none" stroke="#0696d7" d="M 551.52 410.08 L 546.72 403.36 "/>
<path transform="matrix(.75,0,0,.75,0,0)" stroke-width="2.4" stroke-linecap="round" stroke-linejoin="round" fill="none" stroke="#0696d7" d="M 537.28 424.48 L 537.28 381.28 "/>
<path transform="matrix(.75,0,0,.75,0,0)" stroke-width="2.4" stroke-linecap="round" stroke-linejoin="round" fill="none" stroke="#0696d7" d="M 537.28 381.28 L 527.68 381.28 "/>
<path transform="matrix(.75,0,0,.75,0,0)" stroke-width="2.4" stroke-linecap="round" stroke-linejoin="round" fill="none" stroke="#0696d7" d="M 527.68 381.28 L 518.4 381.28 "/>
<path transform="matrix(.75,0,0,.75,0,0)" stroke-width="1.6" stroke-linecap="round" stroke-linejoin="round" fill="none" stroke="#0696d7" d="M 518.08 429.12 L 522.88 424.48 "/>
<path transform="matrix(.75,0,0,.75,0,0)" stroke-width="1.6" stroke-linecap="round" stroke-linejoin="round" fill="none" stroke="#0696d7" d="M 522.88 424.48 L 537.28 424.48 "/>
<path transform="matrix(.75,0,0,.75,0,0)" stroke-width="2.4" stroke-linecap="round" stroke-linejoin="round" fill="none" stroke="#0696d7" d="M 518.08 448.32 L 522.88 448.32 "/>
<path transform="matrix(.75,0,0,.75,0,0)" stroke-width="2.4" stroke-linecap="round" stroke-linejoin="round" fill="none" stroke="#0696d7" d="M 522.88 448.32 L 527.68 443.52 "/>
<path transform="matrix(.75,0,0,.75,0,0)" stroke-width="2.4" stroke-linecap="round" stroke-linejoin="round" fill="none" stroke="#0696d7" d="M 527.68 443.52 L 527.68 429.12 "/>
<path transform="matrix(.75,0,0,.75,390.59999,271.68)" d="M 0 0 C 0 1.28 -1.12 2.4 -2.4 2.4 C -3.68 2.4 -4.8 1.28 -4.8 0 C -4.8 -1.28 -3.68 -2.4 -2.4 -2.4 C -1.12 -2.4 0 -1.28 0 0 Z " fill="#62d987" fill-rule="evenodd"/>
<path transform="matrix(.75,0,0,.75,390.59999,271.68)" stroke-width=".16" stroke-linecap="round" stroke-linejoin="round" fill="none" stroke="#62d987" d="M 0 0 C 0 1.28 -1.12 2.4 -2.4 2.4 C -3.68 2.4 -4.8 1.28 -4.8 0 C -4.8 -1.28 -3.68 -2.4 -2.4 -2.4 C -1.12 -2.4 0 -1.28 0 0 Z "/>
<path transform="matrix(.75,0,0,.75,389.88,271.68)" d="M 0 0 C 0 .8 -.64 1.44 -1.44 1.44 C -2.24 1.44 -2.88 .8 -2.88 0 C -2.88 -.8 -2.24 -1.44 -1.44 -1.44 C -.64 -1.44 0 -.8 0 0 Z " fill="#ffffff" fill-rule="evenodd"/>
<path transform="matrix(.75,0,0,.75,389.88,271.68)" stroke-width=".16" stroke-linecap="square" stroke-linejoin="bevel" fill="none" stroke="#000000" d="M 0 0 C 0 .8 -.64 1.44 -1.44 1.44 C -2.24 1.44 -2.88 .8 -2.88 0 C -2.88 -.8 -2.24 -1.44 -1.44 -1.44 C -.64 -1.44 0 -.8 0 0 Z "/>
<path transform="matrix(.75,0,0,.75,390.59999,278.76)" d="M 0 0 C 0 1.28 -1.12 2.4 -2.4 2.4 C -3.68 2.4 -4.8 1.28 -4.8 0 C -4.8 -1.28 -3.68 -2.4 -2.4 -2.4 C -1.12 -2.4 0 -1.28 0 0 Z " fill="#62d987" fill-rule="evenodd"/>
<path transform="matrix(.75,0,0,.75,390.59999,278.76)" stroke-width=".16" stroke-linecap="round" stroke-linejoin="round" fill="none" stroke="#62d987" d="M 0 0 C 0 1.28 -1.12 2.4 -2.4 2.4 C -3.68 2.4 -4.8 1.28 -4.8 0 C -4.8 -1.28 -3.68 -2.4 -2.4 -2.4 C -1.12 -2.4 0 -1.28 0 0 Z "/>
<path transform="matrix(.75,0,0,.75,389.88,278.76)" d="M 0 0 C 0 .8 -.64 1.44 -1.44 1.44 C -2.24 1.44 -2.88 .8 -2.88 0 C -2.88 -.8 -2.24 -1.44 -1.44 -1.44 C -.64 -1.44 0 -.8 0 0 Z " fill="#ffffff" fill-rule="evenodd"/>
<path transform="matrix(.75,0,0,.75,389.88,278.76)" stroke-width=".16" stroke-linecap="square" stroke-linejoin="bevel" fill="none" stroke="#000000" d="M 0 0 C 0 .8 -.64 1.44 -1.44 1.44 C -2.24 1.44 -2.88 .8 -2.88 0 C -2.88 -.8 -2.24 -1.44 -1.44 -1.44 C -.64 -1.44 0 -.8 0 0 Z "/>
<path transform="matrix(.75,0,0,.75,390.59999,285.96)" d="M 0 0 C 0 1.28 -1.12 2.4 -2.4 2.4 C -3.68 2.4 -4.8 1.28 -4.8 0 C -4.8 -1.28 -3.68 -2.4 -2.4 -2.4 C -1.12 -2.4 0 -1.28 0 0 Z " fill="#62d987" fill-rule="evenodd"/>
<path transform="matrix(.75,0,0,.75,390.59999,285.96)" stroke-width=".16" stroke-linecap="round" stroke-linejoin="round" fill="none" stroke="#62d987" d="M 0 0 C 0 1.28 -1.12 2.4 -2.4 2.4 C -3.68 2.4 -4.8 1.28 -4.8 0 C -4.8 -1.28 -3.68 -2.4 -2.4 -2.4 C -1.12 -2.4 0 -1.28 0 0 Z "/>
<path transform="matrix(.75,0,0,.75,389.88,285.96)" d="M 0 0 C 0 .8 -.64 1.44 -1.44 1.44 C -2.24 1.44 -2.88 .8 -2.88 0 C -2.88 -.8 -2.24 -1.44 -1.44 -1.44 C -.64 -1.44 0 -.8 0 0 Z " fill="#ffffff" fill-rule="evenodd"/>
<path transform="matrix(.75,0,0,.75,389.88,285.96)" stroke-width=".16" stroke-linecap="square" stroke-linejoin="bevel" fill="none" stroke="#000000" d="M 0 0 C 0 .8 -.64 1.44 -1.44 1.44 C -2.24 1.44 -2.88 .8 -2.88 0 C -2.88 -.8 -2.24 -1.44 -1.44 -1.44 C -.64 -1.44 0 -.8 0 0 Z "/>
<path transform="matrix(.75,0,0,.75,390.59999,293.16)" d="M 0 0 C 0 1.28 -1.12 2.4 -2.4 2.4 C -3.68 2.4 -4.8 1.28 -4.8 0 C -4.8 -1.28 -3.68 -2.4 -2.4 -2.4 C -1.12 -2.4 0 -1.28 0 0 Z " fill="#62d987" fill-rule="evenodd"/>
<path transform="matrix(.75,0,0,.75,390.59999,293.16)" stroke-width=".16" stroke-linecap="round" stroke-linejoin="round" fill="none" stroke="#62d987" d="M 0 0 C 0 1.28 -1.12 2.4 -2.4 2.4 C -3.68 2.4 -4.8 1.28 -4.8 0 C -4.8 -1.28 -3.68 -2.4 -2.4 -2.4 C -1.12 -2.4 0 -1.28 0 0 Z "/>
<path transform="matrix(.75,0,0,.75,389.88,293.16)" d="M 0 0 C 0 .8 -.64 1.44 -1.44 1.44 C -2.24 1.44 -2.88 .8 -2.88 0 C -2.88 -.8 -2.24 -1.44 -1.44 -1.44 C -.64 -1.44 0 -.8 0 0 Z " fill="#ffffff" fill-rule="evenodd"/>
<path transform="matrix(.75,0,0,.75,389.88,293.16)" stroke-width=".16" stroke-linecap="square" stroke-linejoin="bevel" fill="none" stroke="#000000" d="M 0 0 C 0 .8 -.64 1.44 -1.44 1.44 C -2.24 1.44 -2.88 .8 -2.88 0 C -2.88 -.8 -2.24 -1.44 -1.44 -1.44 C -.64 -1.44 0 -.8 0 0 Z "/>
<path transform="matrix(.75,0,0,.75,390.36,307.56)" d="M 0 0 C 0 1.28 -1.12 2.4 -2.4 2.4 C -3.68 2.4 -4.8 1.28 -4.8 0 C -4.8 -1.28 -3.68 -2.4 -2.4 -2.4 C -1.12 -2.4 0 -1.28 0 0 Z " fill="#62d987" fill-rule="evenodd"/>
<path transform="matrix(.75,0,0,.75,390.36,307.56)" stroke-width=".16" stroke-linecap="round" stroke-linejoin="round" fill="none" stroke="#62d987" d="M 0 0 C 0 1.28 -1.12 2.4 -2.4 2.4 C -3.68 2.4 -4.8 1.28 -4.8 0 C -4.8 -1.28 -3.68 -2.4 -2.4 -2.4 C -1.12 -2.4 0 -1.28 0 0 Z "/>
<path transform="matrix(.75,0,0,.75,389.64,307.56)" d="M 0 0 C 0 .8 -.64 1.44 -1.44 1.44 C -2.24 1.44 -2.88 .8 -2.88 0 C -2.88 -.8 -2.24 -1.44 -1.44 -1.44 C -.64 -1.44 0 -.8 0 0 Z " fill="#ffffff" fill-rule="evenodd"/>
<path transform="matrix(.75,0,0,.75,389.64,307.56)" stroke-width=".16" stroke-linecap="square" stroke-linejoin="bevel" fill="none" stroke="#000000" d="M 0 0 C 0 .8 -.64 1.44 -1.44 1.44 C -2.24 1.44 -2.88 .8 -2.88 0 C -2.88 -.8 -2.24 -1.44 -1.44 -1.44 C -.64 -1.44 0 -.8 0 0 Z "/>
<path transform="matrix(.75,0,0,.75,390.36,314.76)" d="M 0 0 C 0 1.28 -1.12 2.4 -2.4 2.4 C -3.68 2.4 -4.8 1.28 -4.8 0 C -4.8 -1.28 -3.68 -2.4 -2.4 -2.4 C -1.12 -2.4 0 -1.28 0 0 Z " fill="#62d987" fill-rule="evenodd"/>
<path transform="matrix(.75,0,0,.75,390.36,314.76)" stroke-width=".16" stroke-linecap="round" stroke-linejoin="round" fill="none" stroke="#62d987" d="M 0 0 C 0 1.28 -1.12 2.4 -2.4 2.4 C -3.68 2.4 -4.8 1.28 -4.8 0 C -4.8 -1.28 -3.68 -2.4 -2.4 -2.4 C -1.12 -2.4 0 -1.28 0 0 Z "/>
<path transform="matrix(.75,0,0,.75,389.64,314.76)" d="M 0 0 C 0 .8 -.64 1.44 -1.44 1.44 C -2.24 1.44 -2.88 .8 -2.88 0 C -2.88 -.8 -2.24 -1.44 -1.44 -1.44 C -.64 -1.44 0 -.8 0 0 Z " fill="#ffffff" fill-rule="evenodd"/>
<path transform="matrix(.75,0,0,.75,389.64,314.76)" stroke-width=".16" stroke-linecap="square" stroke-linejoin="bevel" fill="none" stroke="#000000" d="M 0 0 C 0 .8 -.64 1.44 -1.44 1.44 C -2.24 1.44 -2.88 .8 -2.88 0 C -2.88 -.8 -2.24 -1.44 -1.44 -1.44 C -.64 -1.44 0 -.8 0 0 Z "/>
<path transform="matrix(.75,0,0,.75,390.36,321.84)" d="M 0 0 C 0 1.28 -1.12 2.4 -2.4 2.4 C -3.68 2.4 -4.8 1.28 -4.8 0 C -4.8 -1.28 -3.68 -2.4 -2.4 -2.4 C -1.12 -2.4 0 -1.28 0 0 Z " fill="#62d987" fill-rule="evenodd"/>
<path transform="matrix(.75,0,0,.75,390.36,321.84)" stroke-width=".16" stroke-linecap="round" stroke-linejoin="round" fill="none" stroke="#62d987" d="M 0 0 C 0 1.28 -1.12 2.4 -2.4 2.4 C -3.68 2.4 -4.8 1.28 -4.8 0 C -4.8 -1.28 -3.68 -2.4 -2.4 -2.4 C -1.12 -2.4 0 -1.28 0 0 Z "/>
<path transform="matrix(.75,0,0,.75,389.64,321.84)" d="M 0 0 C 0 .8 -.64 1.44 -1.44 1.44 C -2.24 1.44 -2.88 .8 -2.88 0 C -2.88 -.8 -2.24 -1.44 -1.44 -1.44 C -.64 -1.44 0 -.8 0 0 Z " fill="#ffffff" fill-rule="evenodd"/>
<path transform="matrix(.75,0,0,.75,389.64,321.84)" stroke-width=".16" stroke-linecap="square" stroke-linejoin="bevel" fill="none" stroke="#000000" d="M 0 0 C 0 .8 -.64 1.44 -1.44 1.44 C -2.24 1.44 -2.88 .8 -2.88 0 C -2.88 -.8 -2.24 -1.44 -1.44 -1.44 C -.64 -1.44 0 -.8 0 0 Z "/>
<path transform="matrix(.75,0,0,.75,390.36,329.04)" d="M 0 0 C 0 1.28 -1.12 2.4 -2.4 2.4 C -3.68 2.4 -4.8 1.28 -4.8 0 C -4.8 -1.28 -3.68 -2.4 -2.4 -2.4 C -1.12 -2.4 0 -1.28 0 0 Z " fill="#62d987" fill-rule="evenodd"/>
<path transform="matrix(.75,0,0,.75,390.36,329.04)" stroke-width=".16" stroke-linecap="round" stroke-linejoin="round" fill="none" stroke="#62d987" d="M 0 0 C 0 1.28 -1.12 2.4 -2.4 2.4 C -3.68 2.4 -4.8 1.28 -4.8 0 C -4.8 -1.28 -3.68 -2.4 -2.4 -2.4 C -1.12 -2.4 0 -1.28 0 0 Z "/>
<path transform="matrix(.75,0,0,.75,389.64,329.04)" d="M 0 0 C 0 .8 -.64 1.44 -1.44 1.44 C -2.24 1.44 -2.88 .8 -2.88 0 C -2.88 -.8 -2.24 -1.44 -1.44 -1.44 C -.64 -1.44 0 -.8 0 0 Z " fill="#ffffff" fill-rule="evenodd"/>
<path transform="matrix(.75,0,0,.75,389.64,329.04)" stroke-width=".16" stroke-linecap="square" stroke-linejoin="bevel" fill="none" stroke="#000000" d="M 0 0 C 0 .8 -.64 1.44 -1.44 1.44 C -2.24 1.44 -2.88 .8 -2.88 0 C -2.88 -.8 -2.24 -1.44 -1.44 -1.44 C -.64 -1.44 0 -.8 0 0 Z "/>
<path transform="matrix(.75,0,0,.75,390.36,336.24)" d="M 0 0 C 0 1.28 -1.12 2.4 -2.4 2.4 C -3.68 2.4 -4.8 1.28 -4.8 0 C -4.8 -1.28 -3.68 -2.4 -2.4 -2.4 C -1.12 -2.4 0 -1.28 0 0 Z " fill="#62d987" fill-rule="evenodd"/>
<path transform="matrix(.75,0,0,.75,390.36,336.24)" stroke-width=".16" stroke-linecap="round" stroke-linejoin="round" fill="none" stroke="#62d987" d="M 0 0 C 0 1.28 -1.12 2.4 -2.4 2.4 C -3.68 2.4 -4.8 1.28 -4.8 0 C -4.8 -1.28 -3.68 -2.4 -2.4 -2.4 C -1.12 -2.4 0 -1.28 0 0 Z "/>
<path transform="matrix(.75,0,0,.75,389.64,336.24)" d="M 0 0 C 0 .8 -.64 1.44 -1.44 1.44 C -2.24 1.44 -2.88 .8 -2.88 0 C -2.88 -.8 -2.24 -1.44 -1.44 -1.44 C -.64 -1.44 0 -.8 0 0 Z " fill="#ffffff" fill-rule="evenodd"/>
<path transform="matrix(.75,0,0,.75,389.64,336.24)" stroke-width=".16" stroke-linecap="square" stroke-linejoin="bevel" fill="none" stroke="#000000" d="M 0 0 C 0 .8 -.64 1.44 -1.44 1.44 C -2.24 1.44 -2.88 .8 -2.88 0 C -2.88 -.8 -2.24 -1.44 -1.44 -1.44 C -.64 -1.44 0 -.8 0 0 Z "/>
<path transform="matrix(.75,0,0,.75,433.19999,332.63999)" d="M 0 0 C 0 1.12 -.96 2.08 -2.08 2.08 C -3.2 2.08 -4.16 1.12 -4.16 0 C -4.16 -1.12 -3.2 -2.08 -2.08 -2.08 C -.96 -2.08 0 -1.12 0 0 Z " fill="#62d987" fill-rule="evenodd"/>
<path transform="matrix(.75,0,0,.75,433.19999,332.63999)" stroke-width=".16" stroke-linecap="round" stroke-linejoin="round" fill="none" stroke="#62d987" d="M 0 0 C 0 1.12 -.96 2.08 -2.08 2.08 C -3.2 2.08 -4.16 1.12 -4.16 0 C -4.16 -1.12 -3.2 -2.08 -2.08 -2.08 C -.96 -2.08 0 -1.12 0 0 Z "/>
<path transform="matrix(.75,0,0,.75,432.48,332.63999)" d="M 0 0 C 0 .64 -.48 1.12 -1.12 1.12 C -1.76 1.12 -2.24 .64 -2.24 0 C -2.24 -.64 -1.76 -1.12 -1.12 -1.12 C -.48 -1.12 0 -.64 0 0 Z " fill="#ffffff" fill-rule="evenodd"/>
<path transform="matrix(.75,0,0,.75,432.48,332.63999)" stroke-width=".16" stroke-linecap="square" stroke-linejoin="bevel" fill="none" stroke="#000000" d="M 0 0 C 0 .64 -.48 1.12 -1.12 1.12 C -1.76 1.12 -2.24 .64 -2.24 0 C -2.24 -.64 -1.76 -1.12 -1.12 -1.12 C -.48 -1.12 0 -.64 0 0 Z "/>
<path transform="matrix(.75,0,0,.75,440.40003,332.63999)" d="M 0 0 C 0 1.12 -.96 2.08 -2.08 2.08 C -3.2 2.08 -4.16 1.12 -4.16 0 C -4.16 -1.12 -3.2 -2.08 -2.08 -2.08 C -.96 -2.08 0 -1.12 0 0 Z " fill="#62d987" fill-rule="evenodd"/>
<path transform="matrix(.75,0,0,.75,440.40003,332.63999)" stroke-width=".16" stroke-linecap="round" stroke-linejoin="round" fill="none" stroke="#62d987" d="M 0 0 C 0 1.12 -.96 2.08 -2.08 2.08 C -3.2 2.08 -4.16 1.12 -4.16 0 C -4.16 -1.12 -3.2 -2.08 -2.08 -2.08 C -.96 -2.08 0 -1.12 0 0 Z "/>
<path transform="matrix(.75,0,0,.75,439.68,332.63999)" d="M 0 0 C 0 .64 -.48 1.12 -1.12 1.12 C -1.76 1.12 -2.24 .64 -2.24 0 C -2.24 -.64 -1.76 -1.12 -1.12 -1.12 C -.48 -1.12 0 -.64 0 0 Z " fill="#ffffff" fill-rule="evenodd"/>
<path transform="matrix(.75,0,0,.75,439.68,332.63999)" stroke-width=".16" stroke-linecap="square" stroke-linejoin="bevel" fill="none" stroke="#000000" d="M 0 0 C 0 .64 -.48 1.12 -1.12 1.12 C -1.76 1.12 -2.24 .64 -2.24 0 C -2.24 -.64 -1.76 -1.12 -1.12 -1.12 C -.48 -1.12 0 -.64 0 0 Z "/>
<path transform="matrix(.75,0,0,.75,454.68,332.63999)" d="M 0 0 C 0 1.12 -.96 2.08 -2.08 2.08 C -3.2 2.08 -4.16 1.12 -4.16 0 C -4.16 -1.12 -3.2 -2.08 -2.08 -2.08 C -.96 -2.08 0 -1.12 0 0 Z " fill="#62d987" fill-rule="evenodd"/>
<path transform="matrix(.75,0,0,.75,454.68,332.63999)" stroke-width=".16" stroke-linecap="round" stroke-linejoin="round" fill="none" stroke="#62d987" d="M 0 0 C 0 1.12 -.96 2.08 -2.08 2.08 C -3.2 2.08 -4.16 1.12 -4.16 0 C -4.16 -1.12 -3.2 -2.08 -2.08 -2.08 C -.96 -2.08 0 -1.12 0 0 Z "/>
<path transform="matrix(.75,0,0,.75,453.96003,332.63999)" d="M 0 0 C 0 .64 -.48 1.12 -1.12 1.12 C -1.76 1.12 -2.24 .64 -2.24 0 C -2.24 -.64 -1.76 -1.12 -1.12 -1.12 C -.48 -1.12 0 -.64 0 0 Z " fill="#ffffff" fill-rule="evenodd"/>
<path transform="matrix(.75,0,0,.75,453.96003,332.63999)" stroke-width=".16" stroke-linecap="square" stroke-linejoin="bevel" fill="none" stroke="#000000" d="M 0 0 C 0 .64 -.48 1.12 -1.12 1.12 C -1.76 1.12 -2.24 .64 -2.24 0 C -2.24 -.64 -1.76 -1.12 -1.12 -1.12 C -.48 -1.12 0 -.64 0 0 Z "/>
<path transform="matrix(.75,0,0,.75,461.88,332.63999)" d="M 0 0 C 0 1.12 -.96 2.08 -2.08 2.08 C -3.2 2.08 -4.16 1.12 -4.16 0 C -4.16 -1.12 -3.2 -2.08 -2.08 -2.08 C -.96 -2.08 0 -1.12 0 0 Z " fill="#62d987" fill-rule="evenodd"/>
<path transform="matrix(.75,0,0,.75,461.88,332.63999)" stroke-width=".16" stroke-linecap="round" stroke-linejoin="round" fill="none" stroke="#62d987" d="M 0 0 C 0 1.12 -.96 2.08 -2.08 2.08 C -3.2 2.08 -4.16 1.12 -4.16 0 C -4.16 -1.12 -3.2 -2.08 -2.08 -2.08 C -.96 -2.08 0 -1.12 0 0 Z "/>
<path transform="matrix(.75,0,0,.75,461.16,332.63999)" d="M 0 0 C 0 .64 -.48 1.12 -1.12 1.12 C -1.76 1.12 -2.24 .64 -2.24 0 C -2.24 -.64 -1.76 -1.12 -1.12 -1.12 C -.48 -1.12 0 -.64 0 0 Z " fill="#ffffff" fill-rule="evenodd"/>
<path transform="matrix(.75,0,0,.75,461.16,332.63999)" stroke-width=".16" stroke-linecap="square" stroke-linejoin="bevel" fill="none" stroke="#000000" d="M 0 0 C 0 .64 -.48 1.12 -1.12 1.12 C -1.76 1.12 -2.24 .64 -2.24 0 C -2.24 -.64 -1.76 -1.12 -1.12 -1.12 C -.48 -1.12 0 -.64 0 0 Z "/>
<path transform="matrix(.75,0,0,.75,469.08003,332.63999)" d="M 0 0 C 0 1.12 -.96 2.08 -2.08 2.08 C -3.2 2.08 -4.16 1.12 -4.16 0 C -4.16 -1.12 -3.2 -2.08 -2.08 -2.08 C -.96 -2.08 0 -1.12 0 0 Z " fill="#62d987" fill-rule="evenodd"/>
<path transform="matrix(.75,0,0,.75,469.08003,332.63999)" stroke-width=".16" stroke-linecap="round" stroke-linejoin="round" fill="none" stroke="#62d987" d="M 0 0 C 0 1.12 -.96 2.08 -2.08 2.08 C -3.2 2.08 -4.16 1.12 -4.16 0 C -4.16 -1.12 -3.2 -2.08 -2.08 -2.08 C -.96 -2.08 0 -1.12 0 0 Z "/>
<path transform="matrix(.75,0,0,.75,468.36,332.63999)" d="M 0 0 C 0 .64 -.48 1.12 -1.12 1.12 C -1.76 1.12 -2.24 .64 -2.24 0 C -2.24 -.64 -1.76 -1.12 -1.12 -1.12 C -.48 -1.12 0 -.64 0 0 Z " fill="#ffffff" fill-rule="evenodd"/>
<path transform="matrix(.75,0,0,.75,468.36,332.63999)" stroke-width=".16" stroke-linecap="square" stroke-linejoin="bevel" fill="none" stroke="#000000" d="M 0 0 C 0 .64 -.48 1.12 -1.12 1.12 C -1.76 1.12 -2.24 .64 -2.24 0 C -2.24 -.64 -1.76 -1.12 -1.12 -1.12 C -.48 -1.12 0 -.64 0 0 Z "/>
<path transform="matrix(.75,0,0,.75,476.27998,332.63999)" d="M 0 0 C 0 1.12 -.96 2.08 -2.08 2.08 C -3.2 2.08 -4.16 1.12 -4.16 0 C -4.16 -1.12 -3.2 -2.08 -2.08 -2.08 C -.96 -2.08 0 -1.12 0 0 Z " fill="#62d987" fill-rule="evenodd"/>
<path transform="matrix(.75,0,0,.75,476.27998,332.63999)" stroke-width=".16" stroke-linecap="round" stroke-linejoin="round" fill="none" stroke="#62d987" d="M 0 0 C 0 1.12 -.96 2.08 -2.08 2.08 C -3.2 2.08 -4.16 1.12 -4.16 0 C -4.16 -1.12 -3.2 -2.08 -2.08 -2.08 C -.96 -2.08 0 -1.12 0 0 Z "/>
<path transform="matrix(.75,0,0,.75,475.56,332.63999)" d="M 0 0 C 0 .64 -.48 1.12 -1.12 1.12 C -1.76 1.12 -2.24 .64 -2.24 0 C -2.24 -.64 -1.76 -1.12 -1.12 -1.12 C -.48 -1.12 0 -.64 0 0 Z " fill="#ffffff" fill-rule="evenodd"/>
<path transform="matrix(.75,0,0,.75,475.56,332.63999)" stroke-width=".16" stroke-linecap="square" stroke-linejoin="bevel" fill="none" stroke="#000000" d="M 0 0 C 0 .64 -.48 1.12 -1.12 1.12 C -1.76 1.12 -2.24 .64 -2.24 0 C -2.24 -.64 -1.76 -1.12 -1.12 -1.12 C -.48 -1.12 0 -.64 0 0 Z "/>
<path transform="matrix(.75,0,0,.75,0,0)" d="M 592.64 441.44 L 596.8 441.44 L 596.8 445.6 L 592.64 445.6 L 592.64 441.44 Z " fill="#62d987" fill-rule="evenodd"/>
<path transform="matrix(.75,0,0,.75,0,0)" stroke-width=".16" stroke-linecap="round" stroke-linejoin="round" fill="none" stroke="#62d987" d="M 592.64 441.44 L 596.8 441.44 L 596.8 445.6 L 592.64 445.6 L 592.64 441.44 Z "/>
<path transform="matrix(.75,0,0,.75,446.88,332.63999)" d="M 0 0 C 0 .64 -.48 1.12 -1.12 1.12 C -1.76 1.12 -2.24 .64 -2.24 0 C -2.24 -.64 -1.76 -1.12 -1.12 -1.12 C -.48 -1.12 0 -.64 0 0 Z " fill="#ffffff" fill-rule="evenodd"/>
<path transform="matrix(.75,0,0,.75,446.88,332.63999)" stroke-width=".16" stroke-linecap="square" stroke-linejoin="bevel" fill="none" stroke="#000000" d="M 0 0 C 0 .64 -.48 1.12 -1.12 1.12 C -1.76 1.12 -2.24 .64 -2.24 0 C -2.24 -.64 -1.76 -1.12 -1.12 -1.12 C -.48 -1.12 0 -.64 0 0 Z "/>
<path transform="matrix(.75,0,0,.75,454.56,302.16)" d="M 0 0 C 0 1.28 -1.12 2.4 -2.4 2.4 C -3.68 2.4 -4.8 1.28 -4.8 0 C -4.8 -1.28 -3.68 -2.4 -2.4 -2.4 C -1.12 -2.4 0 -1.28 0 0 Z " fill="#62d987" fill-rule="evenodd"/>
<path transform="matrix(.75,0,0,.75,454.56,302.16)" stroke-width=".16" stroke-linecap="round" stroke-linejoin="round" fill="none" stroke="#62d987" d="M 0 0 C 0 1.28 -1.12 2.4 -2.4 2.4 C -3.68 2.4 -4.8 1.28 -4.8 0 C -4.8 -1.28 -3.68 -2.4 -2.4 -2.4 C -1.12 -2.4 0 -1.28 0 0 Z "/>
<path transform="matrix(.75,0,0,.75,453.84,302.16)" d="M 0 0 C 0 .8 -.64 1.44 -1.44 1.44 C -2.24 1.44 -2.88 .8 -2.88 0 C -2.88 -.8 -2.24 -1.44 -1.44 -1.44 C -.64 -1.44 0 -.8 0 0 Z " fill="#ffffff" fill-rule="evenodd"/>
<path transform="matrix(.75,0,0,.75,453.84,302.16)" stroke-width=".16" stroke-linecap="square" stroke-linejoin="bevel" fill="none" stroke="#000000" d="M 0 0 C 0 .8 -.64 1.44 -1.44 1.44 C -2.24 1.44 -2.88 .8 -2.88 0 C -2.88 -.8 -2.24 -1.44 -1.44 -1.44 C -.64 -1.44 0 -.8 0 0 Z "/>
<path transform="matrix(.75,0,0,.75,400.91999,302.16)" d="M 0 0 C 0 1.28 -1.12 2.4 -2.4 2.4 C -3.68 2.4 -4.8 1.28 -4.8 0 C -4.8 -1.28 -3.68 -2.4 -2.4 -2.4 C -1.12 -2.4 0 -1.28 0 0 Z " fill="#62d987" fill-rule="evenodd"/>
<path transform="matrix(.75,0,0,.75,400.91999,302.16)" stroke-width=".16" stroke-linecap="round" stroke-linejoin="round" fill="none" stroke="#62d987" d="M 0 0 C 0 1.28 -1.12 2.4 -2.4 2.4 C -3.68 2.4 -4.8 1.28 -4.8 0 C -4.8 -1.28 -3.68 -2.4 -2.4 -2.4 C -1.12 -2.4 0 -1.28 0 0 Z "/>
<path transform="matrix(.75,0,0,.75,400.19999,302.16)" d="M 0 0 C 0 .8 -.64 1.44 -1.44 1.44 C -2.24 1.44 -2.88 .8 -2.88 0 C -2.88 -.8 -2.24 -1.44 -1.44 -1.44 C -.64 -1.44 0 -.8 0 0 Z " fill="#ffffff" fill-rule="evenodd"/>
<path transform="matrix(.75,0,0,.75,400.19999,302.16)" stroke-width=".16" stroke-linecap="square" stroke-linejoin="bevel" fill="none" stroke="#000000" d="M 0 0 C 0 .8 -.64 1.44 -1.44 1.44 C -2.24 1.44 -2.88 .8 -2.88 0 C -2.88 -.8 -2.24 -1.44 -1.44 -1.44 C -.64 -1.44 0 -.8 0 0 Z "/>
<path transform="matrix(.75,0,0,.75,397.44,314.76)" d="M 0 0 C 0 1.28 -.96 2.24 -2.24 2.24 C -3.52 2.24 -4.48 1.28 -4.48 0 C -4.48 -1.28 -3.52 -2.24 -2.24 -2.24 C -.96 -2.24 0 -1.28 0 0 Z " fill="#62d987" fill-rule="evenodd"/>
<path transform="matrix(.75,0,0,.75,397.44,314.76)" stroke-width=".16" stroke-linecap="round" stroke-linejoin="round" fill="none" stroke="#62d987" d="M 0 0 C 0 1.28 -.96 2.24 -2.24 2.24 C -3.52 2.24 -4.48 1.28 -4.48 0 C -4.48 -1.28 -3.52 -2.24 -2.24 -2.24 C -.96 -2.24 0 -1.28 0 0 Z "/>
<path transform="matrix(.75,0,0,.75,396.84,314.76)" d="M 0 0 C 0 .8 -.64 1.44 -1.44 1.44 C -2.24 1.44 -2.88 .8 -2.88 0 C -2.88 -.8 -2.24 -1.44 -1.44 -1.44 C -.64 -1.44 0 -.8 0 0 Z " fill="#ffffff" fill-rule="evenodd"/>
<path transform="matrix(.75,0,0,.75,396.84,314.76)" stroke-width=".16" stroke-linecap="square" stroke-linejoin="bevel" fill="none" stroke="#000000" d="M 0 0 C 0 .8 -.64 1.44 -1.44 1.44 C -2.24 1.44 -2.88 .8 -2.88 0 C -2.88 -.8 -2.24 -1.44 -1.44 -1.44 C -.64 -1.44 0 -.8 0 0 Z "/>
<path transform="matrix(.75,0,0,.75,439.80003,303.96)" d="M 0 0 C 0 .64 -.64 1.28 -1.28 1.28 C -1.92 1.28 -2.56 .64 -2.56 0 C -2.56 -.64 -1.92 -1.28 -1.28 -1.28 C -.64 -1.28 0 -.64 0 0 Z " fill="#62d987" fill-rule="evenodd"/>
<path transform="matrix(.75,0,0,.75,439.80003,303.96)" stroke-width=".16" stroke-linecap="round" stroke-linejoin="round" fill="none" stroke="#62d987" d="M 0 0 C 0 .64 -.64 1.28 -1.28 1.28 C -1.92 1.28 -2.56 .64 -2.56 0 C -2.56 -.64 -1.92 -1.28 -1.28 -1.28 C -.64 -1.28 0 -.64 0 0 Z "/>
<path transform="matrix(.75,0,0,.75,439.32,303.96)" d="M 0 0 C 0 .32 -.32 .64 -.64 .64 C -.96 .64 -1.28 .32 -1.28 0 C -1.28 -.32 -.96 -.64 -.64 -.64 C -.32 -.64 0 -.32 0 0 Z " fill="#ffffff" fill-rule="evenodd"/>
<path transform="matrix(.75,0,0,.75,439.32,303.96)" stroke-width=".16" stroke-linecap="square" stroke-linejoin="bevel" fill="none" stroke="#000000" d="M 0 0 C 0 .32 -.32 .64 -.64 .64 C -.96 .64 -1.28 .32 -1.28 0 C -1.28 -.32 -.96 -.64 -.64 -.64 C -.32 -.64 0 -.32 0 0 Z "/>
<path transform="matrix(.75,0,0,.75,397.44,278.76)" d="M 0 0 C 0 1.28 -.96 2.24 -2.24 2.24 C -3.52 2.24 -4.48 1.28 -4.48 0 C -4.48 -1.28 -3.52 -2.24 -2.24 -2.24 C -.96 -2.24 0 -1.28 0 0 Z " fill="#62d987" fill-rule="evenodd"/>
<path transform="matrix(.75,0,0,.75,397.44,278.76)" stroke-width=".16" stroke-linecap="round" stroke-linejoin="round" fill="none" stroke="#62d987" d="M 0 0 C 0 1.28 -.96 2.24 -2.24 2.24 C -3.52 2.24 -4.48 1.28 -4.48 0 C -4.48 -1.28 -3.52 -2.24 -2.24 -2.24 C -.96 -2.24 0 -1.28 0 0 Z "/>
<path transform="matrix(.75,0,0,.75,396.84,278.76)" d="M 0 0 C 0 .8 -.64 1.44 -1.44 1.44 C -2.24 1.44 -2.88 .8 -2.88 0 C -2.88 -.8 -2.24 -1.44 -1.44 -1.44 C -.64 -1.44 0 -.8 0 0 Z " fill="#ffffff" fill-rule="evenodd"/>
<path transform="matrix(.75,0,0,.75,396.84,278.76)" stroke-width=".16" stroke-linecap="square" stroke-linejoin="bevel" fill="none" stroke="#000000" d="M 0 0 C 0 .8 -.64 1.44 -1.44 1.44 C -2.24 1.44 -2.88 .8 -2.88 0 C -2.88 -.8 -2.24 -1.44 -1.44 -1.44 C -.64 -1.44 0 -.8 0 0 Z "/>
<path transform="matrix(.75,0,0,.75,461.27998,278.76)" d="M 0 0 C 0 .64 -.64 1.28 -1.28 1.28 C -1.92 1.28 -2.56 .64 -2.56 0 C -2.56 -.64 -1.92 -1.28 -1.28 -1.28 C -.64 -1.28 0 -.64 0 0 Z " fill="#62d987" fill-rule="evenodd"/>
<path transform="matrix(.75,0,0,.75,461.27998,278.76)" stroke-width=".16" stroke-linecap="round" stroke-linejoin="round" fill="none" stroke="#62d987" d="M 0 0 C 0 .64 -.64 1.28 -1.28 1.28 C -1.92 1.28 -2.56 .64 -2.56 0 C -2.56 -.64 -1.92 -1.28 -1.28 -1.28 C -.64 -1.28 0 -.64 0 0 Z "/>
<path transform="matrix(.75,0,0,.75,460.80003,278.76)" d="M 0 0 C 0 .32 -.32 .64 -.64 .64 C -.96 .64 -1.28 .32 -1.28 0 C -1.28 -.32 -.96 -.64 -.64 -.64 C -.32 -.64 0 -.32 0 0 Z " fill="#ffffff" fill-rule="evenodd"/>
<path transform="matrix(.75,0,0,.75,460.80003,278.76)" stroke-width=".16" stroke-linecap="square" stroke-linejoin="bevel" fill="none" stroke="#000000" d="M 0 0 C 0 .32 -.32 .64 -.64 .64 C -.96 .64 -1.28 .32 -1.28 0 C -1.28 -.32 -.96 -.64 -.64 -.64 C -.32 -.64 0 -.32 0 0 Z "/>
<path transform="matrix(.75,0,0,.75,414.59999,307.56)" d="M 0 0 C 0 .64 -.64 1.28 -1.28 1.28 C -1.92 1.28 -2.56 .64 -2.56 0 C -2.56 -.64 -1.92 -1.28 -1.28 -1.28 C -.64 -1.28 0 -.64 0 0 Z " fill="#62d987" fill-rule="evenodd"/>
<path transform="matrix(.75,0,0,.75,414.59999,307.56)" stroke-width=".16" stroke-linecap="round" stroke-linejoin="round" fill="none" stroke="#62d987" d="M 0 0 C 0 .64 -.64 1.28 -1.28 1.28 C -1.92 1.28 -2.56 .64 -2.56 0 C -2.56 -.64 -1.92 -1.28 -1.28 -1.28 C -.64 -1.28 0 -.64 0 0 Z "/>
<path transform="matrix(.75,0,0,.75,414.12,307.56)" d="M 0 0 C 0 .32 -.32 .64 -.64 .64 C -.96 .64 -1.28 .32 -1.28 0 C -1.28 -.32 -.96 -.64 -.64 -.64 C -.32 -.64 0 -.32 0 0 Z " fill="#ffffff" fill-rule="evenodd"/>
<path transform="matrix(.75,0,0,.75,414.12,307.56)" stroke-width=".16" stroke-linecap="square" stroke-linejoin="bevel" fill="none" stroke="#000000" d="M 0 0 C 0 .32 -.32 .64 -.64 .64 C -.96 .64 -1.28 .32 -1.28 0 C -1.28 -.32 -.96 -.64 -.64 -.64 C -.32 -.64 0 -.32 0 0 Z "/>
<path transform="matrix(.75,0,0,.75,397.44,271.68)" d="M 0 0 C 0 1.28 -.96 2.24 -2.24 2.24 C -3.52 2.24 -4.48 1.28 -4.48 0 C -4.48 -1.28 -3.52 -2.24 -2.24 -2.24 C -.96 -2.24 0 -1.28 0 0 Z " fill="#62d987" fill-rule="evenodd"/>
<path transform="matrix(.75,0,0,.75,397.44,271.68)" stroke-width=".16" stroke-linecap="round" stroke-linejoin="round" fill="none" stroke="#62d987" d="M 0 0 C 0 1.28 -.96 2.24 -2.24 2.24 C -3.52 2.24 -4.48 1.28 -4.48 0 C -4.48 -1.28 -3.52 -2.24 -2.24 -2.24 C -.96 -2.24 0 -1.28 0 0 Z "/>
<path transform="matrix(.75,0,0,.75,396.84,271.68)" d="M 0 0 C 0 .8 -.64 1.44 -1.44 1.44 C -2.24 1.44 -2.88 .8 -2.88 0 C -2.88 -.8 -2.24 -1.44 -1.44 -1.44 C -.64 -1.44 0 -.8 0 0 Z " fill="#ffffff" fill-rule="evenodd"/>
<path transform="matrix(.75,0,0,.75,396.84,271.68)" stroke-width=".16" stroke-linecap="square" stroke-linejoin="bevel" fill="none" stroke="#000000" d="M 0 0 C 0 .8 -.64 1.44 -1.44 1.44 C -2.24 1.44 -2.88 .8 -2.88 0 C -2.88 -.8 -2.24 -1.44 -1.44 -1.44 C -.64 -1.44 0 -.8 0 0 Z "/>
<path transform="matrix(.75,0,0,.75,397.44,285.96)" d="M 0 0 C 0 1.28 -.96 2.24 -2.24 2.24 C -3.52 2.24 -4.48 1.28 -4.48 0 C -4.48 -1.28 -3.52 -2.24 -2.24 -2.24 C -.96 -2.24 0 -1.28 0 0 Z " fill="#62d987" fill-rule="evenodd"/>
<path transform="matrix(.75,0,0,.75,397.44,285.96)" stroke-width=".16" stroke-linecap="round" stroke-linejoin="round" fill="none" stroke="#62d987" d="M 0 0 C 0 1.28 -.96 2.24 -2.24 2.24 C -3.52 2.24 -4.48 1.28 -4.48 0 C -4.48 -1.28 -3.52 -2.24 -2.24 -2.24 C -.96 -2.24 0 -1.28 0 0 Z "/>
<path transform="matrix(.75,0,0,.75,396.84,285.96)" d="M 0 0 C 0 .8 -.64 1.44 -1.44 1.44 C -2.24 1.44 -2.88 .8 -2.88 0 C -2.88 -.8 -2.24 -1.44 -1.44 -1.44 C -.64 -1.44 0 -.8 0 0 Z " fill="#ffffff" fill-rule="evenodd"/>
<path transform="matrix(.75,0,0,.75,396.84,285.96)" stroke-width=".16" stroke-linecap="square" stroke-linejoin="bevel" fill="none" stroke="#000000" d="M 0 0 C 0 .8 -.64 1.44 -1.44 1.44 C -2.24 1.44 -2.88 .8 -2.88 0 C -2.88 -.8 -2.24 -1.44 -1.44 -1.44 C -.64 -1.44 0 -.8 0 0 Z "/>
<path transform="matrix(.75,0,0,.75,397.44,293.16)" d="M 0 0 C 0 1.28 -.96 2.24 -2.24 2.24 C -3.52 2.24 -4.48 1.28 -4.48 0 C -4.48 -1.28 -3.52 -2.24 -2.24 -2.24 C -.96 -2.24 0 -1.28 0 0 Z " fill="#62d987" fill-rule="evenodd"/>
<path transform="matrix(.75,0,0,.75,397.44,293.16)" stroke-width=".16" stroke-linecap="round" stroke-linejoin="round" fill="none" stroke="#62d987" d="M 0 0 C 0 1.28 -.96 2.24 -2.24 2.24 C -3.52 2.24 -4.48 1.28 -4.48 0 C -4.48 -1.28 -3.52 -2.24 -2.24 -2.24 C -.96 -2.24 0 -1.28 0 0 Z "/>
<path transform="matrix(.75,0,0,.75,396.84,293.16)" d="M 0 0 C 0 .8 -.64 1.44 -1.44 1.44 C -2.24 1.44 -2.88 .8 -2.88 0 C -2.88 -.8 -2.24 -1.44 -1.44 -1.44 C -.64 -1.44 0 -.8 0 0 Z " fill="#ffffff" fill-rule="evenodd"/>
<path transform="matrix(.75,0,0,.75,396.84,293.16)" stroke-width=".16" stroke-linecap="square" stroke-linejoin="bevel" fill="none" stroke="#000000" d="M 0 0 C 0 .8 -.64 1.44 -1.44 1.44 C -2.24 1.44 -2.88 .8 -2.88 0 C -2.88 -.8 -2.24 -1.44 -1.44 -1.44 C -.64 -1.44 0 -.8 0 0 Z "/>
<path transform="matrix(.75,0,0,.75,397.44,321.84)" d="M 0 0 C 0 1.28 -.96 2.24 -2.24 2.24 C -3.52 2.24 -4.48 1.28 -4.48 0 C -4.48 -1.28 -3.52 -2.24 -2.24 -2.24 C -.96 -2.24 0 -1.28 0 0 Z " fill="#62d987" fill-rule="evenodd"/>
<path transform="matrix(.75,0,0,.75,397.44,321.84)" stroke-width=".16" stroke-linecap="round" stroke-linejoin="round" fill="none" stroke="#62d987" d="M 0 0 C 0 1.28 -.96 2.24 -2.24 2.24 C -3.52 2.24 -4.48 1.28 -4.48 0 C -4.48 -1.28 -3.52 -2.24 -2.24 -2.24 C -.96 -2.24 0 -1.28 0 0 Z "/>
<path transform="matrix(.75,0,0,.75,396.84,321.84)" d="M 0 0 C 0 .8 -.64 1.44 -1.44 1.44 C -2.24 1.44 -2.88 .8 -2.88 0 C -2.88 -.8 -2.24 -1.44 -1.44 -1.44 C -.64 -1.44 0 -.8 0 0 Z " fill="#ffffff" fill-rule="evenodd"/>
<path transform="matrix(.75,0,0,.75,396.84,321.84)" stroke-width=".16" stroke-linecap="square" stroke-linejoin="bevel" fill="none" stroke="#000000" d="M 0 0 C 0 .8 -.64 1.44 -1.44 1.44 C -2.24 1.44 -2.88 .8 -2.88 0 C -2.88 -.8 -2.24 -1.44 -1.44 -1.44 C -.64 -1.44 0 -.8 0 0 Z "/>
</g>
<clipPath id="cp4">
<path transform="matrix(.75,0,0,.75,0,0)" d="M 508.32 452.8 L 646.24 452.8 L 646.24 453.6 L 508.32 453.6 Z " fill-rule="evenodd"/>
</clipPath>
<g clip-path="url(#cp4)">
<path transform="matrix(.75,0,0,.75,0,0)" stroke-width=".16" stroke-linecap="round" stroke-linejoin="round" fill="none" stroke="#62d986" d="M 508.48 453.12 L 646.08 453.12 "/>
</g>
<clipPath id="cp5">
<path transform="matrix(.75,0,0,.75,0,0)" d="M 645.76 352.48 L 646.24 352.48 L 646.24 453.6 L 645.76 453.6 Z " fill-rule="evenodd"/>
</clipPath>
<g clip-path="url(#cp5)">
<path transform="matrix(.75,0,0,.75,0,0)" stroke-width=".16" stroke-linecap="round" stroke-linejoin="round" fill="none" stroke="#62d986" d="M 646.08 453.12 L 646.08 352.64 "/>
</g>
<clipPath id="cp6">
<path transform="matrix(.75,0,0,.75,0,0)" d="M 508.32 352.48 L 646.24 352.48 L 646.24 353.12 L 508.32 353.12 Z " fill-rule="evenodd"/>
</clipPath>
<g clip-path="url(#cp6)">
<path transform="matrix(.75,0,0,.75,0,0)" stroke-width=".16" stroke-linecap="round" stroke-linejoin="round" fill="none" stroke="#62d986" d="M 646.08 352.64 L 508.48 352.64 "/>
</g>
<clipPath id="cp7">
<path transform="matrix(.75,0,0,.75,0,0)" d="M 508.32 352.48 L 508.96 352.48 L 508.96 453.6 L 508.32 453.6 Z " fill-rule="evenodd"/>
</clipPath>
<g clip-path="url(#cp7)">
<path transform="matrix(.75,0,0,.75,0,0)" stroke-width=".16" stroke-linecap="round" stroke-linejoin="round" fill="none" stroke="#62d986" d="M 508.48 352.64 L 508.48 453.12 "/>
</g>
</g>
</svg>
