<svg width="104" height="77" viewBox="0 0 104 77" fill="none" xmlns="http://www.w3.org/2000/svg">
<rect width="104" height="76" fill="#C4C4C4"/>
<path fill-rule="evenodd" clip-rule="evenodd" d="M90.84 28.32H96.6V48.72H90.84V28.32Z" fill="#0696D7"/>
<path d="M90.84 28.32H96.6V48.72H90.84V28.32Z" stroke="#0696D7" stroke-width="0.12" stroke-linecap="round" stroke-linejoin="round"/>
<path fill-rule="evenodd" clip-rule="evenodd" d="M26.16 28.32H31.92V48.72H26.16V28.32Z" fill="#0696D7"/>
<path d="M26.16 28.32H31.92V48.72H26.16V28.32Z" stroke="#0696D7" stroke-width="0.12" stroke-linecap="round" stroke-linejoin="round"/>
<path fill-rule="evenodd" clip-rule="evenodd" d="M85.32 38.52C85.32 51.72 74.64 62.4 61.44 62.4C48.24 62.4 37.56 51.72 37.56 38.52C37.56 25.32 48.24 14.64 61.44 14.64C74.64 14.64 85.32 25.32 85.32 38.52Z" fill="#0696D7"/>
<path d="M85.32 38.52C85.32 51.72 74.64 62.4 61.44 62.4C48.24 62.4 37.56 51.72 37.56 38.52C37.56 25.32 48.24 14.64 61.44 14.64C74.64 14.64 85.32 25.32 85.32 38.52Z" stroke="#0696D7" stroke-width="0.12" stroke-linecap="round" stroke-linejoin="round"/>
<path d="M61.44 38.52L57.84 39.96" stroke="#0696D7" stroke-width="1.8" stroke-linecap="round" stroke-linejoin="round"/>
<path d="M57.84 43.56V39.96" stroke="#0696D7" stroke-width="1.8" stroke-linecap="round" stroke-linejoin="round"/>
<path fill-rule="evenodd" clip-rule="evenodd" d="M101.16 72.84L101.4 72.72L101.52 72.48V72.24V3.36V3.12L101.4 2.87999L101.16 2.75999L100.92 2.63998H3.96002L3.72002 2.75999L3.48001 2.87999L3.35999 3.12V3.36V42.72V42.96L3.48001 43.2L3.72002 43.32H3.96002H4.19998L4.43999 43.08L4.56001 42.96L5.03998 41.88L5.88002 41.04L6.96002 40.56H8.16L9.24001 41.04L10.08 41.88L10.56 42.96V44.16L10.08 45.24L9.24001 46.08L8.16 46.56H6.96002L5.88002 46.08L5.03998 45.24L4.56001 44.16L4.43999 43.92L4.19998 43.8L3.96002 43.68L3.72002 43.8L3.48001 43.92L3.35999 44.16V44.4V57V57.24L3.48001 57.48L3.72002 57.6L3.96002 57.72L4.19998 57.6L4.43999 57.48L4.56001 57.24L5.03998 56.16L5.88002 55.32L6.96002 54.84H7.80002H8.03998L8.27998 54.72L8.64001 54.36L8.75999 54.12V53.88V53.64L8.64001 53.4L8.40001 53.28H8.16V51.36H10.08L9.84 51.72V51.96V52.32L10.08 52.44L10.2 52.56L10.56 52.68L10.68 52.56H10.8H19.2H19.44L19.68 52.44L19.8 52.2L19.92 51.96V41.64L19.8 41.4L19.68 41.16L19.44 41.04L19.2 40.92L18.96 41.04L18.72 41.16H17.52L16.44 40.68L15.6 39.84L15.12 38.76V37.56L15.6 36.48L16.44 35.64L17.52 35.16H18.72L18.96 35.28H19.2H19.56L19.68 35.16L19.8 34.92L19.92 34.68V24.6L19.8 24.36L19.68 24.24L19.44 24H19.2H17.04H16.8L16.56 24.24L16.32 24.36L15.24 24.84H14.16L13.08 24.36L12.84 24.24L12.72 24H12.48H10.32H9.96002L9.84 24.24L9.48001 24.48L8.40001 24.96L8.16 25.08L8.03998 25.32L7.92 25.56L8.03998 25.8L8.16 26.04L8.40001 26.16L9.48001 26.64L10.32 27.48L10.68 28.44L10.92 28.68L11.04 28.8L11.4 28.92L11.64 28.8L11.76 28.68L11.88 28.44L12.36 27.6L13.08 26.76L14.16 26.28H15.24L16.32 26.76L17.16 27.6L17.52 28.56V29.76L17.16 30.84L16.32 31.56L15.24 32.04H14.16L13.08 31.56L12.36 30.84L11.88 29.88L11.76 29.64L11.52 29.52L11.28 29.4L11.04 29.52L10.8 29.64L10.68 29.88L10.32 30.84L9.48001 31.68L8.40001 32.16H7.19998L6.11998 31.68L5.27998 30.84L4.80002 29.76V28.56L5.27998 27.48L6.11998 26.64L7.19998 26.16L7.32001 26.04L7.56001 25.8V25.56V25.32L7.32001 25.08L7.19998 24.96L6.11998 24.48L5.27998 23.64L4.80002 22.56V21.36L5.27998 20.28L6.11998 19.44L7.19998 18.96H8.40001L9.48001 19.44L9.84 19.8L10.08 19.92L10.32 20.04H12.48L12.72 19.92L12.84 19.8L13.08 19.56L14.16 19.2H15.24L16.32 19.56L16.56 19.8L16.8 19.92L17.04 20.04H22.32H22.56L22.8 20.16L23.04 20.04L23.28 19.92L23.4 19.68L23.52 19.44L23.4 19.2L23.28 19.08L14.88 10.68L14.64 10.56L14.4 10.44H14.16L13.08 10.08L12.84 9.83999L12.72 9.71999L12.48 9.59998H10.32L9.96002 9.71999L9.84 9.83999L9.48001 10.2L8.40001 10.68H7.19998L6.11998 10.2L5.27998 9.36L4.80002 8.28V7.07999L5.27998 5.87999L6.11998 5.03999L7.19998 4.67999H8.40001L9.48001 5.03999L9.84 5.4L10.08 5.51998L10.32 5.63998H12.48L12.72 5.51998L12.84 5.4L13.08 5.16L14.16 4.79999H15.24L16.32 5.16L17.16 5.99999L17.52 7.07999V7.32L17.64 7.55998L17.76 7.79999L30.84 20.88L31.08 21.6V26.52L31.2 26.76L31.32 27L31.56 27.12H31.8H32.16L32.52 27.36L32.88 27.72L33.12 28.08V40.44V40.68L33.24 40.8L33.96 41.88L34.08 42L34.44 42.36L34.8 43.08V43.92L34.44 44.76L33.84 45.24L33.48 45.48L33.24 45.6L33.12 45.84V46.08V48.96L32.88 49.32L32.52 49.68L32.16 49.8H26.04L25.56 49.68L25.32 49.32L25.2 49.08L24.96 48.84L24.84 48.72L24.6 48.6L24.24 48.72L24.12 48.84L24 49.08L23.88 49.32V54.72L23.64 55.44L23.04 56.04L22.32 56.28H21.48L20.88 56.04H20.64H18H17.76L17.52 56.28L17.4 56.4V56.64V56.88L17.52 57.36V58.44L17.16 59.52L16.92 59.76L16.8 59.88L16.68 60.12V69L16.44 69.84L14.4 71.76L14.28 72V72.24V72.48L14.4 72.72L14.64 72.84H14.88H100.92H101.16ZM5.27998 14.16L5.64001 13.32L6.35999 12.6L7.08 12.36V14.16H5.27998ZM8.40001 14.16V12.36L9.24001 12.6L9.96002 13.32L10.32 14.16H8.40001ZM90.72 49.8L90.24 49.68L89.88 49.32L89.76 48.96V28.08L89.88 27.72L90.24 27.36L90.72 27.12H91.08H91.32L91.56 27L91.68 26.76V26.52V23.04V22.8L91.56 22.68L85.92 17.04L85.68 16.92L85.44 16.8H80.04L79.8 16.92H78.96L78.24 16.56L77.64 15.96L77.28 15.24V14.4L77.64 13.68L78.24 13.08L78.96 12.72H79.8L80.04 12.84H86.88L87.72 13.08L95.4 20.88L95.76 21.6V26.52V26.76L95.88 27L96.12 27.12H96.36H96.72L97.2 27.36L97.56 27.72L97.68 28.08V48.96L97.56 49.32L97.2 49.68L96.72 49.8H90.72ZM62.04 37.8V13.92H63.84L68.64 14.88L73.08 16.68L77.04 19.44L80.52 22.8L83.16 26.88L85.08 31.32L86.04 36.12V37.8H62.04ZM36.84 37.8V36.12L37.68 31.32L39.6 26.88L42.24 22.8L45.72 19.44L49.8 16.68L54.24 14.88L58.92 13.92H60.72V37.8H36.84ZM8.40001 15.48H10.32L9.96002 16.32L9.24001 17.04L8.40001 17.28V15.48ZM6.35999 17.04L5.64001 16.32L5.27998 15.48H7.08V17.28L6.35999 17.04ZM62.04 63.12V39.12H86.04V40.92L85.08 45.72L83.16 50.16L80.52 54.24L77.04 57.6L73.08 60.36L68.64 62.16L63.84 63.12H62.04ZM58.92 63.12L54.24 62.16L49.8 60.36L45.72 57.6L42.24 54.24L39.6 50.16L37.68 45.72L36.84 40.92V39.12H60.72V63.12H58.92ZM5.03998 50.04L5.40001 49.2L6.11998 48.48L6.84 48.24V50.04H5.03998ZM8.16 50.04V48.24L9 48.48L9.72002 49.2L10.08 50.04H8.16ZM6.11998 52.92L5.40001 52.2L5.03998 51.36H6.84V53.28L6.11998 52.92ZM93.24 71.4L92.16 70.92L91.44 70.2L90.96 69.24V68.16L91.44 67.08L92.16 66.36L93.24 66H94.32L95.28 66.36L96 67.08L96.48 68.16V69.24L96 70.2L95.28 70.92L94.32 71.4H93.24ZM86.04 71.4L84.96 70.92L84.24 70.2L83.88 69.24V68.16L84.24 67.08L84.96 66.36L86.04 66H87.12L88.08 66.36L88.8 67.08L89.28 68.16V69.24L88.8 70.2L88.08 70.92L87.12 71.4H86.04ZM78.84 71.4L77.76 70.92L77.04 70.2L76.68 69.24V68.16L77.04 67.08L77.76 66.36L78.84 66H79.92L80.88 66.36L81.6 67.08L82.08 68.16V69.24L81.6 70.2L80.88 70.92L79.92 71.4H78.84ZM57.24 71.4L56.28 70.92L55.56 70.2L55.08 69.24V68.16L55.56 67.08L56.28 66.36L57.24 66H58.32L59.4 66.36L60.12 67.08L60.48 68.16V69.24L60.12 70.2L59.4 70.92L58.32 71.4H57.24ZM50.04 71.4L49.08 70.92L48.36 70.2L47.88 69.24V68.16L48.36 67.08L49.08 66.36L50.04 66H51.12L52.2 66.36L52.92 67.08L53.4 68.16V69.24L52.92 70.2L52.2 70.92L51.12 71.4H50.04ZM62.76 68.04V66.84L63.12 66.36H64.32V68.04H62.76ZM65.64 68.04V66.36H66.84L67.32 66.84V68.04H65.64ZM69.96 68.04L70.2 67.32L70.92 66.72L71.52 66.48V68.04H69.96ZM72.84 68.04V66.48L73.44 66.72L74.16 67.32L74.4 68.04H72.84ZM72.84 69.36H74.4L74.16 69.96L73.44 70.56L72.84 70.92V69.36ZM70.92 70.56L70.2 69.96L69.96 69.36H71.52V70.92L70.92 70.56ZM65.64 70.92V69.36H67.32V70.56L66.84 70.92H65.64ZM63.12 70.92L62.76 70.56V69.36H64.32V70.92H63.12Z" fill="#0696D7"/>
<path d="M101.16 72.84L101.4 72.72L101.52 72.48V72.24V3.36V3.12L101.4 2.87999L101.16 2.75999L100.92 2.63998H3.96002L3.72002 2.75999L3.48001 2.87999L3.35999 3.12V3.36V42.72V42.96L3.48001 43.2L3.72002 43.32H3.96002H4.19998L4.43999 43.08L4.56001 42.96L5.03998 41.88L5.88002 41.04L6.96002 40.56H8.16L9.24001 41.04L10.08 41.88L10.56 42.96V44.16L10.08 45.24L9.24001 46.08L8.16 46.56H6.96002L5.88002 46.08L5.03998 45.24L4.56001 44.16L4.43999 43.92L4.19998 43.8L3.96002 43.68L3.72002 43.8L3.48001 43.92L3.35999 44.16V44.4V57V57.24L3.48001 57.48L3.72002 57.6L3.96002 57.72L4.19998 57.6L4.43999 57.48L4.56001 57.24L5.03998 56.16L5.88002 55.32L6.96002 54.84H7.80002H8.03998L8.27998 54.72L8.64001 54.36L8.75999 54.12V53.88V53.64L8.64001 53.4L8.40001 53.28H8.16V51.36H10.08L9.84 51.72V51.96V52.32L10.08 52.44L10.2 52.56L10.56 52.68L10.68 52.56H10.8H19.2H19.44L19.68 52.44L19.8 52.2L19.92 51.96V41.64L19.8 41.4L19.68 41.16L19.44 41.04L19.2 40.92L18.96 41.04L18.72 41.16H17.52L16.44 40.68L15.6 39.84L15.12 38.76V37.56L15.6 36.48L16.44 35.64L17.52 35.16H18.72L18.96 35.28H19.2H19.56L19.68 35.16L19.8 34.92L19.92 34.68V24.6L19.8 24.36L19.68 24.24L19.44 24H19.2H17.04H16.8L16.56 24.24L16.32 24.36L15.24 24.84H14.16L13.08 24.36L12.84 24.24L12.72 24H12.48H10.32H9.96002L9.84 24.24L9.48001 24.48L8.40001 24.96L8.16 25.08L8.03998 25.32L7.92 25.56L8.03998 25.8L8.16 26.04L8.40001 26.16L9.48001 26.64L10.32 27.48L10.68 28.44L10.92 28.68L11.04 28.8L11.4 28.92L11.64 28.8L11.76 28.68L11.88 28.44L12.36 27.6L13.08 26.76L14.16 26.28H15.24L16.32 26.76L17.16 27.6L17.52 28.56V29.76L17.16 30.84L16.32 31.56L15.24 32.04H14.16L13.08 31.56L12.36 30.84L11.88 29.88L11.76 29.64L11.52 29.52L11.28 29.4L11.04 29.52L10.8 29.64L10.68 29.88L10.32 30.84L9.48001 31.68L8.40001 32.16H7.19998L6.11998 31.68L5.27998 30.84L4.80002 29.76V28.56L5.27998 27.48L6.11998 26.64L7.19998 26.16L7.32001 26.04L7.56001 25.8V25.56V25.32L7.32001 25.08L7.19998 24.96L6.11998 24.48L5.27998 23.64L4.80002 22.56V21.36L5.27998 20.28L6.11998 19.44L7.19998 18.96H8.40001L9.48001 19.44L9.84 19.8L10.08 19.92L10.32 20.04H12.48L12.72 19.92L12.84 19.8L13.08 19.56L14.16 19.2H15.24L16.32 19.56L16.56 19.8L16.8 19.92L17.04 20.04H22.32H22.56L22.8 20.16L23.04 20.04L23.28 19.92L23.4 19.68L23.52 19.44L23.4 19.2L23.28 19.08L14.88 10.68L14.64 10.56L14.4 10.44H14.16L13.08 10.08L12.84 9.83999L12.72 9.71999L12.48 9.59998H10.32L9.96002 9.71999L9.84 9.83999L9.48001 10.2L8.40001 10.68H7.19998L6.11998 10.2L5.27998 9.36L4.80002 8.28V7.07999L5.27998 5.87999L6.11998 5.03999L7.19998 4.67999H8.40001L9.48001 5.03999L9.84 5.4L10.08 5.51998L10.32 5.63998H12.48L12.72 5.51998L12.84 5.4L13.08 5.16L14.16 4.79999H15.24L16.32 5.16L17.16 5.99999L17.52 7.07999V7.32L17.64 7.55998L17.76 7.79999L30.84 20.88L31.08 21.6V26.52L31.2 26.76L31.32 27L31.56 27.12H31.8H32.16L32.52 27.36L32.88 27.72L33.12 28.08V40.44V40.68L33.24 40.8L33.96 41.88L34.08 42L34.44 42.36L34.8 43.08V43.92L34.44 44.76L33.84 45.24L33.48 45.48L33.24 45.6L33.12 45.84V46.08V48.96L32.88 49.32L32.52 49.68L32.16 49.8H26.04L25.56 49.68L25.32 49.32L25.2 49.08L24.96 48.84L24.84 48.72L24.6 48.6L24.24 48.72L24.12 48.84L24 49.08L23.88 49.32V54.72L23.64 55.44L23.04 56.04L22.32 56.28H21.48L20.88 56.04H20.64H18H17.76L17.52 56.28L17.4 56.4V56.64V56.88L17.52 57.36V58.44L17.16 59.52L16.92 59.76L16.8 59.88L16.68 60.12V69L16.44 69.84L14.4 71.76L14.28 72V72.24V72.48L14.4 72.72L14.64 72.84H14.88H100.92H101.16ZM5.27998 14.16L5.64001 13.32L6.35999 12.6L7.08 12.36V14.16H5.27998ZM8.40001 14.16V12.36L9.24001 12.6L9.96002 13.32L10.32 14.16H8.40001ZM90.72 49.8L90.24 49.68L89.88 49.32L89.76 48.96V28.08L89.88 27.72L90.24 27.36L90.72 27.12H91.08H91.32L91.56 27L91.68 26.76V26.52V23.04V22.8L91.56 22.68L85.92 17.04L85.68 16.92L85.44 16.8H80.04L79.8 16.92H78.96L78.24 16.56L77.64 15.96L77.28 15.24V14.4L77.64 13.68L78.24 13.08L78.96 12.72H79.8L80.04 12.84H86.88L87.72 13.08L95.4 20.88L95.76 21.6V26.52V26.76L95.88 27L96.12 27.12H96.36H96.72L97.2 27.36L97.56 27.72L97.68 28.08V48.96L97.56 49.32L97.2 49.68L96.72 49.8H90.72ZM62.04 37.8V13.92H63.84L68.64 14.88L73.08 16.68L77.04 19.44L80.52 22.8L83.16 26.88L85.08 31.32L86.04 36.12V37.8H62.04ZM36.84 37.8V36.12L37.68 31.32L39.6 26.88L42.24 22.8L45.72 19.44L49.8 16.68L54.24 14.88L58.92 13.92H60.72V37.8H36.84ZM8.40001 15.48H10.32L9.96002 16.32L9.24001 17.04L8.40001 17.28V15.48ZM6.35999 17.04L5.64001 16.32L5.27998 15.48H7.08V17.28L6.35999 17.04ZM62.04 63.12V39.12H86.04V40.92L85.08 45.72L83.16 50.16L80.52 54.24L77.04 57.6L73.08 60.36L68.64 62.16L63.84 63.12H62.04ZM58.92 63.12L54.24 62.16L49.8 60.36L45.72 57.6L42.24 54.24L39.6 50.16L37.68 45.72L36.84 40.92V39.12H60.72V63.12H58.92ZM5.03998 50.04L5.40001 49.2L6.11998 48.48L6.84 48.24V50.04H5.03998ZM8.16 50.04V48.24L9 48.48L9.72002 49.2L10.08 50.04H8.16ZM6.11998 52.92L5.40001 52.2L5.03998 51.36H6.84V53.28L6.11998 52.92ZM93.24 71.4L92.16 70.92L91.44 70.2L90.96 69.24V68.16L91.44 67.08L92.16 66.36L93.24 66H94.32L95.28 66.36L96 67.08L96.48 68.16V69.24L96 70.2L95.28 70.92L94.32 71.4H93.24ZM86.04 71.4L84.96 70.92L84.24 70.2L83.88 69.24V68.16L84.24 67.08L84.96 66.36L86.04 66H87.12L88.08 66.36L88.8 67.08L89.28 68.16V69.24L88.8 70.2L88.08 70.92L87.12 71.4H86.04ZM78.84 71.4L77.76 70.92L77.04 70.2L76.68 69.24V68.16L77.04 67.08L77.76 66.36L78.84 66H79.92L80.88 66.36L81.6 67.08L82.08 68.16V69.24L81.6 70.2L80.88 70.92L79.92 71.4H78.84ZM57.24 71.4L56.28 70.92L55.56 70.2L55.08 69.24V68.16L55.56 67.08L56.28 66.36L57.24 66H58.32L59.4 66.36L60.12 67.08L60.48 68.16V69.24L60.12 70.2L59.4 70.92L58.32 71.4H57.24ZM50.04 71.4L49.08 70.92L48.36 70.2L47.88 69.24V68.16L48.36 67.08L49.08 66.36L50.04 66H51.12L52.2 66.36L52.92 67.08L53.4 68.16V69.24L52.92 70.2L52.2 70.92L51.12 71.4H50.04ZM62.76 68.04V66.84L63.12 66.36H64.32V68.04H62.76ZM65.64 68.04V66.36H66.84L67.32 66.84V68.04H65.64ZM69.96 68.04L70.2 67.32L70.92 66.72L71.52 66.48V68.04H69.96ZM72.84 68.04V66.48L73.44 66.72L74.16 67.32L74.4 68.04H72.84ZM72.84 69.36H74.4L74.16 69.96L73.44 70.56L72.84 70.92V69.36ZM70.92 70.56L70.2 69.96L69.96 69.36H71.52V70.92L70.92 70.56ZM65.64 70.92V69.36H67.32V70.56L66.84 70.92H65.64ZM63.12 70.92L62.76 70.56V69.36H64.32V70.92H63.12Z" stroke="#0696D7" stroke-width="0.12" stroke-linecap="round" stroke-linejoin="round"/>
<path d="M72.12 68.64V54.36" stroke="#0696D7" stroke-width="1.8" stroke-linecap="round" stroke-linejoin="round"/>
<path d="M93.72 38.52V21.96" stroke="#0696D7" stroke-width="1.8" stroke-linecap="round" stroke-linejoin="round"/>
<path d="M93.72 21.96L86.52 14.76" stroke="#0696D7" stroke-width="1.8" stroke-linecap="round" stroke-linejoin="round"/>
<path d="M86.52 14.76H79.32" stroke="#0696D7" stroke-width="1.8" stroke-linecap="round" stroke-linejoin="round"/>
<path d="M29.04 38.52V21.96" stroke="#0696D7" stroke-width="1.8" stroke-linecap="round" stroke-linejoin="round"/>
<path d="M29.04 21.96L14.76 7.67999" stroke="#0696D7" stroke-width="1.8" stroke-linecap="round" stroke-linejoin="round"/>
<path d="M14.76 7.67999H7.80002" stroke="#0696D7" stroke-width="1.8" stroke-linecap="round" stroke-linejoin="round"/>
<path d="M32.64 43.56L29.04 38.52" stroke="#0696D7" stroke-width="1.8" stroke-linecap="round" stroke-linejoin="round"/>
<path d="M21.96 54.36V21.96" stroke="#0696D7" stroke-width="1.8" stroke-linecap="round" stroke-linejoin="round"/>
<path d="M21.96 21.96H14.76" stroke="#0696D7" stroke-width="1.8" stroke-linecap="round" stroke-linejoin="round"/>
<path d="M14.76 21.96H7.80002" stroke="#0696D7" stroke-width="1.8" stroke-linecap="round" stroke-linejoin="round"/>
<path d="M7.56 57.84L11.16 54.36" stroke="#0696D7" stroke-width="1.2" stroke-linecap="round" stroke-linejoin="round"/>
<path d="M11.16 54.36H21.96" stroke="#0696D7" stroke-width="1.2" stroke-linecap="round" stroke-linejoin="round"/>
<path d="M7.56 72.24H11.16" stroke="#0696D7" stroke-width="1.8" stroke-linecap="round" stroke-linejoin="round"/>
<path d="M11.16 72.24L14.76 68.64" stroke="#0696D7" stroke-width="1.8" stroke-linecap="round" stroke-linejoin="round"/>
<path d="M14.76 68.64V57.84" stroke="#0696D7" stroke-width="1.8" stroke-linecap="round" stroke-linejoin="round"/>
<path fill-rule="evenodd" clip-rule="evenodd" d="M9.6 7.68C9.6 8.64 8.76 9.48001 7.8 9.48001C6.84 9.48001 6 8.64 6 7.68C6 6.72 6.84 5.88 7.8 5.88C8.76 5.88 9.6 6.72 9.6 7.68Z" fill="#62D987"/>
<path d="M9.6 7.68C9.6 8.64 8.76 9.48001 7.8 9.48001C6.84 9.48001 6 8.64 6 7.68C6 6.72 6.84 5.88 7.8 5.88C8.76 5.88 9.6 6.72 9.6 7.68Z" stroke="#62D987" stroke-width="0.12" stroke-linecap="round" stroke-linejoin="round"/>
<path fill-rule="evenodd" clip-rule="evenodd" d="M8.88 7.68001C8.88 8.28001 8.4 8.76001 7.8 8.76001C7.2 8.76001 6.72 8.28001 6.72 7.68001C6.72 7.08001 7.2 6.60001 7.8 6.60001C8.4 6.60001 8.88 7.08001 8.88 7.68001Z" fill="white"/>
<path d="M8.88 7.68001C8.88 8.28001 8.4 8.76001 7.8 8.76001C7.2 8.76001 6.72 8.28001 6.72 7.68001C6.72 7.08001 7.2 6.60001 7.8 6.60001C8.4 6.60001 8.88 7.08001 8.88 7.68001Z" stroke="black" stroke-width="0.12" stroke-linecap="square" stroke-linejoin="bevel"/>
<path fill-rule="evenodd" clip-rule="evenodd" d="M9.6 14.76C9.6 15.72 8.76 16.56 7.8 16.56C6.84 16.56 6 15.72 6 14.76C6 13.8 6.84 12.96 7.8 12.96C8.76 12.96 9.6 13.8 9.6 14.76Z" fill="#62D987"/>
<path d="M9.6 14.76C9.6 15.72 8.76 16.56 7.8 16.56C6.84 16.56 6 15.72 6 14.76C6 13.8 6.84 12.96 7.8 12.96C8.76 12.96 9.6 13.8 9.6 14.76Z" stroke="#62D987" stroke-width="0.12" stroke-linecap="round" stroke-linejoin="round"/>
<path fill-rule="evenodd" clip-rule="evenodd" d="M8.88 14.76C8.88 15.36 8.4 15.84 7.8 15.84C7.2 15.84 6.72 15.36 6.72 14.76C6.72 14.16 7.2 13.68 7.8 13.68C8.4 13.68 8.88 14.16 8.88 14.76Z" fill="white"/>
<path d="M8.88 14.76C8.88 15.36 8.4 15.84 7.8 15.84C7.2 15.84 6.72 15.36 6.72 14.76C6.72 14.16 7.2 13.68 7.8 13.68C8.4 13.68 8.88 14.16 8.88 14.76Z" stroke="black" stroke-width="0.12" stroke-linecap="square" stroke-linejoin="bevel"/>
<path fill-rule="evenodd" clip-rule="evenodd" d="M9.6 21.96C9.6 22.92 8.76 23.76 7.8 23.76C6.84 23.76 6 22.92 6 21.96C6 21 6.84 20.16 7.8 20.16C8.76 20.16 9.6 21 9.6 21.96Z" fill="#62D987"/>
<path d="M9.6 21.96C9.6 22.92 8.76 23.76 7.8 23.76C6.84 23.76 6 22.92 6 21.96C6 21 6.84 20.16 7.8 20.16C8.76 20.16 9.6 21 9.6 21.96Z" stroke="#62D987" stroke-width="0.12" stroke-linecap="round" stroke-linejoin="round"/>
<path fill-rule="evenodd" clip-rule="evenodd" d="M8.88 21.96C8.88 22.56 8.4 23.04 7.8 23.04C7.2 23.04 6.72 22.56 6.72 21.96C6.72 21.36 7.2 20.88 7.8 20.88C8.4 20.88 8.88 21.36 8.88 21.96Z" fill="white"/>
<path d="M8.88 21.96C8.88 22.56 8.4 23.04 7.8 23.04C7.2 23.04 6.72 22.56 6.72 21.96C6.72 21.36 7.2 20.88 7.8 20.88C8.4 20.88 8.88 21.36 8.88 21.96Z" stroke="black" stroke-width="0.12" stroke-linecap="square" stroke-linejoin="bevel"/>
<path fill-rule="evenodd" clip-rule="evenodd" d="M9.6 29.16C9.6 30.12 8.76 30.96 7.8 30.96C6.84 30.96 6 30.12 6 29.16C6 28.2 6.84 27.36 7.8 27.36C8.76 27.36 9.6 28.2 9.6 29.16Z" fill="#62D987"/>
<path d="M9.6 29.16C9.6 30.12 8.76 30.96 7.8 30.96C6.84 30.96 6 30.12 6 29.16C6 28.2 6.84 27.36 7.8 27.36C8.76 27.36 9.6 28.2 9.6 29.16Z" stroke="#62D987" stroke-width="0.12" stroke-linecap="round" stroke-linejoin="round"/>
<path fill-rule="evenodd" clip-rule="evenodd" d="M8.88 29.16C8.88 29.76 8.4 30.24 7.8 30.24C7.2 30.24 6.72 29.76 6.72 29.16C6.72 28.56 7.2 28.08 7.8 28.08C8.4 28.08 8.88 28.56 8.88 29.16Z" fill="white"/>
<path d="M8.88 29.16C8.88 29.76 8.4 30.24 7.8 30.24C7.2 30.24 6.72 29.76 6.72 29.16C6.72 28.56 7.2 28.08 7.8 28.08C8.4 28.08 8.88 28.56 8.88 29.16Z" stroke="black" stroke-width="0.12" stroke-linecap="square" stroke-linejoin="bevel"/>
<path fill-rule="evenodd" clip-rule="evenodd" d="M9.36001 43.56C9.36001 44.52 8.52001 45.36 7.56001 45.36C6.60001 45.36 5.76001 44.52 5.76001 43.56C5.76001 42.6 6.60001 41.76 7.56001 41.76C8.52001 41.76 9.36001 42.6 9.36001 43.56Z" fill="#62D987"/>
<path d="M9.36001 43.56C9.36001 44.52 8.52001 45.36 7.56001 45.36C6.60001 45.36 5.76001 44.52 5.76001 43.56C5.76001 42.6 6.60001 41.76 7.56001 41.76C8.52001 41.76 9.36001 42.6 9.36001 43.56Z" stroke="#62D987" stroke-width="0.12" stroke-linecap="round" stroke-linejoin="round"/>
<path fill-rule="evenodd" clip-rule="evenodd" d="M8.64001 43.56C8.64001 44.16 8.16001 44.64 7.56001 44.64C6.96001 44.64 6.48001 44.16 6.48001 43.56C6.48001 42.96 6.96001 42.48 7.56001 42.48C8.16001 42.48 8.64001 42.96 8.64001 43.56Z" fill="white"/>
<path d="M8.64001 43.56C8.64001 44.16 8.16001 44.64 7.56001 44.64C6.96001 44.64 6.48001 44.16 6.48001 43.56C6.48001 42.96 6.96001 42.48 7.56001 42.48C8.16001 42.48 8.64001 42.96 8.64001 43.56Z" stroke="black" stroke-width="0.12" stroke-linecap="square" stroke-linejoin="bevel"/>
<path fill-rule="evenodd" clip-rule="evenodd" d="M9.36001 50.76C9.36001 51.72 8.52001 52.56 7.56001 52.56C6.60001 52.56 5.76001 51.72 5.76001 50.76C5.76001 49.8 6.60001 48.96 7.56001 48.96C8.52001 48.96 9.36001 49.8 9.36001 50.76Z" fill="#62D987"/>
<path d="M9.36001 50.76C9.36001 51.72 8.52001 52.56 7.56001 52.56C6.60001 52.56 5.76001 51.72 5.76001 50.76C5.76001 49.8 6.60001 48.96 7.56001 48.96C8.52001 48.96 9.36001 49.8 9.36001 50.76Z" stroke="#62D987" stroke-width="0.12" stroke-linecap="round" stroke-linejoin="round"/>
<path fill-rule="evenodd" clip-rule="evenodd" d="M8.64001 50.76C8.64001 51.36 8.16001 51.84 7.56001 51.84C6.96001 51.84 6.48001 51.36 6.48001 50.76C6.48001 50.16 6.96001 49.68 7.56001 49.68C8.16001 49.68 8.64001 50.16 8.64001 50.76Z" fill="white"/>
<path d="M8.64001 50.76C8.64001 51.36 8.16001 51.84 7.56001 51.84C6.96001 51.84 6.48001 51.36 6.48001 50.76C6.48001 50.16 6.96001 49.68 7.56001 49.68C8.16001 49.68 8.64001 50.16 8.64001 50.76Z" stroke="black" stroke-width="0.12" stroke-linecap="square" stroke-linejoin="bevel"/>
<path fill-rule="evenodd" clip-rule="evenodd" d="M9.36001 57.84C9.36001 58.8 8.52001 59.64 7.56001 59.64C6.60001 59.64 5.76001 58.8 5.76001 57.84C5.76001 56.88 6.60001 56.04 7.56001 56.04C8.52001 56.04 9.36001 56.88 9.36001 57.84Z" fill="#62D987"/>
<path d="M9.36001 57.84C9.36001 58.8 8.52001 59.64 7.56001 59.64C6.60001 59.64 5.76001 58.8 5.76001 57.84C5.76001 56.88 6.60001 56.04 7.56001 56.04C8.52001 56.04 9.36001 56.88 9.36001 57.84Z" stroke="#62D987" stroke-width="0.12" stroke-linecap="round" stroke-linejoin="round"/>
<path fill-rule="evenodd" clip-rule="evenodd" d="M8.64001 57.84C8.64001 58.44 8.16001 58.92 7.56001 58.92C6.96001 58.92 6.48001 58.44 6.48001 57.84C6.48001 57.24 6.96001 56.76 7.56001 56.76C8.16001 56.76 8.64001 57.24 8.64001 57.84Z" fill="white"/>
<path d="M8.64001 57.84C8.64001 58.44 8.16001 58.92 7.56001 58.92C6.96001 58.92 6.48001 58.44 6.48001 57.84C6.48001 57.24 6.96001 56.76 7.56001 56.76C8.16001 56.76 8.64001 57.24 8.64001 57.84Z" stroke="black" stroke-width="0.12" stroke-linecap="square" stroke-linejoin="bevel"/>
<path fill-rule="evenodd" clip-rule="evenodd" d="M9.36001 65.04C9.36001 66 8.52001 66.84 7.56001 66.84C6.60001 66.84 5.76001 66 5.76001 65.04C5.76001 64.08 6.60001 63.24 7.56001 63.24C8.52001 63.24 9.36001 64.08 9.36001 65.04Z" fill="#62D987"/>
<path d="M9.36001 65.04C9.36001 66 8.52001 66.84 7.56001 66.84C6.60001 66.84 5.76001 66 5.76001 65.04C5.76001 64.08 6.60001 63.24 7.56001 63.24C8.52001 63.24 9.36001 64.08 9.36001 65.04Z" stroke="#62D987" stroke-width="0.12" stroke-linecap="round" stroke-linejoin="round"/>
<path fill-rule="evenodd" clip-rule="evenodd" d="M8.64001 65.04C8.64001 65.64 8.16001 66.12 7.56001 66.12C6.96001 66.12 6.48001 65.64 6.48001 65.04C6.48001 64.44 6.96001 63.96 7.56001 63.96C8.16001 63.96 8.64001 64.44 8.64001 65.04Z" fill="white"/>
<path d="M8.64001 65.04C8.64001 65.64 8.16001 66.12 7.56001 66.12C6.96001 66.12 6.48001 65.64 6.48001 65.04C6.48001 64.44 6.96001 63.96 7.56001 63.96C8.16001 63.96 8.64001 64.44 8.64001 65.04Z" stroke="black" stroke-width="0.12" stroke-linecap="square" stroke-linejoin="bevel"/>
<path fill-rule="evenodd" clip-rule="evenodd" d="M9.36001 72.24C9.36001 73.2 8.52001 74.04 7.56001 74.04C6.60001 74.04 5.76001 73.2 5.76001 72.24C5.76001 71.28 6.60001 70.44 7.56001 70.44C8.52001 70.44 9.36001 71.28 9.36001 72.24Z" fill="#62D987"/>
<path d="M9.36001 72.24C9.36001 73.2 8.52001 74.04 7.56001 74.04C6.60001 74.04 5.76001 73.2 5.76001 72.24C5.76001 71.28 6.60001 70.44 7.56001 70.44C8.52001 70.44 9.36001 71.28 9.36001 72.24Z" stroke="#62D987" stroke-width="0.12" stroke-linecap="round" stroke-linejoin="round"/>
<path fill-rule="evenodd" clip-rule="evenodd" d="M8.64001 72.24C8.64001 72.84 8.16001 73.32 7.56001 73.32C6.96001 73.32 6.48001 72.84 6.48001 72.24C6.48001 71.64 6.96001 71.16 7.56001 71.16C8.16001 71.16 8.64001 71.64 8.64001 72.24Z" fill="white"/>
<path d="M8.64001 72.24C8.64001 72.84 8.16001 73.32 7.56001 73.32C6.96001 73.32 6.48001 72.84 6.48001 72.24C6.48001 71.64 6.96001 71.16 7.56001 71.16C8.16001 71.16 8.64001 71.64 8.64001 72.24Z" stroke="black" stroke-width="0.12" stroke-linecap="square" stroke-linejoin="bevel"/>
<path fill-rule="evenodd" clip-rule="evenodd" d="M52.2 68.64C52.2 69.48 51.48 70.2 50.64 70.2C49.8 70.2 49.08 69.48 49.08 68.64C49.08 67.8 49.8 67.08 50.64 67.08C51.48 67.08 52.2 67.8 52.2 68.64Z" fill="#62D987"/>
<path d="M52.2 68.64C52.2 69.48 51.48 70.2 50.64 70.2C49.8 70.2 49.08 69.48 49.08 68.64C49.08 67.8 49.8 67.08 50.64 67.08C51.48 67.08 52.2 67.8 52.2 68.64Z" stroke="#62D987" stroke-width="0.12" stroke-linecap="round" stroke-linejoin="round"/>
<path fill-rule="evenodd" clip-rule="evenodd" d="M51.48 68.64C51.48 69.12 51.12 69.48 50.64 69.48C50.16 69.48 49.8 69.12 49.8 68.64C49.8 68.16 50.16 67.8 50.64 67.8C51.12 67.8 51.48 68.16 51.48 68.64Z" fill="white"/>
<path d="M51.48 68.64C51.48 69.12 51.12 69.48 50.64 69.48C50.16 69.48 49.8 69.12 49.8 68.64C49.8 68.16 50.16 67.8 50.64 67.8C51.12 67.8 51.48 68.16 51.48 68.64Z" stroke="black" stroke-width="0.12" stroke-linecap="square" stroke-linejoin="bevel"/>
<path fill-rule="evenodd" clip-rule="evenodd" d="M59.4 68.64C59.4 69.48 58.68 70.2 57.84 70.2C57 70.2 56.28 69.48 56.28 68.64C56.28 67.8 57 67.08 57.84 67.08C58.68 67.08 59.4 67.8 59.4 68.64Z" fill="#62D987"/>
<path d="M59.4 68.64C59.4 69.48 58.68 70.2 57.84 70.2C57 70.2 56.28 69.48 56.28 68.64C56.28 67.8 57 67.08 57.84 67.08C58.68 67.08 59.4 67.8 59.4 68.64Z" stroke="#62D987" stroke-width="0.12" stroke-linecap="round" stroke-linejoin="round"/>
<path fill-rule="evenodd" clip-rule="evenodd" d="M58.68 68.64C58.68 69.12 58.32 69.48 57.84 69.48C57.36 69.48 57 69.12 57 68.64C57 68.16 57.36 67.8 57.84 67.8C58.32 67.8 58.68 68.16 58.68 68.64Z" fill="white"/>
<path d="M58.68 68.64C58.68 69.12 58.32 69.48 57.84 69.48C57.36 69.48 57 69.12 57 68.64C57 68.16 57.36 67.8 57.84 67.8C58.32 67.8 58.68 68.16 58.68 68.64Z" stroke="black" stroke-width="0.12" stroke-linecap="square" stroke-linejoin="bevel"/>
<path fill-rule="evenodd" clip-rule="evenodd" d="M73.68 68.64C73.68 69.48 72.96 70.2 72.12 70.2C71.28 70.2 70.56 69.48 70.56 68.64C70.56 67.8 71.28 67.08 72.12 67.08C72.96 67.08 73.68 67.8 73.68 68.64Z" fill="#62D987"/>
<path d="M73.68 68.64C73.68 69.48 72.96 70.2 72.12 70.2C71.28 70.2 70.56 69.48 70.56 68.64C70.56 67.8 71.28 67.08 72.12 67.08C72.96 67.08 73.68 67.8 73.68 68.64Z" stroke="#62D987" stroke-width="0.12" stroke-linecap="round" stroke-linejoin="round"/>
<path fill-rule="evenodd" clip-rule="evenodd" d="M72.96 68.64C72.96 69.12 72.6 69.48 72.12 69.48C71.64 69.48 71.28 69.12 71.28 68.64C71.28 68.16 71.64 67.8 72.12 67.8C72.6 67.8 72.96 68.16 72.96 68.64Z" fill="white"/>
<path d="M72.96 68.64C72.96 69.12 72.6 69.48 72.12 69.48C71.64 69.48 71.28 69.12 71.28 68.64C71.28 68.16 71.64 67.8 72.12 67.8C72.6 67.8 72.96 68.16 72.96 68.64Z" stroke="black" stroke-width="0.12" stroke-linecap="square" stroke-linejoin="bevel"/>
<path fill-rule="evenodd" clip-rule="evenodd" d="M80.88 68.64C80.88 69.48 80.16 70.2 79.32 70.2C78.48 70.2 77.76 69.48 77.76 68.64C77.76 67.8 78.48 67.08 79.32 67.08C80.16 67.08 80.88 67.8 80.88 68.64Z" fill="#62D987"/>
<path d="M80.88 68.64C80.88 69.48 80.16 70.2 79.32 70.2C78.48 70.2 77.76 69.48 77.76 68.64C77.76 67.8 78.48 67.08 79.32 67.08C80.16 67.08 80.88 67.8 80.88 68.64Z" stroke="#62D987" stroke-width="0.12" stroke-linecap="round" stroke-linejoin="round"/>
<path fill-rule="evenodd" clip-rule="evenodd" d="M80.16 68.64C80.16 69.12 79.8 69.48 79.32 69.48C78.84 69.48 78.48 69.12 78.48 68.64C78.48 68.16 78.84 67.8 79.32 67.8C79.8 67.8 80.16 68.16 80.16 68.64Z" fill="white"/>
<path d="M80.16 68.64C80.16 69.12 79.8 69.48 79.32 69.48C78.84 69.48 78.48 69.12 78.48 68.64C78.48 68.16 78.84 67.8 79.32 67.8C79.8 67.8 80.16 68.16 80.16 68.64Z" stroke="black" stroke-width="0.12" stroke-linecap="square" stroke-linejoin="bevel"/>
<path fill-rule="evenodd" clip-rule="evenodd" d="M88.08 68.64C88.08 69.48 87.36 70.2 86.52 70.2C85.68 70.2 84.96 69.48 84.96 68.64C84.96 67.8 85.68 67.08 86.52 67.08C87.36 67.08 88.08 67.8 88.08 68.64Z" fill="#62D987"/>
<path d="M88.08 68.64C88.08 69.48 87.36 70.2 86.52 70.2C85.68 70.2 84.96 69.48 84.96 68.64C84.96 67.8 85.68 67.08 86.52 67.08C87.36 67.08 88.08 67.8 88.08 68.64Z" stroke="#62D987" stroke-width="0.12" stroke-linecap="round" stroke-linejoin="round"/>
<path fill-rule="evenodd" clip-rule="evenodd" d="M87.36 68.64C87.36 69.12 87 69.48 86.52 69.48C86.04 69.48 85.68 69.12 85.68 68.64C85.68 68.16 86.04 67.8 86.52 67.8C87 67.8 87.36 68.16 87.36 68.64Z" fill="white"/>
<path d="M87.36 68.64C87.36 69.12 87 69.48 86.52 69.48C86.04 69.48 85.68 69.12 85.68 68.64C85.68 68.16 86.04 67.8 86.52 67.8C87 67.8 87.36 68.16 87.36 68.64Z" stroke="black" stroke-width="0.12" stroke-linecap="square" stroke-linejoin="bevel"/>
<path fill-rule="evenodd" clip-rule="evenodd" d="M95.28 68.64C95.28 69.48 94.56 70.2 93.72 70.2C92.88 70.2 92.16 69.48 92.16 68.64C92.16 67.8 92.88 67.08 93.72 67.08C94.56 67.08 95.28 67.8 95.28 68.64Z" fill="#62D987"/>
<path d="M95.28 68.64C95.28 69.48 94.56 70.2 93.72 70.2C92.88 70.2 92.16 69.48 92.16 68.64C92.16 67.8 92.88 67.08 93.72 67.08C94.56 67.08 95.28 67.8 95.28 68.64Z" stroke="#62D987" stroke-width="0.12" stroke-linecap="round" stroke-linejoin="round"/>
<path fill-rule="evenodd" clip-rule="evenodd" d="M94.56 68.64C94.56 69.12 94.2 69.48 93.72 69.48C93.24 69.48 92.88 69.12 92.88 68.64C92.88 68.16 93.24 67.8 93.72 67.8C94.2 67.8 94.56 68.16 94.56 68.64Z" fill="white"/>
<path d="M94.56 68.64C94.56 69.12 94.2 69.48 93.72 69.48C93.24 69.48 92.88 69.12 92.88 68.64C92.88 68.16 93.24 67.8 93.72 67.8C94.2 67.8 94.56 68.16 94.56 68.64Z" stroke="black" stroke-width="0.12" stroke-linecap="square" stroke-linejoin="bevel"/>
<path fill-rule="evenodd" clip-rule="evenodd" d="M63.48 67.08H66.6V70.2H63.48V67.08Z" fill="#62D987"/>
<path d="M63.48 67.08H66.6V70.2H63.48V67.08Z" stroke="#62D987" stroke-width="0.12" stroke-linecap="round" stroke-linejoin="round"/>
<path fill-rule="evenodd" clip-rule="evenodd" d="M65.88 68.64C65.88 69.12 65.52 69.48 65.04 69.48C64.56 69.48 64.2 69.12 64.2 68.64C64.2 68.16 64.56 67.8 65.04 67.8C65.52 67.8 65.88 68.16 65.88 68.64Z" fill="white"/>
<path d="M65.88 68.64C65.88 69.12 65.52 69.48 65.04 69.48C64.56 69.48 64.2 69.12 64.2 68.64C64.2 68.16 64.56 67.8 65.04 67.8C65.52 67.8 65.88 68.16 65.88 68.64Z" stroke="black" stroke-width="0.12" stroke-linecap="square" stroke-linejoin="bevel"/>
<path fill-rule="evenodd" clip-rule="evenodd" d="M73.56 38.16C73.56 39.12 72.72 39.96 71.76 39.96C70.8 39.96 69.96 39.12 69.96 38.16C69.96 37.2 70.8 36.36 71.76 36.36C72.72 36.36 73.56 37.2 73.56 38.16Z" fill="#62D987"/>
<path d="M73.56 38.16C73.56 39.12 72.72 39.96 71.76 39.96C70.8 39.96 69.96 39.12 69.96 38.16C69.96 37.2 70.8 36.36 71.76 36.36C72.72 36.36 73.56 37.2 73.56 38.16Z" stroke="#62D987" stroke-width="0.12" stroke-linecap="round" stroke-linejoin="round"/>
<path fill-rule="evenodd" clip-rule="evenodd" d="M72.84 38.16C72.84 38.76 72.36 39.24 71.76 39.24C71.16 39.24 70.68 38.76 70.68 38.16C70.68 37.56 71.16 37.08 71.76 37.08C72.36 37.08 72.84 37.56 72.84 38.16Z" fill="white"/>
<path d="M72.84 38.16C72.84 38.76 72.36 39.24 71.76 39.24C71.16 39.24 70.68 38.76 70.68 38.16C70.68 37.56 71.16 37.08 71.76 37.08C72.36 37.08 72.84 37.56 72.84 38.16Z" stroke="black" stroke-width="0.12" stroke-linecap="square" stroke-linejoin="bevel"/>
<path fill-rule="evenodd" clip-rule="evenodd" d="M19.92 38.16C19.92 39.12 19.08 39.96 18.12 39.96C17.16 39.96 16.32 39.12 16.32 38.16C16.32 37.2 17.16 36.36 18.12 36.36C19.08 36.36 19.92 37.2 19.92 38.16Z" fill="#62D987"/>
<path d="M19.92 38.16C19.92 39.12 19.08 39.96 18.12 39.96C17.16 39.96 16.32 39.12 16.32 38.16C16.32 37.2 17.16 36.36 18.12 36.36C19.08 36.36 19.92 37.2 19.92 38.16Z" stroke="#62D987" stroke-width="0.12" stroke-linecap="round" stroke-linejoin="round"/>
<path fill-rule="evenodd" clip-rule="evenodd" d="M19.2 38.16C19.2 38.76 18.72 39.24 18.12 39.24C17.52 39.24 17.04 38.76 17.04 38.16C17.04 37.56 17.52 37.08 18.12 37.08C18.72 37.08 19.2 37.56 19.2 38.16Z" fill="white"/>
<path d="M19.2 38.16C19.2 38.76 18.72 39.24 18.12 39.24C17.52 39.24 17.04 38.76 17.04 38.16C17.04 37.56 17.52 37.08 18.12 37.08C18.72 37.08 19.2 37.56 19.2 38.16Z" stroke="black" stroke-width="0.12" stroke-linecap="square" stroke-linejoin="bevel"/>
<path fill-rule="evenodd" clip-rule="evenodd" d="M16.44 50.76C16.44 51.72 15.72 52.44 14.76 52.44C13.8 52.44 13.08 51.72 13.08 50.76C13.08 49.8 13.8 49.08 14.76 49.08C15.72 49.08 16.44 49.8 16.44 50.76Z" fill="#62D987"/>
<path d="M16.44 50.76C16.44 51.72 15.72 52.44 14.76 52.44C13.8 52.44 13.08 51.72 13.08 50.76C13.08 49.8 13.8 49.08 14.76 49.08C15.72 49.08 16.44 49.8 16.44 50.76Z" stroke="#62D987" stroke-width="0.12" stroke-linecap="round" stroke-linejoin="round"/>
<path fill-rule="evenodd" clip-rule="evenodd" d="M15.84 50.76C15.84 51.36 15.36 51.84 14.76 51.84C14.16 51.84 13.68 51.36 13.68 50.76C13.68 50.16 14.16 49.68 14.76 49.68C15.36 49.68 15.84 50.16 15.84 50.76Z" fill="white"/>
<path d="M15.84 50.76C15.84 51.36 15.36 51.84 14.76 51.84C14.16 51.84 13.68 51.36 13.68 50.76C13.68 50.16 14.16 49.68 14.76 49.68C15.36 49.68 15.84 50.16 15.84 50.76Z" stroke="black" stroke-width="0.12" stroke-linecap="square" stroke-linejoin="bevel"/>
<path fill-rule="evenodd" clip-rule="evenodd" d="M58.8 39.96C58.8 40.44 58.32 40.92 57.84 40.92C57.36 40.92 56.88 40.44 56.88 39.96C56.88 39.48 57.36 39 57.84 39C58.32 39 58.8 39.48 58.8 39.96Z" fill="#62D987"/>
<path d="M58.8 39.96C58.8 40.44 58.32 40.92 57.84 40.92C57.36 40.92 56.88 40.44 56.88 39.96C56.88 39.48 57.36 39 57.84 39C58.32 39 58.8 39.48 58.8 39.96Z" stroke="#62D987" stroke-width="0.12" stroke-linecap="round" stroke-linejoin="round"/>
<path fill-rule="evenodd" clip-rule="evenodd" d="M58.32 39.96C58.32 40.2 58.08 40.44 57.84 40.44C57.6 40.44 57.36 40.2 57.36 39.96C57.36 39.72 57.6 39.48 57.84 39.48C58.08 39.48 58.32 39.72 58.32 39.96Z" fill="white"/>
<path d="M58.32 39.96C58.32 40.2 58.08 40.44 57.84 40.44C57.6 40.44 57.36 40.2 57.36 39.96C57.36 39.72 57.6 39.48 57.84 39.48C58.08 39.48 58.32 39.72 58.32 39.96Z" stroke="black" stroke-width="0.12" stroke-linecap="square" stroke-linejoin="bevel"/>
<path fill-rule="evenodd" clip-rule="evenodd" d="M16.44 14.76C16.44 15.72 15.72 16.44 14.76 16.44C13.8 16.44 13.08 15.72 13.08 14.76C13.08 13.8 13.8 13.08 14.76 13.08C15.72 13.08 16.44 13.8 16.44 14.76Z" fill="#62D987"/>
<path d="M16.44 14.76C16.44 15.72 15.72 16.44 14.76 16.44C13.8 16.44 13.08 15.72 13.08 14.76C13.08 13.8 13.8 13.08 14.76 13.08C15.72 13.08 16.44 13.8 16.44 14.76Z" stroke="#62D987" stroke-width="0.12" stroke-linecap="round" stroke-linejoin="round"/>
<path fill-rule="evenodd" clip-rule="evenodd" d="M15.84 14.76C15.84 15.36 15.36 15.84 14.76 15.84C14.16 15.84 13.68 15.36 13.68 14.76C13.68 14.16 14.16 13.68 14.76 13.68C15.36 13.68 15.84 14.16 15.84 14.76Z" fill="white"/>
<path d="M15.84 14.76C15.84 15.36 15.36 15.84 14.76 15.84C14.16 15.84 13.68 15.36 13.68 14.76C13.68 14.16 14.16 13.68 14.76 13.68C15.36 13.68 15.84 14.16 15.84 14.76Z" stroke="black" stroke-width="0.12" stroke-linecap="square" stroke-linejoin="bevel"/>
<path fill-rule="evenodd" clip-rule="evenodd" d="M80.28 14.76C80.28 15.24 79.8 15.72 79.32 15.72C78.84 15.72 78.36 15.24 78.36 14.76C78.36 14.28 78.84 13.8 79.32 13.8C79.8 13.8 80.28 14.28 80.28 14.76Z" fill="#62D987"/>
<path d="M80.28 14.76C80.28 15.24 79.8 15.72 79.32 15.72C78.84 15.72 78.36 15.24 78.36 14.76C78.36 14.28 78.84 13.8 79.32 13.8C79.8 13.8 80.28 14.28 80.28 14.76Z" stroke="#62D987" stroke-width="0.12" stroke-linecap="round" stroke-linejoin="round"/>
<path fill-rule="evenodd" clip-rule="evenodd" d="M79.8 14.76C79.8 15 79.56 15.24 79.32 15.24C79.08 15.24 78.84 15 78.84 14.76C78.84 14.52 79.08 14.28 79.32 14.28C79.56 14.28 79.8 14.52 79.8 14.76Z" fill="white"/>
<path d="M79.8 14.76C79.8 15 79.56 15.24 79.32 15.24C79.08 15.24 78.84 15 78.84 14.76C78.84 14.52 79.08 14.28 79.32 14.28C79.56 14.28 79.8 14.52 79.8 14.76Z" stroke="black" stroke-width="0.12" stroke-linecap="square" stroke-linejoin="bevel"/>
<path fill-rule="evenodd" clip-rule="evenodd" d="M33.6 43.56C33.6 44.04 33.12 44.52 32.64 44.52C32.16 44.52 31.68 44.04 31.68 43.56C31.68 43.08 32.16 42.6 32.64 42.6C33.12 42.6 33.6 43.08 33.6 43.56Z" fill="#62D987"/>
<path d="M33.6 43.56C33.6 44.04 33.12 44.52 32.64 44.52C32.16 44.52 31.68 44.04 31.68 43.56C31.68 43.08 32.16 42.6 32.64 42.6C33.12 42.6 33.6 43.08 33.6 43.56Z" stroke="#62D987" stroke-width="0.12" stroke-linecap="round" stroke-linejoin="round"/>
<path fill-rule="evenodd" clip-rule="evenodd" d="M33.12 43.56C33.12 43.8 32.88 44.04 32.64 44.04C32.4 44.04 32.16 43.8 32.16 43.56C32.16 43.32 32.4 43.08 32.64 43.08C32.88 43.08 33.12 43.32 33.12 43.56Z" fill="white"/>
<path d="M33.12 43.56C33.12 43.8 32.88 44.04 32.64 44.04C32.4 44.04 32.16 43.8 32.16 43.56C32.16 43.32 32.4 43.08 32.64 43.08C32.88 43.08 33.12 43.32 33.12 43.56Z" stroke="black" stroke-width="0.12" stroke-linecap="square" stroke-linejoin="bevel"/>
<path fill-rule="evenodd" clip-rule="evenodd" d="M16.44 7.68C16.44 8.64 15.72 9.36 14.76 9.36C13.8 9.36 13.08 8.64 13.08 7.68C13.08 6.72 13.8 6 14.76 6C15.72 6 16.44 6.72 16.44 7.68Z" fill="#62D987"/>
<path d="M16.44 7.68C16.44 8.64 15.72 9.36 14.76 9.36C13.8 9.36 13.08 8.64 13.08 7.68C13.08 6.72 13.8 6 14.76 6C15.72 6 16.44 6.72 16.44 7.68Z" stroke="#62D987" stroke-width="0.12" stroke-linecap="round" stroke-linejoin="round"/>
<path fill-rule="evenodd" clip-rule="evenodd" d="M15.84 7.68001C15.84 8.28001 15.36 8.76001 14.76 8.76001C14.16 8.76001 13.68 8.28001 13.68 7.68001C13.68 7.08001 14.16 6.60001 14.76 6.60001C15.36 6.60001 15.84 7.08001 15.84 7.68001Z" fill="white"/>
<path d="M15.84 7.68001C15.84 8.28001 15.36 8.76001 14.76 8.76001C14.16 8.76001 13.68 8.28001 13.68 7.68001C13.68 7.08001 14.16 6.60001 14.76 6.60001C15.36 6.60001 15.84 7.08001 15.84 7.68001Z" stroke="black" stroke-width="0.12" stroke-linecap="square" stroke-linejoin="bevel"/>
<path fill-rule="evenodd" clip-rule="evenodd" d="M16.44 21.96C16.44 22.92 15.72 23.64 14.76 23.64C13.8 23.64 13.08 22.92 13.08 21.96C13.08 21 13.8 20.28 14.76 20.28C15.72 20.28 16.44 21 16.44 21.96Z" fill="#62D987"/>
<path d="M16.44 21.96C16.44 22.92 15.72 23.64 14.76 23.64C13.8 23.64 13.08 22.92 13.08 21.96C13.08 21 13.8 20.28 14.76 20.28C15.72 20.28 16.44 21 16.44 21.96Z" stroke="#62D987" stroke-width="0.12" stroke-linecap="round" stroke-linejoin="round"/>
<path fill-rule="evenodd" clip-rule="evenodd" d="M15.84 21.96C15.84 22.56 15.36 23.04 14.76 23.04C14.16 23.04 13.68 22.56 13.68 21.96C13.68 21.36 14.16 20.88 14.76 20.88C15.36 20.88 15.84 21.36 15.84 21.96Z" fill="white"/>
<path d="M15.84 21.96C15.84 22.56 15.36 23.04 14.76 23.04C14.16 23.04 13.68 22.56 13.68 21.96C13.68 21.36 14.16 20.88 14.76 20.88C15.36 20.88 15.84 21.36 15.84 21.96Z" stroke="black" stroke-width="0.12" stroke-linecap="square" stroke-linejoin="bevel"/>
<path fill-rule="evenodd" clip-rule="evenodd" d="M16.44 29.16C16.44 30.12 15.72 30.84 14.76 30.84C13.8 30.84 13.08 30.12 13.08 29.16C13.08 28.2 13.8 27.48 14.76 27.48C15.72 27.48 16.44 28.2 16.44 29.16Z" fill="#62D987"/>
<path d="M16.44 29.16C16.44 30.12 15.72 30.84 14.76 30.84C13.8 30.84 13.08 30.12 13.08 29.16C13.08 28.2 13.8 27.48 14.76 27.48C15.72 27.48 16.44 28.2 16.44 29.16Z" stroke="#62D987" stroke-width="0.12" stroke-linecap="round" stroke-linejoin="round"/>
<path fill-rule="evenodd" clip-rule="evenodd" d="M15.84 29.16C15.84 29.76 15.36 30.24 14.76 30.24C14.16 30.24 13.68 29.76 13.68 29.16C13.68 28.56 14.16 28.08 14.76 28.08C15.36 28.08 15.84 28.56 15.84 29.16Z" fill="white"/>
<path d="M15.84 29.16C15.84 29.76 15.36 30.24 14.76 30.24C14.16 30.24 13.68 29.76 13.68 29.16C13.68 28.56 14.16 28.08 14.76 28.08C15.36 28.08 15.84 28.56 15.84 29.16Z" stroke="black" stroke-width="0.12" stroke-linecap="square" stroke-linejoin="bevel"/>
<path fill-rule="evenodd" clip-rule="evenodd" d="M16.44 57.84C16.44 58.8 15.72 59.52 14.76 59.52C13.8 59.52 13.08 58.8 13.08 57.84C13.08 56.88 13.8 56.16 14.76 56.16C15.72 56.16 16.44 56.88 16.44 57.84Z" fill="#62D987"/>
<path d="M16.44 57.84C16.44 58.8 15.72 59.52 14.76 59.52C13.8 59.52 13.08 58.8 13.08 57.84C13.08 56.88 13.8 56.16 14.76 56.16C15.72 56.16 16.44 56.88 16.44 57.84Z" stroke="#62D987" stroke-width="0.12" stroke-linecap="round" stroke-linejoin="round"/>
<path fill-rule="evenodd" clip-rule="evenodd" d="M15.84 57.84C15.84 58.44 15.36 58.92 14.76 58.92C14.16 58.92 13.68 58.44 13.68 57.84C13.68 57.24 14.16 56.76 14.76 56.76C15.36 56.76 15.84 57.24 15.84 57.84Z" fill="white"/>
<path d="M15.84 57.84C15.84 58.44 15.36 58.92 14.76 58.92C14.16 58.92 13.68 58.44 13.68 57.84C13.68 57.24 14.16 56.76 14.76 56.76C15.36 56.76 15.84 57.24 15.84 57.84Z" stroke="black" stroke-width="0.12" stroke-linecap="square" stroke-linejoin="bevel"/>
<path d="M0.23999 0.360016L103.68 76.32" stroke="white" stroke-width="0.12" stroke-linecap="square" stroke-linejoin="bevel"/>
<path d="M103.68 0.360016L0.23999 76.32" stroke="white" stroke-width="0.12" stroke-linecap="square" stroke-linejoin="bevel"/>
<path d="M58.56 38.52H64.32" stroke="#AFD134" stroke-width="0.12" stroke-linecap="round" stroke-linejoin="round"/>
<path d="M61.44 41.4V35.64" stroke="#AFD134" stroke-width="0.12" stroke-linecap="round" stroke-linejoin="round"/>
<path d="M69 38.16H74.64" stroke="#AFD134" stroke-width="0.12" stroke-linecap="round" stroke-linejoin="round"/>
<path d="M71.76 41.04V35.28" stroke="#AFD134" stroke-width="0.12" stroke-linecap="round" stroke-linejoin="round"/>
<path d="M30.3979 40.3725L29.3742 37.4168H28.8574L30.1863 41H30.6046L31.9311 37.4168H31.4168L30.3979 40.3725ZM27.1421 39.078H26.1429V39.5087H27.1421V40.6407H27.5998V39.5087H28.599V39.078H27.5998V38.0321H27.1421V39.078Z" fill="white"/>
<path d="M95.3979 41.3725L94.3742 38.4168H93.8574L95.1863 42H95.6046L96.9311 38.4168H96.4168L95.3979 41.3725ZM92.1421 40.078H91.1429V40.5087H92.1421V41.6407H92.5998V40.5087H93.599V40.078H92.5998V39.0321H92.1421V40.078Z" fill="white"/>
<path d="M59.0614 21.53C58.94 21.7039 58.7702 21.8343 58.552 21.9212C58.3355 22.0066 58.0828 22.0492 57.794 22.0492C57.502 22.0492 57.2428 21.9811 57.0164 21.845C56.79 21.7071 56.6144 21.5119 56.4897 21.2593C56.3667 21.0066 56.3035 20.7137 56.3002 20.3807V20.0681C56.3002 19.5284 56.4257 19.11 56.6768 18.8131C56.9294 18.5161 57.2838 18.3676 57.7399 18.3676C58.114 18.3676 58.415 18.4636 58.6431 18.6556C58.8711 18.8459 59.0106 19.1166 59.0614 19.4677H58.5889C58.5003 18.9935 58.2181 18.7565 57.7424 18.7565C57.4257 18.7565 57.1854 18.868 57.0213 19.0911C56.8589 19.3126 56.7768 19.6342 56.7752 20.0558V20.3487C56.7752 20.7507 56.8671 21.0706 57.0508 21.3085C57.2346 21.5447 57.4831 21.6628 57.7965 21.6628C57.9737 21.6628 58.1287 21.6432 58.2616 21.6038C58.3945 21.5644 58.5044 21.498 58.5914 21.4044V20.5997H57.762V20.2158H59.0614V21.53ZM62.6052 22H62.1303L60.3264 19.2388V22H59.8514V18.4168H60.3264L62.1352 21.1903V18.4168H62.6052V22ZM63.4444 22V18.4168H64.4559C64.7676 18.4168 65.0432 18.4857 65.2827 18.6236C65.5223 18.7614 65.7068 18.9574 65.8365 19.2117C65.9677 19.466 66.0342 19.7581 66.0358 20.0878V20.3167C66.0358 20.6547 65.9702 20.9508 65.8389 21.2051C65.7093 21.4594 65.5231 21.6546 65.2803 21.7908C65.0391 21.927 64.7577 21.9967 64.4362 22H63.4444ZM63.9169 18.8057V21.6136H64.414C64.7782 21.6136 65.0613 21.5004 65.2631 21.274C65.4665 21.0476 65.5682 20.7252 65.5682 20.3069V20.0977C65.5682 19.6908 65.4722 19.375 65.2803 19.1502C65.09 18.9238 64.8193 18.809 64.4682 18.8057H63.9169Z" fill="white"/>
<path d="M89.76 38.52C89.76 54.12 77.04 66.84 61.44 66.84C45.84 66.84 33.12 54.12 33.12 38.52C33.12 22.92 45.84 10.2 61.44 10.2C77.04 10.2 89.76 22.92 89.76 38.52Z" stroke="#808080" stroke-width="0.36" stroke-linecap="round" stroke-linejoin="round"/>
<path d="M98.4 38.16C98.4 58.8 81.72 75.48 61.08 75.48C40.44 75.48 23.76 58.8 23.76 38.16C23.76 17.52 40.44 0.839996 61.08 0.839996C81.72 0.839996 98.4 17.52 98.4 38.16Z" stroke="#808080" stroke-width="0.36" stroke-linecap="round" stroke-linejoin="round"/>
<path d="M26.52 23.28L14.4 23.4" stroke="#808080" stroke-width="0.36" stroke-linecap="round" stroke-linejoin="round"/>
<path d="M14.4 23.4V52.92" stroke="#808080" stroke-width="0.36" stroke-linecap="round" stroke-linejoin="round"/>
<path d="M14.4 52.92H26.52" stroke="#808080" stroke-width="0.36" stroke-linecap="round" stroke-linejoin="round"/>
<path d="M0.360016 75.84H103.56" stroke="#62D986" stroke-width="0.12" stroke-linecap="round" stroke-linejoin="round"/>
<path d="M103.56 75.84V0.480011" stroke="#62D986" stroke-width="0.12" stroke-linecap="round" stroke-linejoin="round"/>
<path d="M103.56 0.480011H0.360016" stroke="#62D986" stroke-width="0.12" stroke-linecap="round" stroke-linejoin="round"/>
<path d="M0.360016 0.480011V75.84" stroke="#62D986" stroke-width="0.12" stroke-linecap="round" stroke-linejoin="round"/>
</svg>
