<?xml version="1.0" encoding="UTF-8" standalone="no"?>
<!DOCTYPE svg PUBLIC "-//W3C//DTD SVG 1.1//EN" "http://www.w3.org/Graphics/SVG/1.1/DTD/svg11.dtd">
<svg xmlns="http://www.w3.org/2000/svg" xmlns:xlink="http://www.w3.org/1999/xlink" version="1.1" width="841.92007pt" height="595.32pt" viewBox="0 0 841.92007 595.32">
<g enable-background="new">
<text xml:space="preserve" transform="matrix(.030762002 0 0 .030762002 0 0)" font-size="327.68" font-family="F1"><tspan y="19251.2" x="776.32 959.82089 1143.3217 1231.7953 1415.296 1598.7968 1690.5471 1874.0479 2054.272 2237.773 2421.274 2513.0245 2696.5255 2880.0264 2968.5 3152.001 3335.502 3423.9757 3515.726 3751.6558 3843.4063 3931.88 4171.0866 4354.587 4521.7038 4610.1774 4793.6779 4905.0895 4996.84 5180.3405 5363.841 5452.3146 5635.815 5875.0217 6074.9064 6258.4069 6441.907 6625.4079 6894.1057 7077.606 7241.446 7424.9465 7513.42 7696.9206 7880.421 8063.9216 8172.056 8355.557 8519.396 8607.87 8791.371 8902.782 8994.533 9178.034 9361.535 9545.036 9708.876 9892.377 10075.878 10239.718 10423.219 10531.353 10623.104 10806.6049 10990.105 11078.579 11262.08 11425.92 11609.421 11697.895 11861.734 12045.235 12228.736 12392.576 12576.077 12687.488 12867.713 12959.464 13142.965 13326.466 13414.939 13598.44 13706.574">14/02/2021 17:10  D:\Dev\nrf52\nRF52_Mesh\boards\nrf52_sensortag\pcb\sensor_tag.brd</tspan></text>
<clipPath id="cp0">
<path transform="matrix(.75,0,0,.75,0,0)" d="M 508.32 352.48 L 646.24 352.48 L 646.24 453.76 L 508.32 453.76 Z " fill-rule="evenodd"/>
</clipPath>
<g clip-path="url(#cp0)">
<path transform="matrix(.75,0,0,.75,0,0)" stroke-width=".16" stroke-linecap="square" stroke-linejoin="bevel" fill="none" stroke="#ffffff" d="M 508.32 352.48 L 646.24 453.76 "/>
<path transform="matrix(.75,0,0,.75,0,0)" stroke-width=".16" stroke-linecap="square" stroke-linejoin="bevel" fill="none" stroke="#ffffff" d="M 646.24 352.48 L 508.32 453.76 "/>
</g>
<clipPath id="cp1">
<path transform="matrix(.75,0,0,.75,0,0)" d="M 508.32 352.48 L 508.32 453.76 L 646.24 453.76 L 646.24 352.48 Z " fill-rule="evenodd"/>
</clipPath>
<g clip-path="url(#cp1)">
<path transform="matrix(.75,0,0,.75,451.32,312.96)" d="M 0 0 C 0 -1.28 1.12 -2.4 2.4 -2.4 C 3.68 -2.4 4.8 -1.28 4.8 0 L 4.8 4.8 C 4.8 6.08 3.68 7.2 2.4 7.2 C 1.12 7.2 0 6.08 0 4.8 L 0 0 Z " fill="#c90d0c" fill-rule="evenodd"/>
<path transform="matrix(.75,0,0,.75,451.32,312.96)" stroke-width=".16" stroke-linecap="round" stroke-linejoin="round" fill="none" stroke="#c90d0c" d="M 0 0 C 0 -1.28 1.12 -2.4 2.4 -2.4 C 3.68 -2.4 4.8 -1.28 4.8 0 L 4.8 4.8 C 4.8 6.08 3.68 7.2 2.4 7.2 C 1.12 7.2 0 6.08 0 4.8 L 0 0 Z "/>
<path transform="matrix(.75,0,0,.75,458.52,312.96)" d="M 0 0 C 0 -1.28 1.12 -2.4 2.4 -2.4 C 3.68 -2.4 4.8 -1.28 4.8 0 L 4.8 4.8 C 4.8 6.08 3.68 7.2 2.4 7.2 C 1.12 7.2 0 6.08 0 4.8 L 0 0 Z " fill="#c90d0c" fill-rule="evenodd"/>
<path transform="matrix(.75,0,0,.75,458.52,312.96)" stroke-width=".16" stroke-linecap="round" stroke-linejoin="round" fill="none" stroke="#c90d0c" d="M 0 0 C 0 -1.28 1.12 -2.4 2.4 -2.4 C 3.68 -2.4 4.8 -1.28 4.8 0 L 4.8 4.8 C 4.8 6.08 3.68 7.2 2.4 7.2 C 1.12 7.2 0 6.08 0 4.8 L 0 0 Z "/>
<path transform="matrix(.75,0,0,.75,465.72004,312.96)" d="M 0 0 C 0 -1.28 1.12 -2.4 2.4 -2.4 C 3.68 -2.4 4.8 -1.28 4.8 0 L 4.8 4.8 C 4.8 6.08 3.68 7.2 2.4 7.2 C 1.12 7.2 0 6.08 0 4.8 L 0 0 Z " fill="#c90d0c" fill-rule="evenodd"/>
<path transform="matrix(.75,0,0,.75,465.72004,312.96)" stroke-width=".16" stroke-linecap="round" stroke-linejoin="round" fill="none" stroke="#c90d0c" d="M 0 0 C 0 -1.28 1.12 -2.4 2.4 -2.4 C 3.68 -2.4 4.8 -1.28 4.8 0 L 4.8 4.8 C 4.8 6.08 3.68 7.2 2.4 7.2 C 1.12 7.2 0 6.08 0 4.8 L 0 0 Z "/>
<path transform="matrix(.75,0,0,.75,444.24,312.96)" d="M 0 0 C 0 -1.28 1.12 -2.4 2.4 -2.4 C 3.68 -2.4 4.8 -1.28 4.8 0 L 4.8 4.8 C 4.8 6.08 3.68 7.2 2.4 7.2 C 1.12 7.2 0 6.08 0 4.8 L 0 0 Z " fill="#c90d0c" fill-rule="evenodd"/>
<path transform="matrix(.75,0,0,.75,444.24,312.96)" stroke-width=".16" stroke-linecap="round" stroke-linejoin="round" fill="none" stroke="#c90d0c" d="M 0 0 C 0 -1.28 1.12 -2.4 2.4 -2.4 C 3.68 -2.4 4.8 -1.28 4.8 0 L 4.8 4.8 C 4.8 6.08 3.68 7.2 2.4 7.2 C 1.12 7.2 0 6.08 0 4.8 L 0 0 Z "/>
<path transform="matrix(.75,0,0,.75,437.03999,312.96)" d="M 0 0 C 0 -1.28 1.12 -2.4 2.4 -2.4 C 3.68 -2.4 4.8 -1.28 4.8 0 L 4.8 4.8 C 4.8 6.08 3.68 7.2 2.4 7.2 C 1.12 7.2 0 6.08 0 4.8 L 0 0 Z " fill="#c90d0c" fill-rule="evenodd"/>
<path transform="matrix(.75,0,0,.75,437.03999,312.96)" stroke-width=".16" stroke-linecap="round" stroke-linejoin="round" fill="none" stroke="#c90d0c" d="M 0 0 C 0 -1.28 1.12 -2.4 2.4 -2.4 C 3.68 -2.4 4.8 -1.28 4.8 0 L 4.8 4.8 C 4.8 6.08 3.68 7.2 2.4 7.2 C 1.12 7.2 0 6.08 0 4.8 L 0 0 Z "/>
<path transform="matrix(.75,0,0,.75,472.80003,306.48)" d="M 0 0 C 0 -1.28 1.12 -2.4 2.4 -2.4 L 7.2 -2.4 C 8.48 -2.4 9.6 -1.28 9.6 0 C 9.6 1.28 8.48 2.4 7.2 2.4 L 2.4 2.4 C 1.12 2.4 0 1.28 0 0 Z " fill="#c90d0c" fill-rule="evenodd"/>
<path transform="matrix(.75,0,0,.75,472.80003,306.48)" stroke-width=".16" stroke-linecap="round" stroke-linejoin="round" fill="none" stroke="#c90d0c" d="M 0 0 C 0 -1.28 1.12 -2.4 2.4 -2.4 L 7.2 -2.4 C 8.48 -2.4 9.6 -1.28 9.6 0 C 9.6 1.28 8.48 2.4 7.2 2.4 L 2.4 2.4 C 1.12 2.4 0 1.28 0 0 Z "/>
<path transform="matrix(.75,0,0,.75,472.80003,299.28)" d="M 0 0 C 0 -1.28 1.12 -2.4 2.4 -2.4 L 7.2 -2.4 C 8.48 -2.4 9.6 -1.28 9.6 0 C 9.6 1.28 8.48 2.4 7.2 2.4 L 2.4 2.4 C 1.12 2.4 0 1.28 0 0 Z " fill="#c90d0c" fill-rule="evenodd"/>
<path transform="matrix(.75,0,0,.75,472.80003,299.28)" stroke-width=".16" stroke-linecap="round" stroke-linejoin="round" fill="none" stroke="#c90d0c" d="M 0 0 C 0 -1.28 1.12 -2.4 2.4 -2.4 L 7.2 -2.4 C 8.48 -2.4 9.6 -1.28 9.6 0 C 9.6 1.28 8.48 2.4 7.2 2.4 L 2.4 2.4 C 1.12 2.4 0 1.28 0 0 Z "/>
<path transform="matrix(.75,0,0,.75,472.80003,292.2)" d="M 0 0 C 0 -1.28 1.12 -2.4 2.4 -2.4 L 7.2 -2.4 C 8.48 -2.4 9.6 -1.28 9.6 0 C 9.6 1.28 8.48 2.4 7.2 2.4 L 2.4 2.4 C 1.12 2.4 0 1.28 0 0 Z " fill="#c90d0c" fill-rule="evenodd"/>
<path transform="matrix(.75,0,0,.75,472.80003,292.2)" stroke-width=".16" stroke-linecap="round" stroke-linejoin="round" fill="none" stroke="#c90d0c" d="M 0 0 C 0 -1.28 1.12 -2.4 2.4 -2.4 L 7.2 -2.4 C 8.48 -2.4 9.6 -1.28 9.6 0 C 9.6 1.28 8.48 2.4 7.2 2.4 L 2.4 2.4 C 1.12 2.4 0 1.28 0 0 Z "/>
<path transform="matrix(.75,0,0,.75,472.80003,285)" d="M 0 0 C 0 -1.28 1.12 -2.4 2.4 -2.4 L 7.2 -2.4 C 8.48 -2.4 9.6 -1.28 9.6 0 C 9.6 1.28 8.48 2.4 7.2 2.4 L 2.4 2.4 C 1.12 2.4 0 1.28 0 0 Z " fill="#c90d0c" fill-rule="evenodd"/>
<path transform="matrix(.75,0,0,.75,472.80003,285)" stroke-width=".16" stroke-linecap="round" stroke-linejoin="round" fill="none" stroke="#c90d0c" d="M 0 0 C 0 -1.28 1.12 -2.4 2.4 -2.4 L 7.2 -2.4 C 8.48 -2.4 9.6 -1.28 9.6 0 C 9.6 1.28 8.48 2.4 7.2 2.4 L 2.4 2.4 C 1.12 2.4 0 1.28 0 0 Z "/>
<path transform="matrix(.75,0,0,.75,472.80003,277.8)" d="M 0 0 C 0 -1.28 1.12 -2.4 2.4 -2.4 L 7.2 -2.4 C 8.48 -2.4 9.6 -1.28 9.6 0 C 9.6 1.28 8.48 2.4 7.2 2.4 L 2.4 2.4 C 1.12 2.4 0 1.28 0 0 Z " fill="#c90d0c" fill-rule="evenodd"/>
<path transform="matrix(.75,0,0,.75,472.80003,277.8)" stroke-width=".16" stroke-linecap="round" stroke-linejoin="round" fill="none" stroke="#c90d0c" d="M 0 0 C 0 -1.28 1.12 -2.4 2.4 -2.4 L 7.2 -2.4 C 8.48 -2.4 9.6 -1.28 9.6 0 C 9.6 1.28 8.48 2.4 7.2 2.4 L 2.4 2.4 C 1.12 2.4 0 1.28 0 0 Z "/>
<path transform="matrix(.75,0,0,.75,426.36,307.56)" d="M 0 0 C 0 -1.28 1.12 -2.4 2.4 -2.4 L 7.2 -2.4 C 8.48 -2.4 9.6 -1.28 9.6 0 C 9.6 1.28 8.48 2.4 7.2 2.4 L 2.4 2.4 C 1.12 2.4 0 1.28 0 0 Z " fill="#c90d0c" fill-rule="evenodd"/>
<path transform="matrix(.75,0,0,.75,426.36,307.56)" stroke-width=".16" stroke-linecap="round" stroke-linejoin="round" fill="none" stroke="#c90d0c" d="M 0 0 C 0 -1.28 1.12 -2.4 2.4 -2.4 L 7.2 -2.4 C 8.48 -2.4 9.6 -1.28 9.6 0 C 9.6 1.28 8.48 2.4 7.2 2.4 L 2.4 2.4 C 1.12 2.4 0 1.28 0 0 Z "/>
<path transform="matrix(.75,0,0,.75,426.36,299.28)" d="M 0 0 C 0 -1.28 1.12 -2.4 2.4 -2.4 L 7.2 -2.4 C 8.48 -2.4 9.6 -1.28 9.6 0 C 9.6 1.28 8.48 2.4 7.2 2.4 L 2.4 2.4 C 1.12 2.4 0 1.28 0 0 Z " fill="#c90d0c" fill-rule="evenodd"/>
<path transform="matrix(.75,0,0,.75,426.36,299.28)" stroke-width=".16" stroke-linecap="round" stroke-linejoin="round" fill="none" stroke="#c90d0c" d="M 0 0 C 0 -1.28 1.12 -2.4 2.4 -2.4 L 7.2 -2.4 C 8.48 -2.4 9.6 -1.28 9.6 0 C 9.6 1.28 8.48 2.4 7.2 2.4 L 2.4 2.4 C 1.12 2.4 0 1.28 0 0 Z "/>
<path transform="matrix(.75,0,0,.75,426.36,292.2)" d="M 0 0 C 0 -1.28 1.12 -2.4 2.4 -2.4 L 7.2 -2.4 C 8.48 -2.4 9.6 -1.28 9.6 0 C 9.6 1.28 8.48 2.4 7.2 2.4 L 2.4 2.4 C 1.12 2.4 0 1.28 0 0 Z " fill="#c90d0c" fill-rule="evenodd"/>
<path transform="matrix(.75,0,0,.75,426.36,292.2)" stroke-width=".16" stroke-linecap="round" stroke-linejoin="round" fill="none" stroke="#c90d0c" d="M 0 0 C 0 -1.28 1.12 -2.4 2.4 -2.4 L 7.2 -2.4 C 8.48 -2.4 9.6 -1.28 9.6 0 C 9.6 1.28 8.48 2.4 7.2 2.4 L 2.4 2.4 C 1.12 2.4 0 1.28 0 0 Z "/>
<path transform="matrix(.75,0,0,.75,426.36,285)" d="M 0 0 C 0 -1.28 1.12 -2.4 2.4 -2.4 L 7.2 -2.4 C 8.48 -2.4 9.6 -1.28 9.6 0 C 9.6 1.28 8.48 2.4 7.2 2.4 L 2.4 2.4 C 1.12 2.4 0 1.28 0 0 Z " fill="#c90d0c" fill-rule="evenodd"/>
<path transform="matrix(.75,0,0,.75,426.36,285)" stroke-width=".16" stroke-linecap="round" stroke-linejoin="round" fill="none" stroke="#c90d0c" d="M 0 0 C 0 -1.28 1.12 -2.4 2.4 -2.4 L 7.2 -2.4 C 8.48 -2.4 9.6 -1.28 9.6 0 C 9.6 1.28 8.48 2.4 7.2 2.4 L 2.4 2.4 C 1.12 2.4 0 1.28 0 0 Z "/>
<path transform="matrix(.75,0,0,.75,426.36,277.8)" d="M 0 0 C 0 -1.28 1.12 -2.4 2.4 -2.4 L 7.2 -2.4 C 8.48 -2.4 9.6 -1.28 9.6 0 C 9.6 1.28 8.48 2.4 7.2 2.4 L 2.4 2.4 C 1.12 2.4 0 1.28 0 0 Z " fill="#c90d0c" fill-rule="evenodd"/>
<path transform="matrix(.75,0,0,.75,426.36,277.8)" stroke-width=".16" stroke-linecap="round" stroke-linejoin="round" fill="none" stroke="#c90d0c" d="M 0 0 C 0 -1.28 1.12 -2.4 2.4 -2.4 L 7.2 -2.4 C 8.48 -2.4 9.6 -1.28 9.6 0 C 9.6 1.28 8.48 2.4 7.2 2.4 L 2.4 2.4 C 1.12 2.4 0 1.28 0 0 Z "/>
<path transform="matrix(.75,0,0,.75,0,0)" stroke-width="1.6" stroke-linecap="round" stroke-linejoin="round" fill="none" stroke="#c90d0c" d="M 632.96 443.52 L 628.16 433.92 "/>
<path transform="matrix(.75,0,0,.75,0,0)" stroke-width="1.6" stroke-linecap="round" stroke-linejoin="round" fill="none" stroke="#c90d0c" d="M 628.16 433.92 L 628.16 381.28 "/>
<path transform="matrix(.75,0,0,.75,0,0)" stroke-width="1.6" stroke-linecap="round" stroke-linejoin="round" fill="none" stroke="#c90d0c" d="M 628.16 381.28 L 629.6 380 "/>
<path transform="matrix(.75,0,0,.75,0,0)" stroke-width="1.6" stroke-linecap="round" stroke-linejoin="round" fill="none" stroke="#c90d0c" d="M 629.6 380 L 635.2 380 "/>
<path transform="matrix(.75,0,0,.75,0,0)" stroke-width="1.6" stroke-linecap="round" stroke-linejoin="round" fill="none" stroke="#c90d0c" d="M 623.36 443.52 L 618.56 433.92 "/>
<path transform="matrix(.75,0,0,.75,0,0)" stroke-width="1.6" stroke-linecap="round" stroke-linejoin="round" fill="none" stroke="#c90d0c" d="M 618.56 433.92 L 618.56 381.28 "/>
<path transform="matrix(.75,0,0,.75,0,0)" stroke-width="1.6" stroke-linecap="round" stroke-linejoin="round" fill="none" stroke="#c90d0c" d="M 618.56 381.28 L 629.6 370.4 "/>
<path transform="matrix(.75,0,0,.75,0,0)" stroke-width="1.6" stroke-linecap="round" stroke-linejoin="round" fill="none" stroke="#c90d0c" d="M 629.6 370.4 L 635.2 370.4 "/>
<path transform="matrix(.75,0,0,.75,0,0)" d="M 642.88 449.12 L 643.2 448.96 L 643.36 448.64 L 643.36 448.32 L 643.36 357.44 L 643.36 357.12 L 643.2 356.8 L 642.88 356.64 L 642.56 356.48 L 528.8 356.48 L 528.48 356.64 L 528.16 356.8 L 528 357.12 L 527.84 357.44 L 528 357.76 L 528.16 358.08 L 528.48 358.24 L 529.92 358.72 L 531.04 359.84 L 531.68 361.44 L 531.68 363.04 L 531.04 364.48 L 529.92 365.6 L 528.48 366.08 L 526.88 366.08 L 525.44 365.6 L 524.32 364.48 L 523.84 363.52 L 523.68 363.36 L 523.36 363.04 L 523.04 363.04 L 522.72 363.2 L 522.4 363.36 L 522.24 363.52 L 521.92 364.48 L 520.8 365.76 L 519.2 366.4 L 518.4 366.4 L 518.08 366.4 L 517.92 366.56 L 517.6 366.88 L 517.44 367.2 L 517.44 367.52 L 517.44 367.84 L 517.44 375.04 L 517.12 375.04 L 516.8 375.04 L 516.64 375.36 L 516.32 375.52 L 516.32 375.84 L 516.32 376.32 L 516.48 376.64 L 516.64 376.96 L 516.96 377.12 L 517.28 377.12 L 517.6 377.12 L 519.2 377.12 L 520.8 377.76 L 521.12 378.24 L 521.44 378.4 L 521.76 378.4 L 524.48 378.4 L 524.8 378.4 L 525.12 378.24 L 525.44 377.92 L 526.88 377.28 L 528.48 377.28 L 529.92 377.92 L 530.08 378.24 L 530.4 378.4 L 530.72 378.4 L 530.88 378.4 L 531.2 378.4 L 531.52 378.24 L 541.76 368 L 542.72 367.52 L 567.68 367.52 L 568 367.52 L 568.16 367.2 L 568.64 366.88 L 570.08 366.24 L 576.48 366.24 L 578.08 366.88 L 579.2 368 L 579.84 369.6 L 579.84 371.2 L 579.2 372.8 L 578.08 373.92 L 576.8 374.4 L 576.48 374.56 L 576.32 374.88 L 576.32 375.2 L 576.32 375.52 L 576.64 375.84 L 576.8 376 L 578.08 376.48 L 579.2 377.6 L 579.84 379.2 L 579.84 380.8 L 579.2 382.24 L 578.08 383.52 L 576.8 384 L 576.48 384.16 L 576.32 384.48 L 576.32 384.8 L 576.32 385.12 L 576.64 385.44 L 576.8 385.6 L 578.08 386.08 L 579.2 387.2 L 579.84 388.64 L 579.84 390.4 L 579.2 391.84 L 578.08 392.96 L 576.48 393.6 L 570.08 393.6 L 568.64 392.96 L 568.16 392.64 L 568 392.48 L 567.68 392.48 L 551.2 392.48 L 550.88 392.48 L 550.56 392.64 L 550.24 393.12 L 549.6 395.84 L 549.6 396.16 L 549.6 406.4 L 549.76 406.72 L 549.92 407.04 L 550.24 407.2 L 550.56 407.2 L 550.88 407.2 L 551.04 407.04 L 552.16 407.04 L 552.48 407.2 L 567.68 407.2 L 568 407.04 L 568.16 406.88 L 568.64 406.56 L 570.08 405.92 L 576.48 405.92 L 578.08 406.56 L 578.4 406.88 L 578.72 407.04 L 579.04 407.2 L 601.12 407.2 L 601.44 407.04 L 601.76 406.88 L 601.92 406.56 L 602.08 406.24 L 601.92 405.92 L 601.76 405.76 L 600.8 404.8 L 600.48 403.68 L 604.64 403.68 L 604.64 399.52 L 605.28 399.84 L 605.6 399.84 L 606.08 399.84 L 606.24 399.68 L 606.4 399.36 L 606.56 399.04 L 606.56 371.2 L 606.88 370.4 L 607.68 369.6 L 608.48 369.28 L 611.84 369.28 L 612.32 369.12 L 613.28 368.8 L 614.4 368.8 L 615.52 369.28 L 616.32 370.08 L 616.8 371.2 L 616.8 372.32 L 616.32 373.44 L 615.52 374.24 L 614.4 374.72 L 613.28 374.72 L 612.64 374.56 L 612.32 374.4 L 612 374.56 L 611.68 374.72 L 611.52 375.04 L 611.52 375.36 L 611.52 408.32 L 611.52 408.64 L 611.84 409.44 L 611.84 410.56 L 611.52 411.36 L 611.52 411.68 L 611.52 412.48 L 611.52 412.8 L 611.84 413.12 L 612 413.28 L 612.48 413.28 L 612.64 413.28 L 612.96 413.12 L 614.56 413.12 L 614.88 413.28 L 615.2 413.28 L 615.52 413.28 L 615.84 412.96 L 616 412.8 L 616.16 412.48 L 616.16 380.8 L 616.48 379.84 L 628.16 368.32 L 628.96 367.84 L 629.12 367.84 L 629.44 367.84 L 629.6 367.68 L 630.4 366.88 L 632 366.24 L 638.4 366.24 L 639.84 366.88 L 640.96 368 L 641.6 369.6 L 641.6 371.2 L 640.96 372.8 L 639.84 373.92 L 638.72 374.4 L 638.4 374.56 L 638.24 374.88 L 638.08 375.2 L 638.24 375.52 L 638.4 375.84 L 638.72 376 L 639.84 376.48 L 640.96 377.6 L 641.6 379.2 L 641.6 380.8 L 640.96 382.24 L 639.84 383.52 L 638.72 384 L 638.4 384.16 L 638.24 384.48 L 638.08 384.8 L 638.24 385.12 L 638.4 385.44 L 638.72 385.6 L 639.84 386.08 L 640.96 387.2 L 641.6 388.64 L 641.6 390.4 L 640.96 391.84 L 639.84 392.96 L 638.72 393.6 L 638.4 393.76 L 638.24 394.08 L 638.08 394.4 L 638.24 394.72 L 638.4 394.88 L 638.72 395.04 L 639.84 395.68 L 640.96 396.8 L 641.6 398.24 L 641.6 400 L 640.96 401.44 L 639.84 402.56 L 638.72 403.04 L 638.4 403.36 L 638.24 403.52 L 638.08 403.84 L 638.24 404.32 L 638.4 404.48 L 638.72 404.64 L 639.84 405.12 L 640.96 406.4 L 641.6 407.84 L 641.6 409.44 L 640.96 411.04 L 639.84 412.16 L 638.4 412.8 L 632 412.8 L 631.84 412.8 L 631.52 412.64 L 631.2 412.8 L 630.88 412.96 L 630.72 413.28 L 630.72 413.6 L 630.72 433.12 L 630.72 433.6 L 633.76 439.52 L 633.92 439.84 L 634.24 440 L 635.2 440.32 L 636.16 441.44 L 636.8 442.72 L 636.8 444.32 L 636.16 445.76 L 635.2 446.72 L 633.76 447.36 L 632.16 447.36 L 630.88 446.72 L 629.76 445.76 L 629.12 444.32 L 629.12 442.72 L 629.28 442.4 L 629.28 442.08 L 629.28 441.76 L 626.24 435.52 L 626.08 435.36 L 625.92 435.04 L 625.76 434.56 L 625.76 434.08 L 625.6 433.6 L 625.76 433.44 L 625.76 426.88 L 625.6 426.4 L 625.44 426.24 L 625.12 425.92 L 624.8 425.92 L 624.48 426.08 L 624.16 426.08 L 622.56 426.08 L 622.24 426.08 L 621.92 425.92 L 621.6 426.08 L 621.28 426.24 L 621.12 426.56 L 621.12 426.88 L 621.12 433.12 L 621.12 433.6 L 624.16 439.52 L 624.32 439.84 L 624.64 440 L 625.6 440.32 L 626.56 441.44 L 627.2 442.72 L 627.2 444.32 L 626.56 445.76 L 625.6 446.72 L 624.16 447.36 L 622.56 447.36 L 621.28 446.72 L 620.16 445.76 L 619.52 444.32 L 619.52 442.72 L 619.68 442.4 L 619.84 442.08 L 619.68 441.76 L 616.64 435.52 L 616.48 435.36 L 616.32 435.04 L 616.16 434.56 L 616.16 434.08 L 616 433.6 L 616.16 433.44 L 616.16 426.88 L 616 426.4 L 615.84 426.24 L 615.52 425.92 L 615.2 425.92 L 614.88 426.08 L 614.56 426.08 L 612.96 426.08 L 612.64 426.08 L 612.32 425.92 L 612 426.08 L 611.68 426.24 L 611.52 426.56 L 611.52 426.88 L 611.52 433.12 L 611.68 433.6 L 614.56 439.52 L 614.72 439.84 L 615.04 440 L 616 440.32 L 617.12 441.44 L 617.6 442.72 L 617.6 444.32 L 617.12 445.76 L 616 446.72 L 614.56 447.36 L 613.12 447.36 L 611.68 446.72 L 610.56 445.76 L 609.92 444.32 L 609.92 442.72 L 610.08 442.4 L 610.24 442.08 L 610.08 441.76 L 607.04 435.52 L 606.88 435.36 L 606.72 435.04 L 606.56 434.56 L 606.56 434.08 L 606.56 433.6 L 606.56 433.44 L 606.56 426.88 L 606.4 426.4 L 606.24 426.24 L 605.92 425.92 L 605.6 425.92 L 605.28 426.08 L 605.12 426.08 L 603.36 426.08 L 601.92 425.44 L 600.8 424.32 L 600.32 423.2 L 600 422.88 L 599.84 422.72 L 599.36 422.56 L 599.04 422.72 L 598.88 422.88 L 598.72 423.2 L 598.08 424.32 L 597.76 424.64 L 597.6 424.96 L 597.6 425.28 L 597.6 434.56 L 597.12 435.68 L 593.6 439.04 L 593.44 439.36 L 593.44 439.68 L 593.44 440 L 593.76 440.32 L 593.76 442.72 L 591.52 442.72 L 591.36 442.56 L 591.04 442.4 L 590.72 442.24 L 590.4 442.4 L 590.08 442.56 L 589.12 443.52 L 588.96 443.84 L 588.96 444.16 L 588.96 444.32 L 588.32 445.76 L 587.2 446.72 L 585.92 447.36 L 584.32 447.36 L 582.88 446.72 L 581.92 445.76 L 581.28 444.32 L 581.28 444 L 581.28 443.52 L 580.96 443.36 L 580.8 443.2 L 580.32 443.04 L 580 443.2 L 579.84 443.36 L 579.52 443.52 L 579.36 443.84 L 579.36 444.16 L 579.36 444.32 L 578.72 445.76 L 577.6 446.72 L 576.32 447.36 L 574.72 447.36 L 573.28 446.72 L 572.32 445.76 L 571.68 444.32 L 571.68 442.72 L 572.32 441.44 L 573.28 440.32 L 574.72 439.68 L 574.88 439.68 L 575.2 439.68 L 575.52 439.52 L 581.92 432.96 L 582.08 432.8 L 582.24 432.48 L 582.24 425.28 L 582.08 424.96 L 581.92 424.64 L 581.6 424.32 L 580.96 422.88 L 580.96 416.48 L 581.6 414.88 L 582.08 414.4 L 582.24 414.08 L 582.4 413.76 L 582.24 413.44 L 582.08 413.12 L 581.76 412.96 L 581.44 412.96 L 579.04 412.96 L 578.72 412.96 L 578.4 413.12 L 578.08 413.6 L 576.48 414.08 L 570.08 414.08 L 568.64 413.6 L 568.16 413.12 L 568 412.96 L 567.68 412.96 L 552.48 412.96 L 552.16 412.96 L 551.04 412.96 L 550.88 412.96 L 550.56 412.8 L 550.24 412.96 L 549.92 413.12 L 549.76 413.44 L 549.6 413.76 L 549.6 429.76 L 549.28 430.88 L 532.32 447.68 L 532.16 448 L 532 448.32 L 532.16 448.64 L 532.32 448.96 L 532.64 449.12 L 532.96 449.12 L 642.56 449.12 L 642.88 449.12 Z M 519.2 370.88 L 519.2 368.48 L 520.32 368.8 L 521.28 369.76 L 521.76 370.88 L 519.2 370.88 Z M 519.2 372.64 L 521.76 372.64 L 521.28 373.76 L 520.32 374.72 L 519.2 375.04 L 519.2 372.64 Z M 567.68 398.24 L 568.16 397.28 L 568.96 396.32 L 570.24 395.68 L 572.48 395.68 L 572.48 398.24 L 567.68 398.24 Z M 574.24 398.24 L 574.24 395.68 L 576.32 395.68 L 577.6 396.32 L 578.56 397.28 L 579.04 398.24 L 574.24 398.24 Z M 600.48 401.92 L 600.8 400.96 L 601.76 400 L 602.88 399.52 L 602.88 401.92 L 600.48 401.92 Z M 574.24 402.4 L 574.24 400 L 579.04 400 L 578.56 400.96 L 577.6 401.92 L 576.32 402.4 L 574.24 402.4 Z M 570.24 402.4 L 568.96 401.92 L 568.16 400.96 L 567.68 400 L 572.48 400 L 572.48 402.4 L 570.24 402.4 Z M 595.52 442.72 L 595.52 440.48 L 597.12 440.48 L 597.76 441.12 L 597.76 442.72 L 595.52 442.72 Z M 601.28 442.72 L 601.6 441.76 L 602.56 440.96 L 603.36 440.64 L 603.36 442.72 L 601.28 442.72 Z M 605.12 442.72 L 605.12 440.64 L 605.92 440.96 L 606.88 441.76 L 607.2 442.72 L 605.12 442.72 Z M 605.12 444.48 L 607.2 444.48 L 606.88 445.28 L 605.92 446.08 L 605.12 446.56 L 605.12 444.48 Z M 602.56 446.08 L 601.6 445.28 L 601.28 444.48 L 603.36 444.48 L 603.36 446.56 L 602.56 446.08 Z M 595.52 446.56 L 595.52 444.48 L 597.76 444.48 L 597.76 446.08 L 597.12 446.56 L 595.52 446.56 Z M 592.16 446.56 L 591.68 446.08 L 591.68 444.48 L 593.76 444.48 L 593.76 446.56 L 592.16 446.56 Z M 532.8 429.44 L 533.12 429.28 L 538.88 423.52 L 539.04 423.2 L 539.2 422.88 L 539.2 394.56 L 539.04 394.24 L 538.88 394.08 L 538.56 393.76 L 538.24 393.76 L 530.72 393.76 L 530.4 393.76 L 530.08 394.08 L 529.92 394.24 L 528.48 394.88 L 526.88 394.88 L 525.44 394.24 L 525.12 394.08 L 524.8 393.76 L 524.48 393.76 L 521.76 393.76 L 521.44 393.76 L 521.12 394.08 L 520.8 394.4 L 519.2 395.04 L 517.6 395.04 L 517.12 395.04 L 516.8 395.04 L 516.64 395.36 L 516.32 395.52 L 516.32 395.84 L 516.32 399.84 L 516.48 400.16 L 518.08 403.68 L 518.4 404 L 518.72 404.16 L 519.04 404.16 L 519.36 404.16 L 519.52 404 L 523.36 400.16 L 524.64 399.68 L 529.12 399.68 L 529.44 399.52 L 529.76 399.36 L 531.36 398.72 L 532.96 398.72 L 534.56 399.36 L 535.68 400.48 L 536.32 402.08 L 536.32 403.68 L 535.68 405.28 L 534.56 406.4 L 532.96 407.04 L 531.36 407.04 L 529.76 406.4 L 529.44 406.24 L 529.12 406.08 L 526.88 406.08 L 526.56 406.24 L 526.4 406.4 L 522.56 410.24 L 522.24 410.56 L 522.24 410.88 L 521.6 412.48 L 520.48 413.6 L 518.88 414.24 L 517.28 414.24 L 515.68 413.6 L 514.56 412.48 L 514.08 411.36 L 513.92 411.04 L 513.6 410.88 L 513.28 410.88 L 512.96 410.88 L 512.64 411.04 L 512.48 411.36 L 512.48 411.68 L 512.48 427.52 L 512.48 427.84 L 512.64 428.16 L 512.96 428.32 L 513.28 428.48 L 513.6 428.32 L 513.92 428.16 L 514.08 427.84 L 514.56 426.88 L 515.68 425.6 L 517.28 424.96 L 518.88 424.96 L 520.48 425.6 L 521.6 426.88 L 522.08 428.16 L 522.4 428.48 L 522.56 428.64 L 523.04 428.64 L 523.36 428.64 L 523.52 428.32 L 523.68 428.16 L 524.32 426.88 L 525.44 425.76 L 526.88 425.28 L 528.48 425.28 L 529.92 425.76 L 531.04 426.88 L 531.68 428.32 L 531.68 428.64 L 531.68 428.96 L 531.84 429.28 L 532.16 429.44 L 532.48 429.44 L 532.8 429.44 Z M 514.72 418.72 L 515.2 417.6 L 516.16 416.64 L 517.12 416.32 L 517.12 418.72 L 514.72 418.72 Z M 518.88 418.72 L 518.88 416.32 L 520 416.64 L 520.96 417.6 L 521.44 418.72 L 518.88 418.72 Z M 518.88 420.48 L 521.44 420.48 L 520.96 421.6 L 520 422.56 L 518.88 423.04 L 518.88 420.48 Z M 516.16 422.56 L 515.2 421.6 L 514.72 420.48 L 517.12 420.48 L 517.12 423.04 L 516.16 422.56 Z " fill="#c90d0c" fill-rule="evenodd"/>
<path transform="matrix(.75,0,0,.75,0,0)" stroke-width=".16" stroke-linecap="round" stroke-linejoin="round" fill="none" stroke="#c90d0c" d="M 642.88 449.12 L 643.2 448.96 L 643.36 448.64 L 643.36 448.32 L 643.36 357.44 L 643.36 357.12 L 643.2 356.8 L 642.88 356.64 L 642.56 356.48 L 528.8 356.48 L 528.48 356.64 L 528.16 356.8 L 528 357.12 L 527.84 357.44 L 528 357.76 L 528.16 358.08 L 528.48 358.24 L 529.92 358.72 L 531.04 359.84 L 531.68 361.44 L 531.68 363.04 L 531.04 364.48 L 529.92 365.6 L 528.48 366.08 L 526.88 366.08 L 525.44 365.6 L 524.32 364.48 L 523.84 363.52 L 523.68 363.36 L 523.36 363.04 L 523.04 363.04 L 522.72 363.2 L 522.4 363.36 L 522.24 363.52 L 521.92 364.48 L 520.8 365.76 L 519.2 366.4 L 518.4 366.4 L 518.08 366.4 L 517.92 366.56 L 517.6 366.88 L 517.44 367.2 L 517.44 367.52 L 517.44 367.84 L 517.44 375.04 L 517.12 375.04 L 516.8 375.04 L 516.64 375.36 L 516.32 375.52 L 516.32 375.84 L 516.32 376.32 L 516.48 376.64 L 516.64 376.96 L 516.96 377.12 L 517.28 377.12 L 517.6 377.12 L 519.2 377.12 L 520.8 377.76 L 521.12 378.24 L 521.44 378.4 L 521.76 378.4 L 524.48 378.4 L 524.8 378.4 L 525.12 378.24 L 525.44 377.92 L 526.88 377.28 L 528.48 377.28 L 529.92 377.92 L 530.08 378.24 L 530.4 378.4 L 530.72 378.4 L 530.88 378.4 L 531.2 378.4 L 531.52 378.24 L 541.76 368 L 542.72 367.52 L 567.68 367.52 L 568 367.52 L 568.16 367.2 L 568.64 366.88 L 570.08 366.24 L 576.48 366.24 L 578.08 366.88 L 579.2 368 L 579.84 369.6 L 579.84 371.2 L 579.2 372.8 L 578.08 373.92 L 576.8 374.4 L 576.48 374.56 L 576.32 374.88 L 576.32 375.2 L 576.32 375.52 L 576.64 375.84 L 576.8 376 L 578.08 376.48 L 579.2 377.6 L 579.84 379.2 L 579.84 380.8 L 579.2 382.24 L 578.08 383.52 L 576.8 384 L 576.48 384.16 L 576.32 384.48 L 576.32 384.8 L 576.32 385.12 L 576.64 385.44 L 576.8 385.6 L 578.08 386.08 L 579.2 387.2 L 579.84 388.64 L 579.84 390.4 L 579.2 391.84 L 578.08 392.96 L 576.48 393.6 L 570.08 393.6 L 568.64 392.96 L 568.16 392.64 L 568 392.48 L 567.68 392.48 L 551.2 392.48 L 550.88 392.48 L 550.56 392.64 L 550.24 393.12 L 549.6 395.84 L 549.6 396.16 L 549.6 406.4 L 549.76 406.72 L 549.92 407.04 L 550.24 407.2 L 550.56 407.2 L 550.88 407.2 L 551.04 407.04 L 552.16 407.04 L 552.48 407.2 L 567.68 407.2 L 568 407.04 L 568.16 406.88 L 568.64 406.56 L 570.08 405.92 L 576.48 405.92 L 578.08 406.56 L 578.4 406.88 L 578.72 407.04 L 579.04 407.2 L 601.12 407.2 L 601.44 407.04 L 601.76 406.88 L 601.92 406.56 L 602.08 406.24 L 601.92 405.92 L 601.76 405.76 L 600.8 404.8 L 600.48 403.68 L 604.64 403.68 L 604.64 399.52 L 605.28 399.84 L 605.6 399.84 L 606.08 399.84 L 606.24 399.68 L 606.4 399.36 L 606.56 399.04 L 606.56 371.2 L 606.88 370.4 L 607.68 369.6 L 608.48 369.28 L 611.84 369.28 L 612.32 369.12 L 613.28 368.8 L 614.4 368.8 L 615.52 369.28 L 616.32 370.08 L 616.8 371.2 L 616.8 372.32 L 616.32 373.44 L 615.52 374.24 L 614.4 374.72 L 613.28 374.72 L 612.64 374.56 L 612.32 374.4 L 612 374.56 L 611.68 374.72 L 611.52 375.04 L 611.52 375.36 L 611.52 408.32 L 611.52 408.64 L 611.84 409.44 L 611.84 410.56 L 611.52 411.36 L 611.52 411.68 L 611.52 412.48 L 611.52 412.8 L 611.84 413.12 L 612 413.28 L 612.48 413.28 L 612.64 413.28 L 612.96 413.12 L 614.56 413.12 L 614.88 413.28 L 615.2 413.28 L 615.52 413.28 L 615.84 412.96 L 616 412.8 L 616.16 412.48 L 616.16 380.8 L 616.48 379.84 L 628.16 368.32 L 628.96 367.84 L 629.12 367.84 L 629.44 367.84 L 629.6 367.68 L 630.4 366.88 L 632 366.24 L 638.4 366.24 L 639.84 366.88 L 640.96 368 L 641.6 369.6 L 641.6 371.2 L 640.96 372.8 L 639.84 373.92 L 638.72 374.4 L 638.4 374.56 L 638.24 374.88 L 638.08 375.2 L 638.24 375.52 L 638.4 375.84 L 638.72 376 L 639.84 376.48 L 640.96 377.6 L 641.6 379.2 L 641.6 380.8 L 640.96 382.24 L 639.84 383.52 L 638.72 384 L 638.4 384.16 L 638.24 384.48 L 638.08 384.8 L 638.24 385.12 L 638.4 385.44 L 638.72 385.6 L 639.84 386.08 L 640.96 387.2 L 641.6 388.64 L 641.6 390.4 L 640.96 391.84 L 639.84 392.96 L 638.72 393.6 L 638.4 393.76 L 638.24 394.08 L 638.08 394.4 L 638.24 394.72 L 638.4 394.88 L 638.72 395.04 L 639.84 395.68 L 640.96 396.8 L 641.6 398.24 L 641.6 400 L 640.96 401.44 L 639.84 402.56 L 638.72 403.04 L 638.4 403.36 L 638.24 403.52 L 638.08 403.84 L 638.24 404.32 L 638.4 404.48 L 638.72 404.64 L 639.84 405.12 L 640.96 406.4 L 641.6 407.84 L 641.6 409.44 L 640.96 411.04 L 639.84 412.16 L 638.4 412.8 L 632 412.8 L 631.84 412.8 L 631.52 412.64 L 631.2 412.8 L 630.88 412.96 L 630.72 413.28 L 630.72 413.6 L 630.72 433.12 L 630.72 433.6 L 633.76 439.52 L 633.92 439.84 L 634.24 440 L 635.2 440.32 L 636.16 441.44 L 636.8 442.72 L 636.8 444.32 L 636.16 445.76 L 635.2 446.72 L 633.76 447.36 L 632.16 447.36 L 630.88 446.72 L 629.76 445.76 L 629.12 444.32 L 629.12 442.72 L 629.28 442.4 L 629.28 442.08 L 629.28 441.76 L 626.24 435.52 L 626.08 435.36 L 625.92 435.04 L 625.76 434.56 L 625.76 434.08 L 625.6 433.6 L 625.76 433.44 L 625.76 426.88 L 625.6 426.4 L 625.44 426.24 L 625.12 425.92 L 624.8 425.92 L 624.48 426.08 L 624.16 426.08 L 622.56 426.08 L 622.24 426.08 L 621.92 425.92 L 621.6 426.08 L 621.28 426.24 L 621.12 426.56 L 621.12 426.88 L 621.12 433.12 L 621.12 433.6 L 624.16 439.52 L 624.32 439.84 L 624.64 440 L 625.6 440.32 L 626.56 441.44 L 627.2 442.72 L 627.2 444.32 L 626.56 445.76 L 625.6 446.72 L 624.16 447.36 L 622.56 447.36 L 621.28 446.72 L 620.16 445.76 L 619.52 444.32 L 619.52 442.72 L 619.68 442.4 L 619.84 442.08 L 619.68 441.76 L 616.64 435.52 L 616.48 435.36 L 616.32 435.04 L 616.16 434.56 L 616.16 434.08 L 616 433.6 L 616.16 433.44 L 616.16 426.88 L 616 426.4 L 615.84 426.24 L 615.52 425.92 L 615.2 425.92 L 614.88 426.08 L 614.56 426.08 L 612.96 426.08 L 612.64 426.08 L 612.32 425.92 L 612 426.08 L 611.68 426.24 L 611.52 426.56 L 611.52 426.88 L 611.52 433.12 L 611.68 433.6 L 614.56 439.52 L 614.72 439.84 L 615.04 440 L 616 440.32 L 617.12 441.44 L 617.6 442.72 L 617.6 444.32 L 617.12 445.76 L 616 446.72 L 614.56 447.36 L 613.12 447.36 L 611.68 446.72 L 610.56 445.76 L 609.92 444.32 L 609.92 442.72 L 610.08 442.4 L 610.24 442.08 L 610.08 441.76 L 607.04 435.52 L 606.88 435.36 L 606.72 435.04 L 606.56 434.56 L 606.56 434.08 L 606.56 433.6 L 606.56 433.44 L 606.56 426.88 L 606.4 426.4 L 606.24 426.24 L 605.92 425.92 L 605.6 425.92 L 605.28 426.08 L 605.12 426.08 L 603.36 426.08 L 601.92 425.44 L 600.8 424.32 L 600.32 423.2 L 600 422.88 L 599.84 422.72 L 599.36 422.56 L 599.04 422.72 L 598.88 422.88 L 598.72 423.2 L 598.08 424.32 L 597.76 424.64 L 597.6 424.96 L 597.6 425.28 L 597.6 434.56 L 597.12 435.68 L 593.6 439.04 L 593.44 439.36 L 593.44 439.68 L 593.44 440 L 593.76 440.32 L 593.76 442.72 L 591.52 442.72 L 591.36 442.56 L 591.04 442.4 L 590.72 442.24 L 590.4 442.4 L 590.08 442.56 L 589.12 443.52 L 588.96 443.84 L 588.96 444.16 L 588.96 444.32 L 588.32 445.76 L 587.2 446.72 L 585.92 447.36 L 584.32 447.36 L 582.88 446.72 L 581.92 445.76 L 581.28 444.32 L 581.28 444 L 581.28 443.52 L 580.96 443.36 L 580.8 443.2 L 580.32 443.04 L 580 443.2 L 579.84 443.36 L 579.52 443.52 L 579.36 443.84 L 579.36 444.16 L 579.36 444.32 L 578.72 445.76 L 577.6 446.72 L 576.32 447.36 L 574.72 447.36 L 573.28 446.72 L 572.32 445.76 L 571.68 444.32 L 571.68 442.72 L 572.32 441.44 L 573.28 440.32 L 574.72 439.68 L 574.88 439.68 L 575.2 439.68 L 575.52 439.52 L 581.92 432.96 L 582.08 432.8 L 582.24 432.48 L 582.24 425.28 L 582.08 424.96 L 581.92 424.64 L 581.6 424.32 L 580.96 422.88 L 580.96 416.48 L 581.6 414.88 L 582.08 414.4 L 582.24 414.08 L 582.4 413.76 L 582.24 413.44 L 582.08 413.12 L 581.76 412.96 L 581.44 412.96 L 579.04 412.96 L 578.72 412.96 L 578.4 413.12 L 578.08 413.6 L 576.48 414.08 L 570.08 414.08 L 568.64 413.6 L 568.16 413.12 L 568 412.96 L 567.68 412.96 L 552.48 412.96 L 552.16 412.96 L 551.04 412.96 L 550.88 412.96 L 550.56 412.8 L 550.24 412.96 L 549.92 413.12 L 549.76 413.44 L 549.6 413.76 L 549.6 429.76 L 549.28 430.88 L 532.32 447.68 L 532.16 448 L 532 448.32 L 532.16 448.64 L 532.32 448.96 L 532.64 449.12 L 532.96 449.12 L 642.56 449.12 L 642.88 449.12 Z M 519.2 370.88 L 519.2 368.48 L 520.32 368.8 L 521.28 369.76 L 521.76 370.88 L 519.2 370.88 Z M 519.2 372.64 L 521.76 372.64 L 521.28 373.76 L 520.32 374.72 L 519.2 375.04 L 519.2 372.64 Z M 567.68 398.24 L 568.16 397.28 L 568.96 396.32 L 570.24 395.68 L 572.48 395.68 L 572.48 398.24 L 567.68 398.24 Z M 574.24 398.24 L 574.24 395.68 L 576.32 395.68 L 577.6 396.32 L 578.56 397.28 L 579.04 398.24 L 574.24 398.24 Z M 600.48 401.92 L 600.8 400.96 L 601.76 400 L 602.88 399.52 L 602.88 401.92 L 600.48 401.92 Z M 574.24 402.4 L 574.24 400 L 579.04 400 L 578.56 400.96 L 577.6 401.92 L 576.32 402.4 L 574.24 402.4 Z M 570.24 402.4 L 568.96 401.92 L 568.16 400.96 L 567.68 400 L 572.48 400 L 572.48 402.4 L 570.24 402.4 Z M 595.52 442.72 L 595.52 440.48 L 597.12 440.48 L 597.76 441.12 L 597.76 442.72 L 595.52 442.72 Z M 601.28 442.72 L 601.6 441.76 L 602.56 440.96 L 603.36 440.64 L 603.36 442.72 L 601.28 442.72 Z M 605.12 442.72 L 605.12 440.64 L 605.92 440.96 L 606.88 441.76 L 607.2 442.72 L 605.12 442.72 Z M 605.12 444.48 L 607.2 444.48 L 606.88 445.28 L 605.92 446.08 L 605.12 446.56 L 605.12 444.48 Z M 602.56 446.08 L 601.6 445.28 L 601.28 444.48 L 603.36 444.48 L 603.36 446.56 L 602.56 446.08 Z M 595.52 446.56 L 595.52 444.48 L 597.76 444.48 L 597.76 446.08 L 597.12 446.56 L 595.52 446.56 Z M 592.16 446.56 L 591.68 446.08 L 591.68 444.48 L 593.76 444.48 L 593.76 446.56 L 592.16 446.56 Z M 532.8 429.44 L 533.12 429.28 L 538.88 423.52 L 539.04 423.2 L 539.2 422.88 L 539.2 394.56 L 539.04 394.24 L 538.88 394.08 L 538.56 393.76 L 538.24 393.76 L 530.72 393.76 L 530.4 393.76 L 530.08 394.08 L 529.92 394.24 L 528.48 394.88 L 526.88 394.88 L 525.44 394.24 L 525.12 394.08 L 524.8 393.76 L 524.48 393.76 L 521.76 393.76 L 521.44 393.76 L 521.12 394.08 L 520.8 394.4 L 519.2 395.04 L 517.6 395.04 L 517.12 395.04 L 516.8 395.04 L 516.64 395.36 L 516.32 395.52 L 516.32 395.84 L 516.32 399.84 L 516.48 400.16 L 518.08 403.68 L 518.4 404 L 518.72 404.16 L 519.04 404.16 L 519.36 404.16 L 519.52 404 L 523.36 400.16 L 524.64 399.68 L 529.12 399.68 L 529.44 399.52 L 529.76 399.36 L 531.36 398.72 L 532.96 398.72 L 534.56 399.36 L 535.68 400.48 L 536.32 402.08 L 536.32 403.68 L 535.68 405.28 L 534.56 406.4 L 532.96 407.04 L 531.36 407.04 L 529.76 406.4 L 529.44 406.24 L 529.12 406.08 L 526.88 406.08 L 526.56 406.24 L 526.4 406.4 L 522.56 410.24 L 522.24 410.56 L 522.24 410.88 L 521.6 412.48 L 520.48 413.6 L 518.88 414.24 L 517.28 414.24 L 515.68 413.6 L 514.56 412.48 L 514.08 411.36 L 513.92 411.04 L 513.6 410.88 L 513.28 410.88 L 512.96 410.88 L 512.64 411.04 L 512.48 411.36 L 512.48 411.68 L 512.48 427.52 L 512.48 427.84 L 512.64 428.16 L 512.96 428.32 L 513.28 428.48 L 513.6 428.32 L 513.92 428.16 L 514.08 427.84 L 514.56 426.88 L 515.68 425.6 L 517.28 424.96 L 518.88 424.96 L 520.48 425.6 L 521.6 426.88 L 522.08 428.16 L 522.4 428.48 L 522.56 428.64 L 523.04 428.64 L 523.36 428.64 L 523.52 428.32 L 523.68 428.16 L 524.32 426.88 L 525.44 425.76 L 526.88 425.28 L 528.48 425.28 L 529.92 425.76 L 531.04 426.88 L 531.68 428.32 L 531.68 428.64 L 531.68 428.96 L 531.84 429.28 L 532.16 429.44 L 532.48 429.44 L 532.8 429.44 Z M 514.72 418.72 L 515.2 417.6 L 516.16 416.64 L 517.12 416.32 L 517.12 418.72 L 514.72 418.72 Z M 518.88 418.72 L 518.88 416.32 L 520 416.64 L 520.96 417.6 L 521.44 418.72 L 518.88 418.72 Z M 518.88 420.48 L 521.44 420.48 L 520.96 421.6 L 520 422.56 L 518.88 423.04 L 518.88 420.48 Z M 516.16 422.56 L 515.2 421.6 L 514.72 420.48 L 517.12 420.48 L 517.12 423.04 L 516.16 422.56 Z "/>
<path transform="matrix(.75,0,0,.75,0,0)" stroke-width="2.4" stroke-linecap="round" stroke-linejoin="round" fill="none" stroke="#c90d0c" d="M 518.08 410.08 L 513.44 400.64 "/>
<path transform="matrix(.75,0,0,.75,0,0)" stroke-width="2.4" stroke-linecap="round" stroke-linejoin="round" fill="none" stroke="#c90d0c" d="M 513.44 400.64 L 513.44 367.04 "/>
<path transform="matrix(.75,0,0,.75,0,0)" stroke-width="2.4" stroke-linecap="round" stroke-linejoin="round" fill="none" stroke="#c90d0c" d="M 513.44 367.04 L 518.24 362.24 "/>
<path transform="matrix(.75,0,0,.75,0,0)" stroke-width="2.4" stroke-linecap="round" stroke-linejoin="round" fill="none" stroke="#c90d0c" d="M 518.24 362.24 L 518.4 362.24 "/>
<path transform="matrix(.75,0,0,.75,0,0)" stroke-width="2.4" stroke-linecap="round" stroke-linejoin="round" fill="none" stroke="#c90d0c" d="M 573.28 410.08 L 608.96 410.08 "/>
<path transform="matrix(.75,0,0,.75,0,0)" stroke-width="1.6" stroke-linecap="round" stroke-linejoin="round" fill="none" stroke="#c90d0c" d="M 613.76 443.52 L 608.96 433.92 "/>
<path transform="matrix(.75,0,0,.75,0,0)" stroke-width="1.6" stroke-linecap="round" stroke-linejoin="round" fill="none" stroke="#c90d0c" d="M 608.96 433.92 L 608.96 410.08 "/>
<path transform="matrix(.75,0,0,.75,0,0)" stroke-width="1.6" stroke-linecap="round" stroke-linejoin="round" fill="none" stroke="#c90d0c" d="M 608.96 410.08 L 608.96 371.68 "/>
<path transform="matrix(.75,0,0,.75,0,0)" stroke-width="1.6" stroke-linecap="round" stroke-linejoin="round" fill="none" stroke="#c90d0c" d="M 608.96 371.68 L 613.76 371.68 "/>
<path transform="matrix(.75,0,0,.75,0,0)" stroke-width="2.4" stroke-linecap="round" stroke-linejoin="round" fill="none" stroke="#c90d0c" d="M 573.28 410.08 L 551.52 410.08 "/>
<path transform="matrix(.75,0,0,.75,0,0)" stroke-width="3.2" stroke-linecap="round" stroke-linejoin="round" fill="none" stroke="#c90d0c" d="M 518.08 410.08 L 525.28 402.88 "/>
<path transform="matrix(.75,0,0,.75,0,0)" stroke-width="3.2" stroke-linecap="round" stroke-linejoin="round" fill="none" stroke="#c90d0c" d="M 525.28 402.88 L 532.16 402.88 "/>
<path transform="matrix(.75,0,0,.75,0,0)" stroke-width="2.4" stroke-linecap="round" stroke-linejoin="round" fill="none" stroke="#c90d0c" d="M 518.4 381.28 L 527.68 381.28 "/>
<path transform="matrix(.75,0,0,.75,0,0)" stroke-width="2.4" stroke-linecap="round" stroke-linejoin="round" fill="none" stroke="#c90d0c" d="M 527.68 381.28 L 532.48 381.28 "/>
<path transform="matrix(.75,0,0,.75,0,0)" stroke-width="2.4" stroke-linecap="round" stroke-linejoin="round" fill="none" stroke="#c90d0c" d="M 532.48 381.28 L 543.36 370.4 "/>
<path transform="matrix(.75,0,0,.75,0,0)" stroke-width="2.4" stroke-linecap="round" stroke-linejoin="round" fill="none" stroke="#c90d0c" d="M 543.36 370.4 L 573.28 370.4 "/>
<path transform="matrix(.75,0,0,.75,0,0)" stroke-width="2.4" stroke-linecap="round" stroke-linejoin="round" fill="none" stroke="#c90d0c" d="M 518.08 438.72 L 527.68 438.72 "/>
<path transform="matrix(.75,0,0,.75,0,0)" stroke-width="2.4" stroke-linecap="round" stroke-linejoin="round" fill="none" stroke="#c90d0c" d="M 518.4 390.88 L 518.08 390.88 "/>
<path transform="matrix(.75,0,0,.75,0,0)" stroke-width="2.4" stroke-linecap="round" stroke-linejoin="round" fill="none" stroke="#c90d0c" d="M 518.4 390.88 L 527.68 390.88 "/>
<path transform="matrix(.75,0,0,.75,0,0)" stroke-width="2.4" stroke-linecap="round" stroke-linejoin="round" fill="none" stroke="#c90d0c" d="M 527.68 390.88 L 541.92 390.88 "/>
<path transform="matrix(.75,0,0,.75,0,0)" stroke-width="2.4" stroke-linecap="round" stroke-linejoin="round" fill="none" stroke="#c90d0c" d="M 527.68 438.72 L 541.92 424.48 "/>
<path transform="matrix(.75,0,0,.75,0,0)" stroke-width="2.4" stroke-linecap="round" stroke-linejoin="round" fill="none" stroke="#c90d0c" d="M 541.92 424.48 L 541.92 390.88 "/>
<path transform="matrix(.75,0,0,.75,0,0)" stroke-width="2.4" stroke-linecap="round" stroke-linejoin="round" fill="none" stroke="#c90d0c" d="M 541.92 390.88 L 541.92 380.48 "/>
<path transform="matrix(.75,0,0,.75,0,0)" stroke-width="2.4" stroke-linecap="round" stroke-linejoin="round" fill="none" stroke="#c90d0c" d="M 541.92 380.48 L 573.28 380 "/>
<path transform="matrix(.75,0,0,.75,0,0)" stroke-width="2.4" stroke-linecap="round" stroke-linejoin="round" fill="none" stroke="#c90d0c" d="M 546.72 395.68 L 548.16 389.6 "/>
<path transform="matrix(.75,0,0,.75,0,0)" stroke-width="2.4" stroke-linecap="round" stroke-linejoin="round" fill="none" stroke="#c90d0c" d="M 548.16 389.6 L 573.28 389.6 "/>
<path transform="matrix(.75,0,0,.75,0,0)" stroke-width="2.4" stroke-linecap="round" stroke-linejoin="round" fill="none" stroke="#c90d0c" d="M 518.08 448.32 L 527.68 448.32 "/>
<path transform="matrix(.75,0,0,.75,0,0)" stroke-width="2.4" stroke-linecap="round" stroke-linejoin="round" fill="none" stroke="#c90d0c" d="M 527.68 448.32 L 546.72 429.12 "/>
<path transform="matrix(.75,0,0,.75,0,0)" stroke-width="2.4" stroke-linecap="round" stroke-linejoin="round" fill="none" stroke="#c90d0c" d="M 546.72 429.12 L 546.72 395.68 "/>
<path transform="matrix(.75,0,0,.75,0,0)" stroke-width="2.4" stroke-linecap="round" stroke-linejoin="round" fill="none" stroke="#c90d0c" d="M 575.52 443.52 L 585.12 433.92 "/>
<path transform="matrix(.75,0,0,.75,0,0)" stroke-width="2.4" stroke-linecap="round" stroke-linejoin="round" fill="none" stroke="#c90d0c" d="M 585.12 433.92 L 585.12 419.68 "/>
<path transform="matrix(.75,0,0,.75,0,0)" stroke-width="2.4" stroke-linecap="round" stroke-linejoin="round" fill="none" stroke="#c90d0c" d="M 585.12 443.52 L 594.72 433.92 "/>
<path transform="matrix(.75,0,0,.75,0,0)" stroke-width="2.4" stroke-linecap="round" stroke-linejoin="round" fill="none" stroke="#c90d0c" d="M 594.72 433.92 L 594.72 419.68 "/>
<path transform="matrix(.75,0,0,.75,390.59999,271.68)" d="M 0 0 C 0 1.28 -1.12 2.4 -2.4 2.4 C -3.68 2.4 -4.8 1.28 -4.8 0 C -4.8 -1.28 -3.68 -2.4 -2.4 -2.4 C -1.12 -2.4 0 -1.28 0 0 Z " fill="#62d987" fill-rule="evenodd"/>
<path transform="matrix(.75,0,0,.75,390.59999,271.68)" stroke-width=".16" stroke-linecap="round" stroke-linejoin="round" fill="none" stroke="#62d987" d="M 0 0 C 0 1.28 -1.12 2.4 -2.4 2.4 C -3.68 2.4 -4.8 1.28 -4.8 0 C -4.8 -1.28 -3.68 -2.4 -2.4 -2.4 C -1.12 -2.4 0 -1.28 0 0 Z "/>
<path transform="matrix(.75,0,0,.75,389.88,271.68)" d="M 0 0 C 0 .8 -.64 1.44 -1.44 1.44 C -2.24 1.44 -2.88 .8 -2.88 0 C -2.88 -.8 -2.24 -1.44 -1.44 -1.44 C -.64 -1.44 0 -.8 0 0 Z " fill="#ffffff" fill-rule="evenodd"/>
<path transform="matrix(.75,0,0,.75,389.88,271.68)" stroke-width=".16" stroke-linecap="square" stroke-linejoin="bevel" fill="none" stroke="#000000" d="M 0 0 C 0 .8 -.64 1.44 -1.44 1.44 C -2.24 1.44 -2.88 .8 -2.88 0 C -2.88 -.8 -2.24 -1.44 -1.44 -1.44 C -.64 -1.44 0 -.8 0 0 Z "/>
<path transform="matrix(.75,0,0,.75,390.59999,278.76)" d="M 0 0 C 0 1.28 -1.12 2.4 -2.4 2.4 C -3.68 2.4 -4.8 1.28 -4.8 0 C -4.8 -1.28 -3.68 -2.4 -2.4 -2.4 C -1.12 -2.4 0 -1.28 0 0 Z " fill="#62d987" fill-rule="evenodd"/>
<path transform="matrix(.75,0,0,.75,390.59999,278.76)" stroke-width=".16" stroke-linecap="round" stroke-linejoin="round" fill="none" stroke="#62d987" d="M 0 0 C 0 1.28 -1.12 2.4 -2.4 2.4 C -3.68 2.4 -4.8 1.28 -4.8 0 C -4.8 -1.28 -3.68 -2.4 -2.4 -2.4 C -1.12 -2.4 0 -1.28 0 0 Z "/>
<path transform="matrix(.75,0,0,.75,389.88,278.76)" d="M 0 0 C 0 .8 -.64 1.44 -1.44 1.44 C -2.24 1.44 -2.88 .8 -2.88 0 C -2.88 -.8 -2.24 -1.44 -1.44 -1.44 C -.64 -1.44 0 -.8 0 0 Z " fill="#ffffff" fill-rule="evenodd"/>
<path transform="matrix(.75,0,0,.75,389.88,278.76)" stroke-width=".16" stroke-linecap="square" stroke-linejoin="bevel" fill="none" stroke="#000000" d="M 0 0 C 0 .8 -.64 1.44 -1.44 1.44 C -2.24 1.44 -2.88 .8 -2.88 0 C -2.88 -.8 -2.24 -1.44 -1.44 -1.44 C -.64 -1.44 0 -.8 0 0 Z "/>
<path transform="matrix(.75,0,0,.75,390.59999,285.96)" d="M 0 0 C 0 1.28 -1.12 2.4 -2.4 2.4 C -3.68 2.4 -4.8 1.28 -4.8 0 C -4.8 -1.28 -3.68 -2.4 -2.4 -2.4 C -1.12 -2.4 0 -1.28 0 0 Z " fill="#62d987" fill-rule="evenodd"/>
<path transform="matrix(.75,0,0,.75,390.59999,285.96)" stroke-width=".16" stroke-linecap="round" stroke-linejoin="round" fill="none" stroke="#62d987" d="M 0 0 C 0 1.28 -1.12 2.4 -2.4 2.4 C -3.68 2.4 -4.8 1.28 -4.8 0 C -4.8 -1.28 -3.68 -2.4 -2.4 -2.4 C -1.12 -2.4 0 -1.28 0 0 Z "/>
<path transform="matrix(.75,0,0,.75,389.88,285.96)" d="M 0 0 C 0 .8 -.64 1.44 -1.44 1.44 C -2.24 1.44 -2.88 .8 -2.88 0 C -2.88 -.8 -2.24 -1.44 -1.44 -1.44 C -.64 -1.44 0 -.8 0 0 Z " fill="#ffffff" fill-rule="evenodd"/>
<path transform="matrix(.75,0,0,.75,389.88,285.96)" stroke-width=".16" stroke-linecap="square" stroke-linejoin="bevel" fill="none" stroke="#000000" d="M 0 0 C 0 .8 -.64 1.44 -1.44 1.44 C -2.24 1.44 -2.88 .8 -2.88 0 C -2.88 -.8 -2.24 -1.44 -1.44 -1.44 C -.64 -1.44 0 -.8 0 0 Z "/>
<path transform="matrix(.75,0,0,.75,390.59999,293.16)" d="M 0 0 C 0 1.28 -1.12 2.4 -2.4 2.4 C -3.68 2.4 -4.8 1.28 -4.8 0 C -4.8 -1.28 -3.68 -2.4 -2.4 -2.4 C -1.12 -2.4 0 -1.28 0 0 Z " fill="#62d987" fill-rule="evenodd"/>
<path transform="matrix(.75,0,0,.75,390.59999,293.16)" stroke-width=".16" stroke-linecap="round" stroke-linejoin="round" fill="none" stroke="#62d987" d="M 0 0 C 0 1.28 -1.12 2.4 -2.4 2.4 C -3.68 2.4 -4.8 1.28 -4.8 0 C -4.8 -1.28 -3.68 -2.4 -2.4 -2.4 C -1.12 -2.4 0 -1.28 0 0 Z "/>
<path transform="matrix(.75,0,0,.75,389.88,293.16)" d="M 0 0 C 0 .8 -.64 1.44 -1.44 1.44 C -2.24 1.44 -2.88 .8 -2.88 0 C -2.88 -.8 -2.24 -1.44 -1.44 -1.44 C -.64 -1.44 0 -.8 0 0 Z " fill="#ffffff" fill-rule="evenodd"/>
<path transform="matrix(.75,0,0,.75,389.88,293.16)" stroke-width=".16" stroke-linecap="square" stroke-linejoin="bevel" fill="none" stroke="#000000" d="M 0 0 C 0 .8 -.64 1.44 -1.44 1.44 C -2.24 1.44 -2.88 .8 -2.88 0 C -2.88 -.8 -2.24 -1.44 -1.44 -1.44 C -.64 -1.44 0 -.8 0 0 Z "/>
<path transform="matrix(.75,0,0,.75,390.36,307.56)" d="M 0 0 C 0 1.28 -1.12 2.4 -2.4 2.4 C -3.68 2.4 -4.8 1.28 -4.8 0 C -4.8 -1.28 -3.68 -2.4 -2.4 -2.4 C -1.12 -2.4 0 -1.28 0 0 Z " fill="#62d987" fill-rule="evenodd"/>
<path transform="matrix(.75,0,0,.75,390.36,307.56)" stroke-width=".16" stroke-linecap="round" stroke-linejoin="round" fill="none" stroke="#62d987" d="M 0 0 C 0 1.28 -1.12 2.4 -2.4 2.4 C -3.68 2.4 -4.8 1.28 -4.8 0 C -4.8 -1.28 -3.68 -2.4 -2.4 -2.4 C -1.12 -2.4 0 -1.28 0 0 Z "/>
<path transform="matrix(.75,0,0,.75,389.64,307.56)" d="M 0 0 C 0 .8 -.64 1.44 -1.44 1.44 C -2.24 1.44 -2.88 .8 -2.88 0 C -2.88 -.8 -2.24 -1.44 -1.44 -1.44 C -.64 -1.44 0 -.8 0 0 Z " fill="#ffffff" fill-rule="evenodd"/>
<path transform="matrix(.75,0,0,.75,389.64,307.56)" stroke-width=".16" stroke-linecap="square" stroke-linejoin="bevel" fill="none" stroke="#000000" d="M 0 0 C 0 .8 -.64 1.44 -1.44 1.44 C -2.24 1.44 -2.88 .8 -2.88 0 C -2.88 -.8 -2.24 -1.44 -1.44 -1.44 C -.64 -1.44 0 -.8 0 0 Z "/>
<path transform="matrix(.75,0,0,.75,390.36,314.76)" d="M 0 0 C 0 1.28 -1.12 2.4 -2.4 2.4 C -3.68 2.4 -4.8 1.28 -4.8 0 C -4.8 -1.28 -3.68 -2.4 -2.4 -2.4 C -1.12 -2.4 0 -1.28 0 0 Z " fill="#62d987" fill-rule="evenodd"/>
<path transform="matrix(.75,0,0,.75,390.36,314.76)" stroke-width=".16" stroke-linecap="round" stroke-linejoin="round" fill="none" stroke="#62d987" d="M 0 0 C 0 1.28 -1.12 2.4 -2.4 2.4 C -3.68 2.4 -4.8 1.28 -4.8 0 C -4.8 -1.28 -3.68 -2.4 -2.4 -2.4 C -1.12 -2.4 0 -1.28 0 0 Z "/>
<path transform="matrix(.75,0,0,.75,389.64,314.76)" d="M 0 0 C 0 .8 -.64 1.44 -1.44 1.44 C -2.24 1.44 -2.88 .8 -2.88 0 C -2.88 -.8 -2.24 -1.44 -1.44 -1.44 C -.64 -1.44 0 -.8 0 0 Z " fill="#ffffff" fill-rule="evenodd"/>
<path transform="matrix(.75,0,0,.75,389.64,314.76)" stroke-width=".16" stroke-linecap="square" stroke-linejoin="bevel" fill="none" stroke="#000000" d="M 0 0 C 0 .8 -.64 1.44 -1.44 1.44 C -2.24 1.44 -2.88 .8 -2.88 0 C -2.88 -.8 -2.24 -1.44 -1.44 -1.44 C -.64 -1.44 0 -.8 0 0 Z "/>
<path transform="matrix(.75,0,0,.75,390.36,321.84)" d="M 0 0 C 0 1.28 -1.12 2.4 -2.4 2.4 C -3.68 2.4 -4.8 1.28 -4.8 0 C -4.8 -1.28 -3.68 -2.4 -2.4 -2.4 C -1.12 -2.4 0 -1.28 0 0 Z " fill="#62d987" fill-rule="evenodd"/>
<path transform="matrix(.75,0,0,.75,390.36,321.84)" stroke-width=".16" stroke-linecap="round" stroke-linejoin="round" fill="none" stroke="#62d987" d="M 0 0 C 0 1.28 -1.12 2.4 -2.4 2.4 C -3.68 2.4 -4.8 1.28 -4.8 0 C -4.8 -1.28 -3.68 -2.4 -2.4 -2.4 C -1.12 -2.4 0 -1.28 0 0 Z "/>
<path transform="matrix(.75,0,0,.75,389.64,321.84)" d="M 0 0 C 0 .8 -.64 1.44 -1.44 1.44 C -2.24 1.44 -2.88 .8 -2.88 0 C -2.88 -.8 -2.24 -1.44 -1.44 -1.44 C -.64 -1.44 0 -.8 0 0 Z " fill="#ffffff" fill-rule="evenodd"/>
<path transform="matrix(.75,0,0,.75,389.64,321.84)" stroke-width=".16" stroke-linecap="square" stroke-linejoin="bevel" fill="none" stroke="#000000" d="M 0 0 C 0 .8 -.64 1.44 -1.44 1.44 C -2.24 1.44 -2.88 .8 -2.88 0 C -2.88 -.8 -2.24 -1.44 -1.44 -1.44 C -.64 -1.44 0 -.8 0 0 Z "/>
<path transform="matrix(.75,0,0,.75,390.36,329.04)" d="M 0 0 C 0 1.28 -1.12 2.4 -2.4 2.4 C -3.68 2.4 -4.8 1.28 -4.8 0 C -4.8 -1.28 -3.68 -2.4 -2.4 -2.4 C -1.12 -2.4 0 -1.28 0 0 Z " fill="#62d987" fill-rule="evenodd"/>
<path transform="matrix(.75,0,0,.75,390.36,329.04)" stroke-width=".16" stroke-linecap="round" stroke-linejoin="round" fill="none" stroke="#62d987" d="M 0 0 C 0 1.28 -1.12 2.4 -2.4 2.4 C -3.68 2.4 -4.8 1.28 -4.8 0 C -4.8 -1.28 -3.68 -2.4 -2.4 -2.4 C -1.12 -2.4 0 -1.28 0 0 Z "/>
<path transform="matrix(.75,0,0,.75,389.64,329.04)" d="M 0 0 C 0 .8 -.64 1.44 -1.44 1.44 C -2.24 1.44 -2.88 .8 -2.88 0 C -2.88 -.8 -2.24 -1.44 -1.44 -1.44 C -.64 -1.44 0 -.8 0 0 Z " fill="#ffffff" fill-rule="evenodd"/>
<path transform="matrix(.75,0,0,.75,389.64,329.04)" stroke-width=".16" stroke-linecap="square" stroke-linejoin="bevel" fill="none" stroke="#000000" d="M 0 0 C 0 .8 -.64 1.44 -1.44 1.44 C -2.24 1.44 -2.88 .8 -2.88 0 C -2.88 -.8 -2.24 -1.44 -1.44 -1.44 C -.64 -1.44 0 -.8 0 0 Z "/>
<path transform="matrix(.75,0,0,.75,390.36,336.24)" d="M 0 0 C 0 1.28 -1.12 2.4 -2.4 2.4 C -3.68 2.4 -4.8 1.28 -4.8 0 C -4.8 -1.28 -3.68 -2.4 -2.4 -2.4 C -1.12 -2.4 0 -1.28 0 0 Z " fill="#62d987" fill-rule="evenodd"/>
<path transform="matrix(.75,0,0,.75,390.36,336.24)" stroke-width=".16" stroke-linecap="round" stroke-linejoin="round" fill="none" stroke="#62d987" d="M 0 0 C 0 1.28 -1.12 2.4 -2.4 2.4 C -3.68 2.4 -4.8 1.28 -4.8 0 C -4.8 -1.28 -3.68 -2.4 -2.4 -2.4 C -1.12 -2.4 0 -1.28 0 0 Z "/>
<path transform="matrix(.75,0,0,.75,389.64,336.24)" d="M 0 0 C 0 .8 -.64 1.44 -1.44 1.44 C -2.24 1.44 -2.88 .8 -2.88 0 C -2.88 -.8 -2.24 -1.44 -1.44 -1.44 C -.64 -1.44 0 -.8 0 0 Z " fill="#ffffff" fill-rule="evenodd"/>
<path transform="matrix(.75,0,0,.75,389.64,336.24)" stroke-width=".16" stroke-linecap="square" stroke-linejoin="bevel" fill="none" stroke="#000000" d="M 0 0 C 0 .8 -.64 1.44 -1.44 1.44 C -2.24 1.44 -2.88 .8 -2.88 0 C -2.88 -.8 -2.24 -1.44 -1.44 -1.44 C -.64 -1.44 0 -.8 0 0 Z "/>
<path transform="matrix(.75,0,0,.75,433.19999,332.63999)" d="M 0 0 C 0 1.12 -.96 2.08 -2.08 2.08 C -3.2 2.08 -4.16 1.12 -4.16 0 C -4.16 -1.12 -3.2 -2.08 -2.08 -2.08 C -.96 -2.08 0 -1.12 0 0 Z " fill="#62d987" fill-rule="evenodd"/>
<path transform="matrix(.75,0,0,.75,433.19999,332.63999)" stroke-width=".16" stroke-linecap="round" stroke-linejoin="round" fill="none" stroke="#62d987" d="M 0 0 C 0 1.12 -.96 2.08 -2.08 2.08 C -3.2 2.08 -4.16 1.12 -4.16 0 C -4.16 -1.12 -3.2 -2.08 -2.08 -2.08 C -.96 -2.08 0 -1.12 0 0 Z "/>
<path transform="matrix(.75,0,0,.75,432.48,332.63999)" d="M 0 0 C 0 .64 -.48 1.12 -1.12 1.12 C -1.76 1.12 -2.24 .64 -2.24 0 C -2.24 -.64 -1.76 -1.12 -1.12 -1.12 C -.48 -1.12 0 -.64 0 0 Z " fill="#ffffff" fill-rule="evenodd"/>
<path transform="matrix(.75,0,0,.75,432.48,332.63999)" stroke-width=".16" stroke-linecap="square" stroke-linejoin="bevel" fill="none" stroke="#000000" d="M 0 0 C 0 .64 -.48 1.12 -1.12 1.12 C -1.76 1.12 -2.24 .64 -2.24 0 C -2.24 -.64 -1.76 -1.12 -1.12 -1.12 C -.48 -1.12 0 -.64 0 0 Z "/>
<path transform="matrix(.75,0,0,.75,440.40003,332.63999)" d="M 0 0 C 0 1.12 -.96 2.08 -2.08 2.08 C -3.2 2.08 -4.16 1.12 -4.16 0 C -4.16 -1.12 -3.2 -2.08 -2.08 -2.08 C -.96 -2.08 0 -1.12 0 0 Z " fill="#62d987" fill-rule="evenodd"/>
<path transform="matrix(.75,0,0,.75,440.40003,332.63999)" stroke-width=".16" stroke-linecap="round" stroke-linejoin="round" fill="none" stroke="#62d987" d="M 0 0 C 0 1.12 -.96 2.08 -2.08 2.08 C -3.2 2.08 -4.16 1.12 -4.16 0 C -4.16 -1.12 -3.2 -2.08 -2.08 -2.08 C -.96 -2.08 0 -1.12 0 0 Z "/>
<path transform="matrix(.75,0,0,.75,439.68,332.63999)" d="M 0 0 C 0 .64 -.48 1.12 -1.12 1.12 C -1.76 1.12 -2.24 .64 -2.24 0 C -2.24 -.64 -1.76 -1.12 -1.12 -1.12 C -.48 -1.12 0 -.64 0 0 Z " fill="#ffffff" fill-rule="evenodd"/>
<path transform="matrix(.75,0,0,.75,439.68,332.63999)" stroke-width=".16" stroke-linecap="square" stroke-linejoin="bevel" fill="none" stroke="#000000" d="M 0 0 C 0 .64 -.48 1.12 -1.12 1.12 C -1.76 1.12 -2.24 .64 -2.24 0 C -2.24 -.64 -1.76 -1.12 -1.12 -1.12 C -.48 -1.12 0 -.64 0 0 Z "/>
<path transform="matrix(.75,0,0,.75,454.68,332.63999)" d="M 0 0 C 0 1.12 -.96 2.08 -2.08 2.08 C -3.2 2.08 -4.16 1.12 -4.16 0 C -4.16 -1.12 -3.2 -2.08 -2.08 -2.08 C -.96 -2.08 0 -1.12 0 0 Z " fill="#62d987" fill-rule="evenodd"/>
<path transform="matrix(.75,0,0,.75,454.68,332.63999)" stroke-width=".16" stroke-linecap="round" stroke-linejoin="round" fill="none" stroke="#62d987" d="M 0 0 C 0 1.12 -.96 2.08 -2.08 2.08 C -3.2 2.08 -4.16 1.12 -4.16 0 C -4.16 -1.12 -3.2 -2.08 -2.08 -2.08 C -.96 -2.08 0 -1.12 0 0 Z "/>
<path transform="matrix(.75,0,0,.75,453.96003,332.63999)" d="M 0 0 C 0 .64 -.48 1.12 -1.12 1.12 C -1.76 1.12 -2.24 .64 -2.24 0 C -2.24 -.64 -1.76 -1.12 -1.12 -1.12 C -.48 -1.12 0 -.64 0 0 Z " fill="#ffffff" fill-rule="evenodd"/>
<path transform="matrix(.75,0,0,.75,453.96003,332.63999)" stroke-width=".16" stroke-linecap="square" stroke-linejoin="bevel" fill="none" stroke="#000000" d="M 0 0 C 0 .64 -.48 1.12 -1.12 1.12 C -1.76 1.12 -2.24 .64 -2.24 0 C -2.24 -.64 -1.76 -1.12 -1.12 -1.12 C -.48 -1.12 0 -.64 0 0 Z "/>
<path transform="matrix(.75,0,0,.75,461.88,332.63999)" d="M 0 0 C 0 1.12 -.96 2.08 -2.08 2.08 C -3.2 2.08 -4.16 1.12 -4.16 0 C -4.16 -1.12 -3.2 -2.08 -2.08 -2.08 C -.96 -2.08 0 -1.12 0 0 Z " fill="#62d987" fill-rule="evenodd"/>
<path transform="matrix(.75,0,0,.75,461.88,332.63999)" stroke-width=".16" stroke-linecap="round" stroke-linejoin="round" fill="none" stroke="#62d987" d="M 0 0 C 0 1.12 -.96 2.08 -2.08 2.08 C -3.2 2.08 -4.16 1.12 -4.16 0 C -4.16 -1.12 -3.2 -2.08 -2.08 -2.08 C -.96 -2.08 0 -1.12 0 0 Z "/>
<path transform="matrix(.75,0,0,.75,461.16,332.63999)" d="M 0 0 C 0 .64 -.48 1.12 -1.12 1.12 C -1.76 1.12 -2.24 .64 -2.24 0 C -2.24 -.64 -1.76 -1.12 -1.12 -1.12 C -.48 -1.12 0 -.64 0 0 Z " fill="#ffffff" fill-rule="evenodd"/>
<path transform="matrix(.75,0,0,.75,461.16,332.63999)" stroke-width=".16" stroke-linecap="square" stroke-linejoin="bevel" fill="none" stroke="#000000" d="M 0 0 C 0 .64 -.48 1.12 -1.12 1.12 C -1.76 1.12 -2.24 .64 -2.24 0 C -2.24 -.64 -1.76 -1.12 -1.12 -1.12 C -.48 -1.12 0 -.64 0 0 Z "/>
<path transform="matrix(.75,0,0,.75,469.08003,332.63999)" d="M 0 0 C 0 1.12 -.96 2.08 -2.08 2.08 C -3.2 2.08 -4.16 1.12 -4.16 0 C -4.16 -1.12 -3.2 -2.08 -2.08 -2.08 C -.96 -2.08 0 -1.12 0 0 Z " fill="#62d987" fill-rule="evenodd"/>
<path transform="matrix(.75,0,0,.75,469.08003,332.63999)" stroke-width=".16" stroke-linecap="round" stroke-linejoin="round" fill="none" stroke="#62d987" d="M 0 0 C 0 1.12 -.96 2.08 -2.08 2.08 C -3.2 2.08 -4.16 1.12 -4.16 0 C -4.16 -1.12 -3.2 -2.08 -2.08 -2.08 C -.96 -2.08 0 -1.12 0 0 Z "/>
<path transform="matrix(.75,0,0,.75,468.36,332.63999)" d="M 0 0 C 0 .64 -.48 1.12 -1.12 1.12 C -1.76 1.12 -2.24 .64 -2.24 0 C -2.24 -.64 -1.76 -1.12 -1.12 -1.12 C -.48 -1.12 0 -.64 0 0 Z " fill="#ffffff" fill-rule="evenodd"/>
<path transform="matrix(.75,0,0,.75,468.36,332.63999)" stroke-width=".16" stroke-linecap="square" stroke-linejoin="bevel" fill="none" stroke="#000000" d="M 0 0 C 0 .64 -.48 1.12 -1.12 1.12 C -1.76 1.12 -2.24 .64 -2.24 0 C -2.24 -.64 -1.76 -1.12 -1.12 -1.12 C -.48 -1.12 0 -.64 0 0 Z "/>
<path transform="matrix(.75,0,0,.75,476.27998,332.63999)" d="M 0 0 C 0 1.12 -.96 2.08 -2.08 2.08 C -3.2 2.08 -4.16 1.12 -4.16 0 C -4.16 -1.12 -3.2 -2.08 -2.08 -2.08 C -.96 -2.08 0 -1.12 0 0 Z " fill="#62d987" fill-rule="evenodd"/>
<path transform="matrix(.75,0,0,.75,476.27998,332.63999)" stroke-width=".16" stroke-linecap="round" stroke-linejoin="round" fill="none" stroke="#62d987" d="M 0 0 C 0 1.12 -.96 2.08 -2.08 2.08 C -3.2 2.08 -4.16 1.12 -4.16 0 C -4.16 -1.12 -3.2 -2.08 -2.08 -2.08 C -.96 -2.08 0 -1.12 0 0 Z "/>
<path transform="matrix(.75,0,0,.75,475.56,332.63999)" d="M 0 0 C 0 .64 -.48 1.12 -1.12 1.12 C -1.76 1.12 -2.24 .64 -2.24 0 C -2.24 -.64 -1.76 -1.12 -1.12 -1.12 C -.48 -1.12 0 -.64 0 0 Z " fill="#ffffff" fill-rule="evenodd"/>
<path transform="matrix(.75,0,0,.75,475.56,332.63999)" stroke-width=".16" stroke-linecap="square" stroke-linejoin="bevel" fill="none" stroke="#000000" d="M 0 0 C 0 .64 -.48 1.12 -1.12 1.12 C -1.76 1.12 -2.24 .64 -2.24 0 C -2.24 -.64 -1.76 -1.12 -1.12 -1.12 C -.48 -1.12 0 -.64 0 0 Z "/>
<path transform="matrix(.75,0,0,.75,0,0)" d="M 592.64 441.44 L 596.8 441.44 L 596.8 445.6 L 592.64 445.6 L 592.64 441.44 Z " fill="#62d987" fill-rule="evenodd"/>
<path transform="matrix(.75,0,0,.75,0,0)" stroke-width=".16" stroke-linecap="round" stroke-linejoin="round" fill="none" stroke="#62d987" d="M 592.64 441.44 L 596.8 441.44 L 596.8 445.6 L 592.64 445.6 L 592.64 441.44 Z "/>
<path transform="matrix(.75,0,0,.75,446.88,332.63999)" d="M 0 0 C 0 .64 -.48 1.12 -1.12 1.12 C -1.76 1.12 -2.24 .64 -2.24 0 C -2.24 -.64 -1.76 -1.12 -1.12 -1.12 C -.48 -1.12 0 -.64 0 0 Z " fill="#ffffff" fill-rule="evenodd"/>
<path transform="matrix(.75,0,0,.75,446.88,332.63999)" stroke-width=".16" stroke-linecap="square" stroke-linejoin="bevel" fill="none" stroke="#000000" d="M 0 0 C 0 .64 -.48 1.12 -1.12 1.12 C -1.76 1.12 -2.24 .64 -2.24 0 C -2.24 -.64 -1.76 -1.12 -1.12 -1.12 C -.48 -1.12 0 -.64 0 0 Z "/>
<path transform="matrix(.75,0,0,.75,454.56,302.16)" d="M 0 0 C 0 1.28 -1.12 2.4 -2.4 2.4 C -3.68 2.4 -4.8 1.28 -4.8 0 C -4.8 -1.28 -3.68 -2.4 -2.4 -2.4 C -1.12 -2.4 0 -1.28 0 0 Z " fill="#62d987" fill-rule="evenodd"/>
<path transform="matrix(.75,0,0,.75,454.56,302.16)" stroke-width=".16" stroke-linecap="round" stroke-linejoin="round" fill="none" stroke="#62d987" d="M 0 0 C 0 1.28 -1.12 2.4 -2.4 2.4 C -3.68 2.4 -4.8 1.28 -4.8 0 C -4.8 -1.28 -3.68 -2.4 -2.4 -2.4 C -1.12 -2.4 0 -1.28 0 0 Z "/>
<path transform="matrix(.75,0,0,.75,453.84,302.16)" d="M 0 0 C 0 .8 -.64 1.44 -1.44 1.44 C -2.24 1.44 -2.88 .8 -2.88 0 C -2.88 -.8 -2.24 -1.44 -1.44 -1.44 C -.64 -1.44 0 -.8 0 0 Z " fill="#ffffff" fill-rule="evenodd"/>
<path transform="matrix(.75,0,0,.75,453.84,302.16)" stroke-width=".16" stroke-linecap="square" stroke-linejoin="bevel" fill="none" stroke="#000000" d="M 0 0 C 0 .8 -.64 1.44 -1.44 1.44 C -2.24 1.44 -2.88 .8 -2.88 0 C -2.88 -.8 -2.24 -1.44 -1.44 -1.44 C -.64 -1.44 0 -.8 0 0 Z "/>
<path transform="matrix(.75,0,0,.75,400.91999,302.16)" d="M 0 0 C 0 1.28 -1.12 2.4 -2.4 2.4 C -3.68 2.4 -4.8 1.28 -4.8 0 C -4.8 -1.28 -3.68 -2.4 -2.4 -2.4 C -1.12 -2.4 0 -1.28 0 0 Z " fill="#62d987" fill-rule="evenodd"/>
<path transform="matrix(.75,0,0,.75,400.91999,302.16)" stroke-width=".16" stroke-linecap="round" stroke-linejoin="round" fill="none" stroke="#62d987" d="M 0 0 C 0 1.28 -1.12 2.4 -2.4 2.4 C -3.68 2.4 -4.8 1.28 -4.8 0 C -4.8 -1.28 -3.68 -2.4 -2.4 -2.4 C -1.12 -2.4 0 -1.28 0 0 Z "/>
<path transform="matrix(.75,0,0,.75,400.19999,302.16)" d="M 0 0 C 0 .8 -.64 1.44 -1.44 1.44 C -2.24 1.44 -2.88 .8 -2.88 0 C -2.88 -.8 -2.24 -1.44 -1.44 -1.44 C -.64 -1.44 0 -.8 0 0 Z " fill="#ffffff" fill-rule="evenodd"/>
<path transform="matrix(.75,0,0,.75,400.19999,302.16)" stroke-width=".16" stroke-linecap="square" stroke-linejoin="bevel" fill="none" stroke="#000000" d="M 0 0 C 0 .8 -.64 1.44 -1.44 1.44 C -2.24 1.44 -2.88 .8 -2.88 0 C -2.88 -.8 -2.24 -1.44 -1.44 -1.44 C -.64 -1.44 0 -.8 0 0 Z "/>
<path transform="matrix(.75,0,0,.75,397.44,314.76)" d="M 0 0 C 0 1.28 -.96 2.24 -2.24 2.24 C -3.52 2.24 -4.48 1.28 -4.48 0 C -4.48 -1.28 -3.52 -2.24 -2.24 -2.24 C -.96 -2.24 0 -1.28 0 0 Z " fill="#62d987" fill-rule="evenodd"/>
<path transform="matrix(.75,0,0,.75,397.44,314.76)" stroke-width=".16" stroke-linecap="round" stroke-linejoin="round" fill="none" stroke="#62d987" d="M 0 0 C 0 1.28 -.96 2.24 -2.24 2.24 C -3.52 2.24 -4.48 1.28 -4.48 0 C -4.48 -1.28 -3.52 -2.24 -2.24 -2.24 C -.96 -2.24 0 -1.28 0 0 Z "/>
<path transform="matrix(.75,0,0,.75,396.84,314.76)" d="M 0 0 C 0 .8 -.64 1.44 -1.44 1.44 C -2.24 1.44 -2.88 .8 -2.88 0 C -2.88 -.8 -2.24 -1.44 -1.44 -1.44 C -.64 -1.44 0 -.8 0 0 Z " fill="#ffffff" fill-rule="evenodd"/>
<path transform="matrix(.75,0,0,.75,396.84,314.76)" stroke-width=".16" stroke-linecap="square" stroke-linejoin="bevel" fill="none" stroke="#000000" d="M 0 0 C 0 .8 -.64 1.44 -1.44 1.44 C -2.24 1.44 -2.88 .8 -2.88 0 C -2.88 -.8 -2.24 -1.44 -1.44 -1.44 C -.64 -1.44 0 -.8 0 0 Z "/>
<path transform="matrix(.75,0,0,.75,439.80003,303.96)" d="M 0 0 C 0 .64 -.64 1.28 -1.28 1.28 C -1.92 1.28 -2.56 .64 -2.56 0 C -2.56 -.64 -1.92 -1.28 -1.28 -1.28 C -.64 -1.28 0 -.64 0 0 Z " fill="#62d987" fill-rule="evenodd"/>
<path transform="matrix(.75,0,0,.75,439.80003,303.96)" stroke-width=".16" stroke-linecap="round" stroke-linejoin="round" fill="none" stroke="#62d987" d="M 0 0 C 0 .64 -.64 1.28 -1.28 1.28 C -1.92 1.28 -2.56 .64 -2.56 0 C -2.56 -.64 -1.92 -1.28 -1.28 -1.28 C -.64 -1.28 0 -.64 0 0 Z "/>
<path transform="matrix(.75,0,0,.75,439.32,303.96)" d="M 0 0 C 0 .32 -.32 .64 -.64 .64 C -.96 .64 -1.28 .32 -1.28 0 C -1.28 -.32 -.96 -.64 -.64 -.64 C -.32 -.64 0 -.32 0 0 Z " fill="#ffffff" fill-rule="evenodd"/>
<path transform="matrix(.75,0,0,.75,439.32,303.96)" stroke-width=".16" stroke-linecap="square" stroke-linejoin="bevel" fill="none" stroke="#000000" d="M 0 0 C 0 .32 -.32 .64 -.64 .64 C -.96 .64 -1.28 .32 -1.28 0 C -1.28 -.32 -.96 -.64 -.64 -.64 C -.32 -.64 0 -.32 0 0 Z "/>
<path transform="matrix(.75,0,0,.75,397.44,278.76)" d="M 0 0 C 0 1.28 -.96 2.24 -2.24 2.24 C -3.52 2.24 -4.48 1.28 -4.48 0 C -4.48 -1.28 -3.52 -2.24 -2.24 -2.24 C -.96 -2.24 0 -1.28 0 0 Z " fill="#62d987" fill-rule="evenodd"/>
<path transform="matrix(.75,0,0,.75,397.44,278.76)" stroke-width=".16" stroke-linecap="round" stroke-linejoin="round" fill="none" stroke="#62d987" d="M 0 0 C 0 1.28 -.96 2.24 -2.24 2.24 C -3.52 2.24 -4.48 1.28 -4.48 0 C -4.48 -1.28 -3.52 -2.24 -2.24 -2.24 C -.96 -2.24 0 -1.28 0 0 Z "/>
<path transform="matrix(.75,0,0,.75,396.84,278.76)" d="M 0 0 C 0 .8 -.64 1.44 -1.44 1.44 C -2.24 1.44 -2.88 .8 -2.88 0 C -2.88 -.8 -2.24 -1.44 -1.44 -1.44 C -.64 -1.44 0 -.8 0 0 Z " fill="#ffffff" fill-rule="evenodd"/>
<path transform="matrix(.75,0,0,.75,396.84,278.76)" stroke-width=".16" stroke-linecap="square" stroke-linejoin="bevel" fill="none" stroke="#000000" d="M 0 0 C 0 .8 -.64 1.44 -1.44 1.44 C -2.24 1.44 -2.88 .8 -2.88 0 C -2.88 -.8 -2.24 -1.44 -1.44 -1.44 C -.64 -1.44 0 -.8 0 0 Z "/>
<path transform="matrix(.75,0,0,.75,461.27998,278.76)" d="M 0 0 C 0 .64 -.64 1.28 -1.28 1.28 C -1.92 1.28 -2.56 .64 -2.56 0 C -2.56 -.64 -1.92 -1.28 -1.28 -1.28 C -.64 -1.28 0 -.64 0 0 Z " fill="#62d987" fill-rule="evenodd"/>
<path transform="matrix(.75,0,0,.75,461.27998,278.76)" stroke-width=".16" stroke-linecap="round" stroke-linejoin="round" fill="none" stroke="#62d987" d="M 0 0 C 0 .64 -.64 1.28 -1.28 1.28 C -1.92 1.28 -2.56 .64 -2.56 0 C -2.56 -.64 -1.92 -1.28 -1.28 -1.28 C -.64 -1.28 0 -.64 0 0 Z "/>
<path transform="matrix(.75,0,0,.75,460.80003,278.76)" d="M 0 0 C 0 .32 -.32 .64 -.64 .64 C -.96 .64 -1.28 .32 -1.28 0 C -1.28 -.32 -.96 -.64 -.64 -.64 C -.32 -.64 0 -.32 0 0 Z " fill="#ffffff" fill-rule="evenodd"/>
<path transform="matrix(.75,0,0,.75,460.80003,278.76)" stroke-width=".16" stroke-linecap="square" stroke-linejoin="bevel" fill="none" stroke="#000000" d="M 0 0 C 0 .32 -.32 .64 -.64 .64 C -.96 .64 -1.28 .32 -1.28 0 C -1.28 -.32 -.96 -.64 -.64 -.64 C -.32 -.64 0 -.32 0 0 Z "/>
<path transform="matrix(.75,0,0,.75,414.59999,307.56)" d="M 0 0 C 0 .64 -.64 1.28 -1.28 1.28 C -1.92 1.28 -2.56 .64 -2.56 0 C -2.56 -.64 -1.92 -1.28 -1.28 -1.28 C -.64 -1.28 0 -.64 0 0 Z " fill="#62d987" fill-rule="evenodd"/>
<path transform="matrix(.75,0,0,.75,414.59999,307.56)" stroke-width=".16" stroke-linecap="round" stroke-linejoin="round" fill="none" stroke="#62d987" d="M 0 0 C 0 .64 -.64 1.28 -1.28 1.28 C -1.92 1.28 -2.56 .64 -2.56 0 C -2.56 -.64 -1.92 -1.28 -1.28 -1.28 C -.64 -1.28 0 -.64 0 0 Z "/>
<path transform="matrix(.75,0,0,.75,414.12,307.56)" d="M 0 0 C 0 .32 -.32 .64 -.64 .64 C -.96 .64 -1.28 .32 -1.28 0 C -1.28 -.32 -.96 -.64 -.64 -.64 C -.32 -.64 0 -.32 0 0 Z " fill="#ffffff" fill-rule="evenodd"/>
<path transform="matrix(.75,0,0,.75,414.12,307.56)" stroke-width=".16" stroke-linecap="square" stroke-linejoin="bevel" fill="none" stroke="#000000" d="M 0 0 C 0 .32 -.32 .64 -.64 .64 C -.96 .64 -1.28 .32 -1.28 0 C -1.28 -.32 -.96 -.64 -.64 -.64 C -.32 -.64 0 -.32 0 0 Z "/>
<path transform="matrix(.75,0,0,.75,397.44,271.68)" d="M 0 0 C 0 1.28 -.96 2.24 -2.24 2.24 C -3.52 2.24 -4.48 1.28 -4.48 0 C -4.48 -1.28 -3.52 -2.24 -2.24 -2.24 C -.96 -2.24 0 -1.28 0 0 Z " fill="#62d987" fill-rule="evenodd"/>
<path transform="matrix(.75,0,0,.75,397.44,271.68)" stroke-width=".16" stroke-linecap="round" stroke-linejoin="round" fill="none" stroke="#62d987" d="M 0 0 C 0 1.28 -.96 2.24 -2.24 2.24 C -3.52 2.24 -4.48 1.28 -4.48 0 C -4.48 -1.28 -3.52 -2.24 -2.24 -2.24 C -.96 -2.24 0 -1.28 0 0 Z "/>
<path transform="matrix(.75,0,0,.75,396.84,271.68)" d="M 0 0 C 0 .8 -.64 1.44 -1.44 1.44 C -2.24 1.44 -2.88 .8 -2.88 0 C -2.88 -.8 -2.24 -1.44 -1.44 -1.44 C -.64 -1.44 0 -.8 0 0 Z " fill="#ffffff" fill-rule="evenodd"/>
<path transform="matrix(.75,0,0,.75,396.84,271.68)" stroke-width=".16" stroke-linecap="square" stroke-linejoin="bevel" fill="none" stroke="#000000" d="M 0 0 C 0 .8 -.64 1.44 -1.44 1.44 C -2.24 1.44 -2.88 .8 -2.88 0 C -2.88 -.8 -2.24 -1.44 -1.44 -1.44 C -.64 -1.44 0 -.8 0 0 Z "/>
<path transform="matrix(.75,0,0,.75,397.44,285.96)" d="M 0 0 C 0 1.28 -.96 2.24 -2.24 2.24 C -3.52 2.24 -4.48 1.28 -4.48 0 C -4.48 -1.28 -3.52 -2.24 -2.24 -2.24 C -.96 -2.24 0 -1.28 0 0 Z " fill="#62d987" fill-rule="evenodd"/>
<path transform="matrix(.75,0,0,.75,397.44,285.96)" stroke-width=".16" stroke-linecap="round" stroke-linejoin="round" fill="none" stroke="#62d987" d="M 0 0 C 0 1.28 -.96 2.24 -2.24 2.24 C -3.52 2.24 -4.48 1.28 -4.48 0 C -4.48 -1.28 -3.52 -2.24 -2.24 -2.24 C -.96 -2.24 0 -1.28 0 0 Z "/>
<path transform="matrix(.75,0,0,.75,396.84,285.96)" d="M 0 0 C 0 .8 -.64 1.44 -1.44 1.44 C -2.24 1.44 -2.88 .8 -2.88 0 C -2.88 -.8 -2.24 -1.44 -1.44 -1.44 C -.64 -1.44 0 -.8 0 0 Z " fill="#ffffff" fill-rule="evenodd"/>
<path transform="matrix(.75,0,0,.75,396.84,285.96)" stroke-width=".16" stroke-linecap="square" stroke-linejoin="bevel" fill="none" stroke="#000000" d="M 0 0 C 0 .8 -.64 1.44 -1.44 1.44 C -2.24 1.44 -2.88 .8 -2.88 0 C -2.88 -.8 -2.24 -1.44 -1.44 -1.44 C -.64 -1.44 0 -.8 0 0 Z "/>
<path transform="matrix(.75,0,0,.75,397.44,293.16)" d="M 0 0 C 0 1.28 -.96 2.24 -2.24 2.24 C -3.52 2.24 -4.48 1.28 -4.48 0 C -4.48 -1.28 -3.52 -2.24 -2.24 -2.24 C -.96 -2.24 0 -1.28 0 0 Z " fill="#62d987" fill-rule="evenodd"/>
<path transform="matrix(.75,0,0,.75,397.44,293.16)" stroke-width=".16" stroke-linecap="round" stroke-linejoin="round" fill="none" stroke="#62d987" d="M 0 0 C 0 1.28 -.96 2.24 -2.24 2.24 C -3.52 2.24 -4.48 1.28 -4.48 0 C -4.48 -1.28 -3.52 -2.24 -2.24 -2.24 C -.96 -2.24 0 -1.28 0 0 Z "/>
<path transform="matrix(.75,0,0,.75,396.84,293.16)" d="M 0 0 C 0 .8 -.64 1.44 -1.44 1.44 C -2.24 1.44 -2.88 .8 -2.88 0 C -2.88 -.8 -2.24 -1.44 -1.44 -1.44 C -.64 -1.44 0 -.8 0 0 Z " fill="#ffffff" fill-rule="evenodd"/>
<path transform="matrix(.75,0,0,.75,396.84,293.16)" stroke-width=".16" stroke-linecap="square" stroke-linejoin="bevel" fill="none" stroke="#000000" d="M 0 0 C 0 .8 -.64 1.44 -1.44 1.44 C -2.24 1.44 -2.88 .8 -2.88 0 C -2.88 -.8 -2.24 -1.44 -1.44 -1.44 C -.64 -1.44 0 -.8 0 0 Z "/>
<path transform="matrix(.75,0,0,.75,397.44,321.84)" d="M 0 0 C 0 1.28 -.96 2.24 -2.24 2.24 C -3.52 2.24 -4.48 1.28 -4.48 0 C -4.48 -1.28 -3.52 -2.24 -2.24 -2.24 C -.96 -2.24 0 -1.28 0 0 Z " fill="#62d987" fill-rule="evenodd"/>
<path transform="matrix(.75,0,0,.75,397.44,321.84)" stroke-width=".16" stroke-linecap="round" stroke-linejoin="round" fill="none" stroke="#62d987" d="M 0 0 C 0 1.28 -.96 2.24 -2.24 2.24 C -3.52 2.24 -4.48 1.28 -4.48 0 C -4.48 -1.28 -3.52 -2.24 -2.24 -2.24 C -.96 -2.24 0 -1.28 0 0 Z "/>
<path transform="matrix(.75,0,0,.75,396.84,321.84)" d="M 0 0 C 0 .8 -.64 1.44 -1.44 1.44 C -2.24 1.44 -2.88 .8 -2.88 0 C -2.88 -.8 -2.24 -1.44 -1.44 -1.44 C -.64 -1.44 0 -.8 0 0 Z " fill="#ffffff" fill-rule="evenodd"/>
<path transform="matrix(.75,0,0,.75,396.84,321.84)" stroke-width=".16" stroke-linecap="square" stroke-linejoin="bevel" fill="none" stroke="#000000" d="M 0 0 C 0 .8 -.64 1.44 -1.44 1.44 C -2.24 1.44 -2.88 .8 -2.88 0 C -2.88 -.8 -2.24 -1.44 -1.44 -1.44 C -.64 -1.44 0 -.8 0 0 Z "/>
</g>
<text fill="#808080" xml:space="preserve" transform="matrix(.75 0 0 .75 0 0)" font-size="5.28" font-family="F1"><tspan y="428.16" x="600.96 604.8144 610.4112 614.26559 620.02078 623.8338">NCNCNC</tspan></text>
<text fill="#808080" xml:space="preserve" transform="matrix(.75 0 0 .75 0 0)" font-size="5.28" font-family="F1"><tspan y="394.72" x="639.68">N</tspan></text>
<text fill="#808080" xml:space="preserve" transform="matrix(.75 0 0 .75 0 0)" font-size="5.28" font-family="F1"><tspan y="404.32" x="639.68">N</tspan></text>
<text fill="#808080" xml:space="preserve" transform="matrix(.75 0 0 .75 0 0)" font-size="5.28" font-family="F1"><tspan y="413.44" x="639.68">N</tspan></text>
<text fill="#808080" xml:space="preserve" transform="matrix(.75 0 0 .75 0 0)" font-size="5.28" font-family="F1"><tspan y="428.64" x="581.76 585.1392 591.84487 595.6992">TxRx</tspan></text>
<text fill="#808080" xml:space="preserve" transform="matrix(.75 0 0 .75 0 0)" font-size="5.28" font-family="F1"><tspan y="390.88" x="563.04 564.4656 567.36959">Int</tspan></text>
<text fill="#808080" xml:space="preserve" transform="matrix(0 -.015381001 .015381001 0 0 0)" font-size="327.68" font-family="F1"><tspan y="27618.7" x="-21338.2 -21066.225 -20846.68 -20636.965 -20456.743 -20276.52 -20096.297 -19919.35">MAX44009</tspan></text>
<text fill="#808080" xml:space="preserve" transform="matrix(0 -.015381001 .015381001 0 0 0)" font-size="327.68" font-family="F1"><tspan y="27689" x="-18654.4 -18434.856 -18162.88 -17943.336 -17766.389 -17586.166">BME280</tspan></text>
<clipPath id="cp2">
<path transform="matrix(.75,0,0,.75,0,0)" d="M 508.32 352.48 L 508.32 453.76 L 646.24 453.76 L 646.24 352.48 Z " fill-rule="evenodd"/>
</clipPath>
<g clip-path="url(#cp2)">
<path transform="matrix(.75,0,0,.75,0,0)" stroke-width=".48" stroke-linecap="round" stroke-linejoin="round" fill="none" stroke="#808080" d="M 512.48 356.8 L 512.48 396.16 "/>
<path transform="matrix(.75,0,0,.75,0,0)" stroke-width=".48" stroke-linecap="round" stroke-linejoin="round" fill="none" stroke="#808080" d="M 512.48 396.16 L 562.08 396.16 "/>
<path transform="matrix(.75,0,0,.75,0,0)" stroke-width=".48" stroke-linecap="round" stroke-linejoin="round" fill="none" stroke="#808080" d="M 562.08 396.16 L 562.08 356.8 "/>
<path transform="matrix(.75,0,0,.75,0,0)" stroke-width=".48" stroke-linecap="round" stroke-linejoin="round" fill="none" stroke="#808080" d="M 562.08 356.8 L 512.48 356.8 "/>
</g>
<text fill="#808080" xml:space="preserve" transform="matrix(.75 0 0 .75 0 0)" font-size="4.32" font-family="F1"><tspan y="381.28" x="537.28 540.64028 543.1891 544.65786 547.50906 551.181 554.06246">GY-BMEP</tspan></text>
<text fill="#808080" xml:space="preserve" transform="matrix(.75 0 0 .75 0 0)" font-size="6.72" font-family="F1"><tspan y="364.64" x="522.88 527.3622 529.311">VIN</tspan></text>
<text fill="#808080" xml:space="preserve" transform="matrix(.75 0 0 .75 0 0)" font-size="6.72" font-family="F1"><tspan y="374.08" x="522.88 528.1888 532.96">GND</tspan></text>
<text fill="#808080" xml:space="preserve" transform="matrix(.75 0 0 .75 0 0)" font-size="6.72" font-family="F1"><tspan y="383.68" x="522.88 527.3622 532.1334">SCL</tspan></text>
<text fill="#808080" xml:space="preserve" transform="matrix(.75 0 0 .75 0 0)" font-size="6.72" font-family="F1"><tspan y="393.28" x="522.88 527.3622 532.1334">SDA</tspan></text>
<text fill="#808080" xml:space="preserve" transform="matrix(.75 0 0 .75 0 0)" font-size="4.32" font-family="F1"><tspan y="390.88" x="537.28 540.16146 543.83346 546.71487 549.11746 551.52">BME280</tspan></text>
<clipPath id="cp3">
<path transform="matrix(.75,0,0,.75,0,0)" d="M 508.32 352.48 L 508.32 453.76 L 646.24 453.76 L 646.24 352.48 Z " fill-rule="evenodd"/>
</clipPath>
<g clip-path="url(#cp3)">
<path transform="matrix(.75,0,0,.75,0,0)" stroke-width=".48" stroke-linecap="round" stroke-linejoin="round" fill="none" stroke="#808080" d="M 511.52 405.28 L 511.52 453.12 "/>
<path transform="matrix(.75,0,0,.75,0,0)" stroke-width=".48" stroke-linecap="round" stroke-linejoin="round" fill="none" stroke="#808080" d="M 511.52 453.12 L 560.64 453.12 "/>
<path transform="matrix(.75,0,0,.75,0,0)" stroke-width=".48" stroke-linecap="round" stroke-linejoin="round" fill="none" stroke="#808080" d="M 560.64 453.12 L 560.64 405.28 "/>
<path transform="matrix(.75,0,0,.75,0,0)" stroke-width=".48" stroke-linecap="round" stroke-linejoin="round" fill="none" stroke="#808080" d="M 560.64 405.28 L 511.52 405.28 "/>
</g>
<text fill="#808080" xml:space="preserve" transform="matrix(.75 0 0 .75 0 0)" font-size="6.72" font-family="F1"><tspan y="412.48" x="524.8 529.10079 530.71359">Vin</tspan></text>
<text fill="#808080" xml:space="preserve" transform="matrix(.75 0 0 .75 0 0)" font-size="6.72" font-family="F1"><tspan y="422.08" x="524.8 530.10879 533.73757">Gnd</tspan></text>
<text fill="#808080" xml:space="preserve" transform="matrix(.75 0 0 .75 0 0)" font-size="6.72" font-family="F1"><tspan y="431.52" x="524.8 529.28219 532.64218">Scl</tspan></text>
<text fill="#808080" xml:space="preserve" transform="matrix(.75 0 0 .75 0 0)" font-size="6.72" font-family="F1"><tspan y="441.12" x="524.8 529.28219 532.97817">Sda</tspan></text>
<text fill="#808080" xml:space="preserve" transform="matrix(.75 0 0 .75 0 0)" font-size="6.72" font-family="F1"><tspan y="450.72" x="524.8 526.7488 530.37759">Int</tspan></text>
<clipPath id="cp4">
<path transform="matrix(.75,0,0,.75,0,0)" d="M 508.32 352.48 L 508.32 453.76 L 646.24 453.76 L 646.24 352.48 Z " fill-rule="evenodd"/>
</clipPath>
<g clip-path="url(#cp4)">
<path transform="matrix(.75,0,0,.75,0,0)" stroke-width=".48" stroke-linecap="round" stroke-linejoin="round" fill="none" stroke="#808080" d="M 573.28 362.08 L 635.2 362.08 "/>
<path transform="matrix(.75,0,0,.75,0,0)" stroke-width=".48" stroke-linecap="round" stroke-linejoin="round" fill="none" stroke="#808080" d="M 635.2 362.08 L 635.2 419.68 "/>
<path transform="matrix(.75,0,0,.75,0,0)" stroke-width=".48" stroke-linecap="round" stroke-linejoin="round" fill="none" stroke="#808080" d="M 635.2 419.68 L 573.28 419.68 "/>
<path transform="matrix(.75,0,0,.75,0,0)" stroke-width=".48" stroke-linecap="round" stroke-linejoin="round" fill="none" stroke="#808080" d="M 573.28 419.68 L 573.28 362.08 "/>
</g>
<text fill="#808080" xml:space="preserve" transform="matrix(.02160675 0 0 .02160675 0 0)" font-size="327.68" font-family="F1"><tspan y="13551.5" x="20205.1 20388.6 20627.807 20827.692 21011.192 21194.692 21378.192 21561.692">nRF52832</tspan></text>
<text fill="#808080" xml:space="preserve" transform="matrix(.02160675 0 0 .02160675 0 0)" font-size="327.68" font-family="F1"><tspan y="13901.4" x="20432.8 20704.776 20888.276 21071.776 21255.276 21327.364">Module</tspan></text>
<clipPath id="cp5">
<path transform="matrix(.75,0,0,.75,0,0)" d="M 508.32 352.48 L 508.32 453.76 L 646.24 453.76 L 646.24 352.48 Z " fill-rule="evenodd"/>
</clipPath>
<g clip-path="url(#cp5)">
<path transform="matrix(.75,0,0,.75,0,0)" stroke-width=".48" stroke-linecap="round" stroke-linejoin="round" fill="none" stroke="#808080" d="M 570.72 433.92 L 570.72 453.12 "/>
<path transform="matrix(.75,0,0,.75,0,0)" stroke-width=".48" stroke-linecap="round" stroke-linejoin="round" fill="none" stroke="#808080" d="M 570.72 453.12 L 599.52 453.12 "/>
<path transform="matrix(.75,0,0,.75,0,0)" stroke-width=".48" stroke-linecap="round" stroke-linejoin="round" fill="none" stroke="#808080" d="M 599.52 453.12 L 637.76 453.12 "/>
<path transform="matrix(.75,0,0,.75,0,0)" stroke-width=".48" stroke-linecap="round" stroke-linejoin="round" fill="none" stroke="#808080" d="M 637.76 453.12 L 637.76 433.92 "/>
<path transform="matrix(.75,0,0,.75,0,0)" stroke-width=".48" stroke-linecap="round" stroke-linejoin="round" fill="none" stroke="#808080" d="M 637.76 433.92 L 599.52 433.92 "/>
</g>
<text fill="#808080" xml:space="preserve" transform="matrix(.75 0 0 .75 0 0)" font-size="6.72" font-family="F1"><tspan y="451.2" x="602.4 607.17129 610.86727 614.56326 618.2592">Debug</tspan></text>
<text fill="#808080" xml:space="preserve" transform="matrix(.75 0 0 .75 0 0)" font-size="6.72" font-family="F1"><tspan y="439.2" x="572.16 576.32638 592.79037 611.3375 620.94717 630.55679">TxGVDC</tspan></text>
<text fill="#808080" xml:space="preserve" transform="matrix(.75 0 0 .75 0 0)" font-size="6.72" font-family="F1"><tspan y="439.2" x="581.76 586.53128 601.92007">RxG</tspan></text>
<text fill="#808080" xml:space="preserve" transform="matrix(.75 0 0 .75 0 0)" font-size="6.72" font-family="F1"><tspan y="451.68" x="573.6 578.3712 582.8534 587.49026">UART</tspan></text>
<clipPath id="cp6">
<path transform="matrix(.75,0,0,.75,0,0)" d="M 508.32 352.48 L 508.32 453.76 L 646.24 453.76 L 646.24 352.48 Z " fill-rule="evenodd"/>
</clipPath>
<g clip-path="url(#cp6)">
<path transform="matrix(.75,0,0,.75,0,0)" stroke-width=".48" stroke-linecap="round" stroke-linejoin="round" fill="none" stroke="#808080" d="M 599.52 433.92 L 570.72 433.92 "/>
<path transform="matrix(.75,0,0,.75,0,0)" stroke-width=".48" stroke-linecap="round" stroke-linejoin="round" fill="none" stroke="#808080" d="M 599.52 433.92 L 599.52 453.12 "/>
<path transform="matrix(.75,0,0,.75,0,0)" stroke-width=".16" stroke-linecap="round" stroke-linejoin="round" fill="none" stroke="#afd134" d="M 533.44 376.48 L 540.96 376.48 "/>
<path transform="matrix(.75,0,0,.75,0,0)" stroke-width=".16" stroke-linecap="round" stroke-linejoin="round" fill="none" stroke="#afd134" d="M 537.28 380.32 L 537.28 372.64 "/>
<path transform="matrix(.75,0,0,.75,0,0)" stroke-width=".16" stroke-linecap="round" stroke-linejoin="round" fill="none" stroke="#afd134" d="M 514.24 429.12 L 521.92 429.12 "/>
<path transform="matrix(.75,0,0,.75,0,0)" stroke-width=".16" stroke-linecap="round" stroke-linejoin="round" fill="none" stroke="#afd134" d="M 518.08 432.96 L 518.08 425.28 "/>
<path transform="matrix(.75,0,0,.75,0,0)" stroke-width=".16" stroke-linecap="round" stroke-linejoin="round" fill="none" stroke="#afd134" d="M 600.48 386.08 L 608 386.08 "/>
<path transform="matrix(.75,0,0,.75,0,0)" stroke-width=".16" stroke-linecap="round" stroke-linejoin="round" fill="none" stroke="#afd134" d="M 604.16 389.92 L 604.16 382.24 "/>
<path transform="matrix(.75,0,0,.75,0,0)" stroke-width=".16" stroke-linecap="round" stroke-linejoin="round" fill="none" stroke="#afd134" d="M 602.08 443.52 L 606.4 443.52 "/>
<path transform="matrix(.75,0,0,.75,0,0)" stroke-width=".16" stroke-linecap="round" stroke-linejoin="round" fill="none" stroke="#afd134" d="M 604.16 445.6 L 604.16 441.44 "/>
</g>
<clipPath id="cp7">
<path transform="matrix(.75,0,0,.75,0,0)" d="M 508.32 452.8 L 646.24 452.8 L 646.24 453.6 L 508.32 453.6 Z " fill-rule="evenodd"/>
</clipPath>
<g clip-path="url(#cp7)">
<path transform="matrix(.75,0,0,.75,0,0)" stroke-width=".16" stroke-linecap="round" stroke-linejoin="round" fill="none" stroke="#62d986" d="M 508.48 453.12 L 646.08 453.12 "/>
</g>
<clipPath id="cp8">
<path transform="matrix(.75,0,0,.75,0,0)" d="M 645.76 352.48 L 646.24 352.48 L 646.24 453.6 L 645.76 453.6 Z " fill-rule="evenodd"/>
</clipPath>
<g clip-path="url(#cp8)">
<path transform="matrix(.75,0,0,.75,0,0)" stroke-width=".16" stroke-linecap="round" stroke-linejoin="round" fill="none" stroke="#62d986" d="M 646.08 453.12 L 646.08 352.64 "/>
</g>
<clipPath id="cp9">
<path transform="matrix(.75,0,0,.75,0,0)" d="M 508.32 352.48 L 646.24 352.48 L 646.24 353.12 L 508.32 353.12 Z " fill-rule="evenodd"/>
</clipPath>
<g clip-path="url(#cp9)">
<path transform="matrix(.75,0,0,.75,0,0)" stroke-width=".16" stroke-linecap="round" stroke-linejoin="round" fill="none" stroke="#62d986" d="M 646.08 352.64 L 508.48 352.64 "/>
</g>
<clipPath id="cp10">
<path transform="matrix(.75,0,0,.75,0,0)" d="M 508.32 352.48 L 508.96 352.48 L 508.96 453.6 L 508.32 453.6 Z " fill-rule="evenodd"/>
</clipPath>
<g clip-path="url(#cp10)">
<path transform="matrix(.75,0,0,.75,0,0)" stroke-width=".16" stroke-linecap="round" stroke-linejoin="round" fill="none" stroke="#62d986" d="M 508.48 352.64 L 508.48 453.12 "/>
</g>
</g>
</svg>
